<svg width="48" height="48" viewBox="0 0 48 48" fill="none" xmlns="http://www.w3.org/2000/svg">
<rect width="48" height="48" rx="8" fill="#F7F1FF"/>
<path d="M23.1477 19.83C23.1477 19.5573 22.9264 19.3363 22.6541 19.3363H22.0637C21.936 19.341 21.815 19.3951 21.7262 19.4871C21.6375 19.5792 21.5879 19.7021 21.5879 19.83C21.5879 19.9578 21.6375 20.0807 21.7262 20.1728C21.815 20.2649 21.936 20.3189 22.0637 20.3236H22.6541C22.7189 20.3237 22.7831 20.3109 22.843 20.2861C22.903 20.2614 22.9574 20.225 23.0033 20.1791C23.0491 20.1333 23.0855 20.0789 23.1103 20.0189C23.1351 19.959 23.1478 19.8948 23.1477 19.83ZM26.1944 20.324H26.7847C26.9125 20.3193 27.0335 20.2652 27.1223 20.1731C27.211 20.0811 27.2606 19.9582 27.2606 19.8303C27.2606 19.7024 27.211 19.5795 27.1223 19.4875C27.0335 19.3954 26.9125 19.3413 26.7847 19.3366H26.1944C26.0666 19.3413 25.9456 19.3954 25.8569 19.4875C25.7681 19.5795 25.7186 19.7024 25.7186 19.8303C25.7186 19.9582 25.7681 20.0811 25.8569 20.1731C25.9456 20.2652 26.0666 20.3193 26.1944 20.324ZM23.1471 22.8683C23.4474 23.268 23.9251 23.5066 24.4241 23.5066C24.9231 23.5066 25.4001 23.268 25.7004 22.8683C25.7421 22.8167 25.773 22.7573 25.7912 22.6935C25.8095 22.6298 25.8147 22.563 25.8065 22.4972C25.7984 22.4313 25.7771 22.3678 25.7439 22.3104C25.7107 22.253 25.6663 22.2029 25.6133 22.163C25.5603 22.1231 25.4998 22.0943 25.4354 22.0783C25.3711 22.0623 25.3041 22.0594 25.2386 22.0699C25.1731 22.0803 25.1104 22.1038 25.0542 22.139C24.998 22.1741 24.9494 22.2203 24.9114 22.2746C24.6811 22.58 24.1661 22.58 23.9367 22.2746C23.8574 22.1716 23.7407 22.104 23.6118 22.0865C23.483 22.069 23.3524 22.103 23.2485 22.1812C23.1446 22.2593 23.0756 22.3753 23.0566 22.5039C23.0377 22.6325 23.0702 22.7635 23.1471 22.8683Z" fill="#6F2ECF"/>
<path d="M23.7346 37.1633C23.777 37.2125 23.8287 37.2527 23.8868 37.2818C23.9448 37.3109 24.008 37.3282 24.0728 37.3327C24.1375 37.3372 24.2026 37.3289 24.2641 37.3082C24.3256 37.2875 24.3824 37.2548 24.4313 37.212C24.5301 37.1261 24.5908 37.0046 24.5999 36.874C24.6091 36.7434 24.5661 36.6145 24.4803 36.5157L22.0933 33.7683C21.9604 33.4034 21.6988 33.0996 21.3576 32.914C21.4693 32.2113 21.8033 31.5877 22.3006 31.1273L26.6549 36.2443C26.6969 36.2938 26.7482 36.3345 26.8059 36.3641C26.8636 36.3937 26.9266 36.4116 26.9912 36.4168C27.0559 36.4221 27.1209 36.4145 27.1826 36.3946C27.2444 36.3746 27.3015 36.3427 27.3509 36.3007C27.4059 36.2537 27.4459 36.1967 27.4753 36.1357C27.9086 36.513 28.4516 36.728 29.0326 36.728H34.7049C35.1623 36.728 35.6176 36.5843 35.9613 36.283C36.1655 36.1063 36.3272 35.8857 36.4343 35.6377C36.5415 35.3898 36.5912 35.1209 36.5799 34.851C36.4809 32.256 36.4056 30.7673 36.3556 30.429C35.9796 27.805 32.6086 27.0697 32.4896 27.0453C32.2729 26.9883 29.5116 26.357 29.1513 26.2477C28.4683 26.0377 27.8989 25.5597 27.5599 24.937C28.4069 24.345 29.1053 23.5003 29.6116 22.4633H30.3639C30.8799 22.4633 31.3946 22.3057 31.7869 21.9703C32.0713 21.7299 32.2862 21.4178 32.4095 21.0664C32.5327 20.715 32.5598 20.3371 32.4879 19.9717C32.3006 19.0153 31.4696 18.32 30.5003 18.2903C30.5003 18.2903 30.4683 17.4757 30.4206 17.1993C30.4886 17.1473 30.8873 16.7037 30.9073 16.6437C31.0113 16.3303 31.3759 15.2253 31.6416 14.3237C32.1616 12.4953 30.6223 11.74 30.5973 11.7293C29.4446 11.241 27.4473 10.648 24.4259 10.6673C20.0559 10.695 18.1623 11.7403 18.1113 11.7653C17.6936 12.0252 17.3754 12.4179 17.208 12.8804C17.0405 13.3429 17.0334 13.8483 17.1879 14.3153L17.9726 16.7263L17.9776 16.7247C18.0369 16.933 18.3063 17.1017 18.4166 17.1873C18.3706 17.4727 18.3396 18.291 18.3396 18.291C17.3733 18.3233 16.5456 19.0177 16.3583 19.972C16.2865 20.3374 16.3138 20.7153 16.4371 21.0667C16.5605 21.418 16.7755 21.73 17.0599 21.9703C17.4523 22.3057 17.9673 22.4633 18.4836 22.4633H19.2449C19.7536 23.4993 20.4486 24.3473 21.2966 24.9317C20.8233 25.8757 19.5636 26.2827 19.5073 26.2993L14.3826 20.1993V19.282C14.3825 19.0275 14.2873 18.7822 14.1156 18.5943L13.1936 17.585C13.0993 17.4798 12.9838 17.3957 12.8547 17.3382C12.7257 17.2807 12.5859 17.2511 12.4446 17.2513C12.4316 17.2513 12.4199 17.2547 12.4073 17.2553V15.4863C12.4026 15.3585 12.3485 15.2376 12.2564 15.1488C12.1644 15.0601 12.0415 15.0105 11.9136 15.0105C11.7857 15.0105 11.6628 15.0601 11.5708 15.1488C11.4787 15.2376 11.4246 15.3585 11.4199 15.4863V27.338C11.4199 27.4689 11.4719 27.5945 11.5645 27.6871C11.6571 27.7797 11.7827 27.8317 11.9136 27.8317C12.0445 27.8317 12.1701 27.7797 12.2627 27.6871C12.3552 27.5945 12.4073 27.4689 12.4073 27.338V25.4783L13.3619 25.4817C13.4536 25.4817 13.5409 25.4657 13.6253 25.4427L15.2633 27.403C14.2536 27.8243 12.7273 28.731 12.4846 30.429C12.4243 30.8523 12.3306 33.068 12.2626 34.8487C12.2502 35.1173 12.2985 35.3854 12.404 35.6328C12.5095 35.8802 12.6694 36.1006 12.8719 36.2777C13.2139 36.5817 13.6686 36.7277 14.1263 36.7277H19.7473C20.3516 36.7277 20.9469 36.526 21.3993 36.125C21.5583 35.984 21.9719 35.3613 22.0326 35.2037L23.7346 37.1633ZM20.3799 32.7047H19.1566C19.2223 32.2197 19.5589 31.2827 19.5669 31.26C20.3863 29.417 22.2369 28.55 22.7866 28.3737C22.7986 28.3703 23.4279 28.1153 24.4239 28.1153C25.2249 28.1153 26.0496 28.3703 26.0609 28.3737C27.0136 28.6784 27.8603 29.2471 28.5027 30.0137C29.1452 30.7803 29.5571 31.7134 29.6906 32.7047H28.4673C28.1353 30.7647 26.4486 29.3073 24.4236 29.3073C22.3986 29.3073 20.7119 30.7643 20.3799 32.7047ZM23.1329 30.5817C23.5376 30.3948 23.9778 30.297 24.4236 30.295C25.1627 30.2942 25.8777 30.5574 26.4398 31.0372C27.0019 31.5171 27.3741 32.182 27.4893 32.912C27.0173 33.1697 26.6853 33.6443 26.6529 34.205C26.6439 34.3923 26.6571 34.5801 26.6923 34.7643L23.1329 30.5817ZM32.2633 28.006C32.2916 28.012 35.0996 28.622 35.3786 30.571C35.4216 30.8633 35.5003 32.437 35.5933 34.8887C35.598 34.9987 35.5803 35.1086 35.5412 35.2116C35.502 35.3146 35.4423 35.4086 35.3656 35.4877C35.2888 35.5679 35.1964 35.6316 35.0942 35.675C34.992 35.7183 34.882 35.7405 34.7709 35.74H29.0326C28.8491 35.7406 28.6673 35.7048 28.4978 35.6347C28.3283 35.5645 28.1743 35.4614 28.0449 35.3313C27.9057 35.1917 27.7975 35.0241 27.7276 34.8397C27.6577 34.6553 27.6276 34.4582 27.6393 34.2613C27.6573 33.9473 27.9453 33.692 28.2819 33.692L33.6416 33.712C33.7694 33.7073 33.8904 33.6532 33.9791 33.5612C34.0679 33.4691 34.1174 33.3462 34.1174 33.2183C34.1174 33.0905 34.0679 32.9676 33.9791 32.8755C33.8904 32.7834 33.7694 32.7294 33.6416 32.7247H32.8186V30.2557C32.8139 30.1279 32.7598 30.0069 32.6678 29.9181C32.5757 29.8294 32.4528 29.7798 32.3249 29.7798C32.197 29.7798 32.0742 29.8294 31.9821 29.9181C31.89 30.0069 31.836 30.1279 31.8313 30.2557V32.705H30.6806C30.5647 31.6706 30.193 30.6813 29.5991 29.8265C29.0053 28.9717 28.2079 28.2782 27.2789 27.8087C27.6233 27.5515 27.9311 27.2487 28.1939 26.9087C28.4066 27.023 28.6293 27.1207 28.8629 27.1923C29.3543 27.341 32.0303 27.9457 32.2633 28.006ZM27.4026 26.3223C27.0623 26.7589 26.6299 27.1152 26.1363 27.3657C25.5789 27.2086 25.0027 27.1285 24.4236 27.1277C23.8289 27.1277 23.2549 27.2137 22.7096 27.366C22.2164 27.1173 21.7847 26.762 21.4459 26.3257C21.4919 26.282 21.9946 25.7003 22.1483 25.425C22.3073 25.4983 22.4759 25.568 22.6696 25.6327C23.2059 25.8163 23.7956 25.9093 24.4229 25.9093C25.0499 25.9093 25.6399 25.816 26.1683 25.635C26.351 25.5748 26.5302 25.5042 26.7049 25.4237C26.89 25.7573 27.1253 26.0604 27.4026 26.3223ZM31.5193 20.1613C31.5507 20.3211 31.5463 20.486 31.5063 20.6439C31.4663 20.8018 31.3917 20.9488 31.2879 21.0743C31.1849 21.2 31.0552 21.3012 30.9083 21.3706C30.7613 21.4399 30.6008 21.4757 30.4383 21.4753H30.0159C30.2443 20.7987 30.3996 20.062 30.4756 19.2787C30.9839 19.2967 31.4206 19.6593 31.5193 20.1613ZM19.0453 16.4317C19.4643 16.1147 19.9773 15.929 20.5059 15.929H28.3466C28.8753 15.929 29.3883 16.1147 29.8073 16.4317C29.3886 16.7487 28.8756 16.934 28.3466 16.934H20.5059C19.9769 16.934 19.4643 16.7483 19.0453 16.4317ZM18.6236 12.6097C20.2556 11.9757 22.2069 11.6543 24.4259 11.6543C27.3116 11.6543 29.1829 12.197 30.1886 12.6237C30.6633 12.9033 30.8806 13.4863 30.6999 14.0263C30.5517 14.5242 30.3974 15.0202 30.2373 15.5143C29.6767 15.1423 29.0193 14.943 28.3466 14.941H20.5059C19.8343 14.941 19.1733 15.145 18.6169 15.5137L18.1273 14.009C18.0426 13.7538 18.0455 13.4776 18.1354 13.2242C18.2253 12.9708 18.3971 12.7545 18.6236 12.6097ZM18.4089 21.4753C18.2463 21.4756 18.0857 21.4398 17.9387 21.3703C17.7916 21.3008 17.6619 21.1995 17.5589 21.0737C17.4553 20.9482 17.3808 20.8013 17.3409 20.6436C17.301 20.4859 17.2965 20.3213 17.3279 20.1617C17.4263 19.6603 17.8606 19.299 18.3679 19.2793C18.4397 20.0269 18.5971 20.7637 18.8373 21.4753H18.4089ZM19.3273 19.029C19.3273 19.029 19.3373 17.8227 19.3463 17.7043C19.7173 17.839 20.1079 17.9213 20.5059 17.9213H28.3466C28.7406 17.9213 29.1263 17.84 29.4933 17.7083C29.5026 17.8243 29.5146 18.9923 29.5146 18.9923C29.3473 21.233 28.3006 23.908 25.8569 24.6987C24.9909 24.995 23.8603 24.9963 22.9859 24.6973C22.7279 24.6113 22.5236 24.5233 22.3256 24.4107C20.6439 23.5447 19.5226 21.5187 19.3273 19.029ZM20.6476 26.9017C20.9109 27.2446 21.2197 27.5499 21.5656 27.8093C21.3823 27.902 21.2036 28.003 21.0313 28.1127L20.1869 27.1077C20.3493 27.047 20.5039 26.981 20.6476 26.9017ZM20.2416 28.7123C19.7516 29.1441 19.3321 29.6497 18.9983 30.211L14.3349 24.752C14.3629 24.6593 14.3826 21.7373 14.3826 21.7373L20.2416 28.7123ZM13.3949 24.4613C13.3949 24.4793 12.4073 24.4613 12.4073 24.4613L12.4646 18.251L13.3949 19.2827V24.4613ZM19.8146 35.7403H14.0663C13.8406 35.7403 13.6296 35.6503 13.4733 35.487C13.3971 35.408 13.338 35.3142 13.2995 35.2115C13.2611 35.1088 13.2441 34.9992 13.2496 34.8897C13.3429 32.4373 13.4203 30.8627 13.4626 30.569C13.6599 29.1843 15.1583 28.4767 15.9369 28.1997L18.5346 31.1833C18.3489 31.6732 18.2252 32.1844 18.1663 32.705H17.0166V30.2557C17.0119 30.1279 16.9578 30.0069 16.8658 29.9181C16.7737 29.8294 16.6508 29.7798 16.5229 29.7798C16.395 29.7798 16.2722 29.8294 16.1801 29.9181C16.088 30.0069 16.034 30.1279 16.0293 30.2557V32.7247H15.2063C15.0753 32.7247 14.9498 32.7767 14.8572 32.8693C14.7646 32.9618 14.7126 33.0874 14.7126 33.2183C14.7126 33.3493 14.7646 33.4748 14.8572 33.5674C14.9498 33.66 15.0753 33.712 15.2063 33.712L20.5656 33.692C21.1366 33.692 21.2096 34.239 21.2116 34.255C21.2253 34.5677 20.7506 35.7403 19.8146 35.7403Z" fill="#6F2ECF"/>
</svg>
