<svg width="48" height="48" viewBox="0 0 48 48" fill="none" xmlns="http://www.w3.org/2000/svg">
<rect width="48" height="48" rx="8" fill="white"/>
<path d="M39 19.5H25C24.7 19.5 24.5 19.7 24.5 20V23.35L23.25 23.05L21.9 21.7C23.4 20.3 23.5 17.35 23.5 16.5C25.35 16.5 26.65 16 27.15 15.1C27.35 14.7 27.5 14.05 26.95 13.2C26.4 12.4 25.7 12 24.75 12H22.95C22.8 11.1 22.2 9.2 19.85 8.65C19.35 8.55 18.65 8.5 18.5 8.5C13.3 8.5 12.5 11 12.5 12.5V15C12.5 15.35 12.65 15.75 12.95 16.05C12.7 16.35 12.5 16.85 12.5 17.5C12.5 18.75 13.35 19.3 14.1 19.45C14.35 20.2 14.7 20.75 15.05 21.2L13.2 23.05C12.8 23.5 13.3 23.95 13.3 23.95L11.15 26.1C10.95 26.35 9 28.35 9 30C9 30.1 9 30.15 9.05 30.2L11.55 35.2C11.6 35.35 11.75 35.4 11.85 35.45C11.9 35.45 12.35 35.6 13 35.6C13 35.65 12.95 38.45 12.95 38.45C12.95 38.75 13.15 38.95 13.45 38.95C13.75 38.95 13.95 38.75 13.95 38.45V37.05C14.7 37.95 15.9 38.95 17.45 38.95C19 38.95 21.85 37.95 24.35 37.05C24.8 36.9 25.2 36.75 25.6 36.6C25.7 36.55 25.8 36.55 25.95 36.5V38.5C25.95 38.8 26.15 39 26.45 39C26.75 39 26.95 38.8 26.95 38.5V36.25C27.85 36.05 28.7 35.95 29.45 36H32.95C33.8 36 34.95 35.7 35.3 34.8C35.4 34.55 35.45 34.3 35.45 34H38.95C39.25 34 39.45 33.8 39.45 33.5V20C39.5 19.7 39.3 19.5 39 19.5ZM33.5 20.5V23.2L32.2 22.55C32.15 22.5 32.1 22.5 32 22.5C31.9 22.5 31.85 22.5 31.8 22.55L30.5 23.2V20.5H33.5ZM18.9 23.25C18.85 23.15 18.6 23 18.6 23C19.2 23 19.7 22.9 20.2 22.75L20 23.35L19.5 24.65C19.5 24.65 18.95 23.25 18.9 23.25ZM21.35 22.55L22.4 23.6L21.9 24.55L21.05 23.4L21.35 22.55ZM22.25 13C21.8 13.35 21.4 13.8 21.1 14.2C20.25 15.45 19.5 15.5 19.5 15.5H16.85C17.05 15.3 17.25 15.05 17.4 14.8C18 13.9 19.1 13 20 13H22.25ZM26.1 13.8C26.35 14.15 26.4 14.45 26.25 14.65C26.05 15.05 25.2 15.5 23.5 15.5H23.45C23.35 14.6 23.2 13.95 23.1 13.6C23.65 13.25 24.2 13 24.75 13C25.3 13 25.75 13.25 26.1 13.8ZM13.5 12.5C13.5 10.7 14.95 9.95 16.6 9.65C15.75 10.55 15.5 11.7 15.5 12.5C15.5 12.8 15.7 13 16 13C16.25 13 16.5 12.8 16.5 12.5C16.5 12.2 16.6 9.8 19.05 9.55C21.2 9.75 21.8 11.25 21.95 12H20C18.65 12 17.3 13.1 16.6 14.2C15.75 15.45 15 15.5 15 15.5H14C13.6 15.5 13.5 15.25 13.5 15V12.5ZM14.5 18.5C14.35 18.5 13.5 18.45 13.5 17.5C13.5 16.6 13.9 16.5 14 16.5H19.5C19.65 16.5 20.8 16.45 21.9 14.8C22 14.65 22.1 14.5 22.25 14.35C22.35 14.8 22.5 15.55 22.5 16.55C22.5 16.6 22.7 19.35 21.25 20.95C20.6 21.65 19.65 22 18.5 22C18.45 22 15.85 21.95 15 18.85C14.9 18.65 14.7 18.5 14.5 18.5ZM15.55 22.15L17.75 23.6L16.4 25.3L14.2 23.5L15.55 22.15ZM10 29.9C10.1 28.85 11.35 27.35 11.85 26.85L14.05 24.65L16.15 26.4C16.25 26.5 16.35 26.5 16.45 26.5H16.5C16.65 26.5 16.75 26.4 16.85 26.3L18.3 24.45L19 26.15C19.1 26.35 19.25 26.45 19.45 26.45C19.65 26.45 19.85 26.35 19.9 26.15L20.55 24.5L21.5 25.8C21.6 25.95 21.75 26 21.95 26C22.1 26 22.25 25.9 22.35 25.75L23.15 24.1L24.4 24.4V32.35C23.65 32.6 22.75 32.9 21.8 33.2C21.05 33.45 20.3 33.7 19.6 33.95C18.75 34.25 17.75 33.9 17.3 33.1L15.35 29.75C15.2 29.5 14.9 29.45 14.65 29.6C14.4 29.75 14.35 30.05 14.5 30.3L15.9 32.6C15.1 34.95 12.95 34.75 12.3 34.6L10 29.9ZM34.4 34.4C34.25 34.8 33.55 35 33 35H29.55C27.9 34.9 26.2 35.4 25.35 35.7C24.95 35.85 24.5 36 24.1 36.15C21.75 36.95 18.9 38 17.5 38C15.75 38 14.5 36.2 14.1 35.55C14.95 35.35 15.9 34.9 16.6 33.7C17.15 34.55 18.1 35.05 19.1 35.05C19.4 35.05 19.7 35 20 34.9C20.65 34.7 21.4 34.45 22.2 34.15C24.4 33.4 27.1 32.5 27.8 32.5H31.3C31.45 32.5 31.75 32.6 31.8 33H30.5C30.2 33 30 33.2 30 33.5C30 33.8 30.2 34 30.5 34C30.5 34 34.3 34.05 34.5 34.05C34.5 34.15 34.45 34.3 34.4 34.4ZM38.5 33H32.8C32.75 31.9 31.9 31.5 31.3 31.5H27.8C27.35 31.5 26.6 31.7 25.5 32V20.5H29.5V24C29.5 24.15 29.6 24.35 29.75 24.45C29.9 24.55 30.1 24.55 30.25 24.45L32.05 23.55L33.85 24.45C33.85 24.5 33.9 24.5 34 24.5C34.1 24.5 34.2 24.5 34.25 24.45C34.4 24.35 34.5 24.2 34.5 24V20.5H38.5V33Z" fill="#007CC2"/>
<path d="M29.5 29.5H27.5C27.2 29.5 27 29.7 27 30C27 30.3 27.2 30.5 27.5 30.5H29.5C29.8 30.5 30 30.3 30 30C30 29.7 29.8 29.5 29.5 29.5ZM27.5 29H28.5C28.8 29 29 28.8 29 28.5C29 28.2 28.8 28 28.5 28H27.5C27.2 28 27 28.2 27 28.5C27 28.8 27.2 29 27.5 29Z" fill="#007CC2"/>
</svg>
