<svg width="48" height="48" viewBox="0 0 48 48" fill="none" xmlns="http://www.w3.org/2000/svg">
<rect width="48" height="48" rx="8" fill="#FFF6C4"/>
<g clip-path="url(#clip0_4592_273770)">
<path d="M27.5324 29.8554L30.3952 31.5083M29.0843 27.1675L32.5266 29.1549M26.7689 21.3006C26.7021 21.5692 26.5799 21.821 26.4101 22.0396M25.9715 32.5382L27.4107 33.3691M16.0956 17.5357L16.8178 17.9527C16.8599 17.977 16.8743 18.0307 16.85 18.0728L11.9465 26.5658C11.9408 26.5758 11.9331 26.5846 11.9239 26.5916C11.9148 26.5986 11.9043 26.6038 11.8932 26.6068C11.882 26.6098 11.8704 26.6105 11.8589 26.609C11.8475 26.6075 11.8365 26.6038 11.8265 26.598L8.51271 24.6848C8.50272 24.679 8.49395 24.6714 8.48692 24.6622C8.47989 24.653 8.47474 24.6426 8.47175 24.6314C8.46876 24.6203 8.468 24.6087 8.4695 24.5972C8.47101 24.5858 8.47475 24.5747 8.48053 24.5647L13.384 16.0717C13.3897 16.0617 13.3974 16.0529 13.4066 16.0459C13.4157 16.0389 13.4262 16.0337 13.4373 16.0307C13.4485 16.0277 13.4601 16.027 13.4716 16.0285C13.483 16.03 13.494 16.0337 13.504 16.0395L14.1947 16.4383M15.7894 25.2652C15.6919 25.2982 15.5979 25.3408 15.5088 25.3923L13.761 26.4014C13.222 26.7126 13.0373 27.4018 13.3485 27.9408L13.7735 28.6769C14.0847 29.2159 14.7738 29.4006 15.3128 29.0894L17.0607 28.0803C17.7887 27.66 18.0473 26.7387 17.6525 26.0032M39.4873 24.6848C39.4973 24.679 39.5061 24.6714 39.5131 24.6622C39.5202 24.653 39.5253 24.6426 39.5283 24.6314C39.5313 24.6203 39.5321 24.6087 39.5306 24.5972C39.529 24.5858 39.5253 24.5747 39.5195 24.5647L34.6161 16.0717C34.6103 16.0617 34.6026 16.0529 34.5935 16.0459C34.5843 16.0389 34.5739 16.0337 34.5627 16.0307C34.5516 16.0277 34.5399 16.027 34.5285 16.0285C34.5171 16.03 34.506 16.0337 34.496 16.0395L31.1823 17.9527C31.1723 17.9584 31.1635 17.9661 31.1565 17.9753C31.1495 17.9844 31.1443 17.9949 31.1413 18.006C31.1383 18.0172 31.1376 18.0288 31.1391 18.0403C31.1406 18.0517 31.1443 18.0627 31.1501 18.0727L36.0535 26.5658C36.0593 26.5758 36.067 26.5846 36.0761 26.5916C36.0853 26.5986 36.0957 26.6038 36.1069 26.6068C36.118 26.6098 36.1297 26.6105 36.1411 26.609C36.1526 26.6075 36.1636 26.6038 36.1736 26.598L39.4873 24.6848Z" stroke="#F8BB34" stroke-miterlimit="10" stroke-linecap="round" stroke-linejoin="round"/>
<path d="M17.1058 31.6387L18.2935 30.953C19.0357 30.5244 19.2901 29.5753 18.8615 28.8331C18.4329 28.0908 17.4838 27.8365 16.7416 28.2651L15.5539 28.9508C15.0149 29.2619 14.8302 29.9511 15.1414 30.4901L15.5664 31.2263C15.8776 31.7652 16.5668 31.9499 17.1058 31.6387Z" stroke="#F8BB34" stroke-miterlimit="10" stroke-linecap="round" stroke-linejoin="round"/>
<path d="M19.5121 33.8325L20.6198 33.1929C21.3621 32.7643 21.6164 31.8152 21.1878 31.073C20.7592 30.3307 19.8101 30.0764 19.0679 30.505L17.9601 31.1445C17.4211 31.4557 17.2365 32.1449 17.5476 32.6839L17.9726 33.42C18.2839 33.959 18.9731 34.1436 19.5121 33.8325ZM22.1717 35.8809L22.9594 35.4261C23.7016 34.9976 23.9559 34.0485 23.5274 33.3062C23.0988 32.564 22.1497 32.3097 21.4074 32.7382L20.6197 33.193C20.0807 33.5042 19.8961 34.1933 20.2072 34.7323L20.6322 35.4685C20.9435 36.0074 21.6327 36.1921 22.1717 35.8809ZM23.9669 15.3721C23.4904 15.3721 23.1041 14.9858 23.1041 14.5093V12.7837C23.1041 12.3072 23.4904 11.9209 23.9669 11.9209C24.4434 11.9209 24.8297 12.3072 24.8297 12.7837V14.5093C24.8297 14.9858 24.4434 15.3721 23.9669 15.3721ZM27.8493 16.1191C27.4366 15.8809 27.2952 15.3532 27.5335 14.9406L28.3963 13.4462C28.6346 13.0335 29.1622 12.8921 29.5749 13.1304C29.9876 13.3686 30.1289 13.8963 29.8907 14.309L29.0279 15.8033C28.7896 16.216 28.262 16.3574 27.8493 16.1191ZM20.0845 16.1191C20.4972 15.8809 20.6386 15.3532 20.4003 14.9406L19.5375 13.4462C19.2992 13.0335 18.7716 12.8921 18.3589 13.1304C17.9462 13.3686 17.8049 13.8963 18.0431 14.309L18.9059 15.8033C19.1442 16.216 19.6719 16.3574 20.0845 16.1191Z" stroke="#F8BB34" stroke-miterlimit="10" stroke-linecap="round" stroke-linejoin="round"/>
<path d="M23.5835 34.7539L23.7959 34.8659L25.6353 35.9278C26.1815 36.2432 26.8802 36.0489 27.1851 35.4967L27.5962 34.7525C27.8931 34.215 27.705 33.5389 27.1733 33.2318L26.1286 32.6287L28.6694 34.0956C29.2156 34.411 29.9143 34.2167 30.2193 33.6645L30.6304 32.9204C30.9272 32.3829 30.7392 31.7067 30.2074 31.3997L28.6571 30.5045L30.9565 31.832C31.4955 32.1432 32.1847 31.9585 32.4959 31.4195L32.9209 30.6834C33.232 30.1445 33.0474 29.4554 32.5086 29.1442L31.1026 28.332L32.8654 29.35C33.4158 29.6679 34.1201 29.4679 34.4213 28.9081L34.8242 28.1594C35.1128 27.6229 34.9228 26.9541 34.3952 26.6495L34.3493 26.623M12.3281 25.9057L13.5173 26.591M19.7377 20.0649C19.1154 20.0493 18.5033 19.8774 17.9587 19.563L16.4815 18.7118" stroke="#F8BB34" stroke-miterlimit="10" stroke-linecap="round" stroke-linejoin="round"/>
<path d="M25.4688 18.3511L25.3997 18.3113C25.0007 18.0809 24.548 17.9596 24.0873 17.9596C23.6265 17.9596 23.1738 18.0809 22.7748 18.3113L18.6726 20.6797C18.5637 20.7426 18.4843 20.8461 18.4517 20.9676C18.4192 21.0891 18.4362 21.2185 18.499 21.3274L18.6519 21.5922C19.2936 22.7036 20.715 23.0844 21.8265 22.4428L22.4965 22.056C22.783 21.8906 23.1494 21.9378 23.3752 22.1795C23.7392 22.5693 24.2577 22.8129 24.8331 22.8129C25.4746 22.8129 26.0453 22.5101 26.4102 22.0396L28.1757 23.0589L31.0829 24.7374L34.3489 26.6231L35.6514 25.8693M31.5267 18.7248L30.1124 19.5396C29.7193 19.7664 29.2734 19.8858 28.8196 19.8858C28.3657 19.8858 27.9199 19.7663 27.5269 19.5394L27.4965 19.5219" stroke="#F8BB34" stroke-miterlimit="10" stroke-linecap="round" stroke-linejoin="round"/>
</g>
<defs>
<clipPath id="clip0_4592_273770">
<rect width="32" height="32" fill="white" transform="translate(8 8)"/>
</clipPath>
</defs>
</svg>
