<svg width="40" height="40" viewBox="0 0 40 40" fill="none" xmlns="http://www.w3.org/2000/svg">
<g clip-path="url(#clip0_5995_529)">
<path d="M21 30H13C11 30 10 29 10 27V19C10 17 11 16 13 16H18V27C18 29 19 30 21 30Z" stroke="#292D32" stroke-width="1.5" stroke-miterlimit="10" stroke-linecap="round" stroke-linejoin="round"/>
<path d="M18.11 12C18.03 12.3 18 12.63 18 13V16H13V14C13 12.9 13.9 12 15 12H18.11Z" stroke="#292D32" stroke-width="1.5" stroke-miterlimit="10" stroke-linecap="round" stroke-linejoin="round"/>
<path d="M22 16V21" stroke="#292D32" stroke-width="1.5" stroke-miterlimit="10" stroke-linecap="round" stroke-linejoin="round"/>
<path d="M26 16V21" stroke="#292D32" stroke-width="1.5" stroke-miterlimit="10" stroke-linecap="round" stroke-linejoin="round"/>
<path d="M25 25H23C22.45 25 22 25.45 22 26V30H26V26C26 25.45 25.55 25 25 25Z" stroke="#292D32" stroke-width="1.5" stroke-miterlimit="10" stroke-linecap="round" stroke-linejoin="round"/>
<path d="M14 21V25" stroke="#292D32" stroke-width="1.5" stroke-miterlimit="10" stroke-linecap="round" stroke-linejoin="round"/>
<path d="M18 27V13C18 11 19 10 21 10H27C29 10 30 11 30 13V27C30 29 29 30 27 30H21C19 30 18 29 18 27Z" stroke="#292D32" stroke-width="1.5" stroke-miterlimit="10" stroke-linecap="round" stroke-linejoin="round"/>
</g>
<defs>
<clipPath id="clip0_5995_529">
<rect width="40" height="40" rx="20" fill="white"/>
</clipPath>
</defs>
</svg>
