<svg width="64" height="65" viewBox="0 0 64 65" fill="none" xmlns="http://www.w3.org/2000/svg">
<rect y="0.900391" width="64" height="64" rx="32" fill="white"/>
<path d="M51.7458 32.1216C51.3884 31.6328 42.8741 20.1523 31.9998 20.1523C21.1255 20.1523 12.6108 31.6328 12.2538 32.1211C11.9154 32.5849 11.9154 33.2139 12.2538 33.6776C12.6108 34.1664 21.1255 45.6468 31.9998 45.6468C42.8741 45.6468 51.3884 34.1664 51.7458 33.678C52.0847 33.2143 52.0847 32.5849 51.7458 32.1216ZM31.9998 43.0095C23.9897 43.0095 17.0521 35.3897 14.9984 32.8987C17.0495 30.4055 23.9725 22.7897 31.9998 22.7897C40.0095 22.7897 46.9466 30.4081 49.0012 32.9005C46.9501 35.3936 40.0271 43.0095 31.9998 43.0095Z" fill="#00A271"/>
<path d="M32 24.9883C27.6374 24.9883 24.0879 28.5377 24.0879 32.9004C24.0879 37.2631 27.6374 40.8125 32 40.8125C36.3627 40.8125 39.9121 37.2631 39.9121 32.9004C39.9121 28.5377 36.3627 24.9883 32 24.9883ZM32 38.1751C29.0914 38.1751 26.7253 35.8089 26.7253 32.9004C26.7253 29.9919 29.0915 27.6257 32 27.6257C34.9085 27.6257 37.2747 29.9919 37.2747 32.9004C37.2747 35.8089 34.9086 38.1751 32 38.1751Z" fill="#00A271"/>
</svg>
