<svg width="64" height="65" viewBox="0 0 64 65" fill="none" xmlns="http://www.w3.org/2000/svg">
<rect y="0.900391" width="64" height="64" rx="32" fill="white"/>
<g clip-path="url(#clip0_4238_291043)">
<path d="M32.0666 26.8561C32.6171 26.8561 33.063 26.4099 33.063 25.8597C33.063 25.3094 32.6171 24.8633 32.0666 24.8633C27.6644 24.8633 24.0957 28.432 24.0957 32.8345C24.0957 37.2366 27.6644 40.8053 32.0666 40.8053C36.469 40.8053 40.0378 37.2366 40.0378 32.8345C40.0378 32.2839 39.5916 31.8381 39.0414 31.8381C38.4911 31.8381 38.045 32.2839 38.045 32.8345C38.045 36.1362 35.3686 38.8128 32.0666 38.8128C28.7649 38.8128 26.0882 36.1362 26.0882 32.8345C26.0882 29.5325 28.7649 26.8561 32.0666 26.8561Z" fill="#E16428"/>
<path d="M51.078 26.9156C50.905 26.3928 50.341 26.1093 49.8179 26.2823C49.3071 26.4514 49.0226 26.9952 49.1749 27.5113C52.1547 37.0001 46.8782 47.1078 37.3894 50.0875C27.9008 53.0673 17.7931 47.7908 14.8134 38.302C11.8334 28.8132 17.1102 18.7055 26.5987 15.7257C30.1112 14.6228 33.8771 14.6228 37.3894 15.7257C37.9167 15.8847 38.473 15.5863 38.632 15.0589C38.7886 14.5395 38.5014 13.9905 37.9854 13.8226C27.4492 10.517 16.2279 16.3785 12.9222 26.915C9.61657 37.4512 15.4784 48.6725 26.0146 51.9781C36.551 55.2838 47.772 49.4223 51.0777 38.8858C52.3002 34.9893 52.3002 30.8121 51.078 26.9156Z" fill="#E16428"/>
<path d="M33.964 20.0175C33.9692 19.4501 33.5334 18.9759 32.9676 18.9335C32.6701 18.9081 32.3722 18.8828 32.0668 18.8828C24.3626 18.8828 18.1172 25.1282 18.1172 32.8324C18.1172 40.5362 24.3626 46.7816 32.0668 46.7816C39.7706 46.7816 46.016 40.5362 46.016 32.8324C46.016 32.472 45.994 32.1119 45.9498 31.7542C45.8701 31.2073 45.3623 30.8286 44.8155 30.9082C44.2686 30.9876 43.8899 31.4957 43.9692 32.0426C43.9723 32.0633 43.9759 32.0838 43.9802 32.1045C44.0019 32.3459 44.0232 32.5852 44.0232 32.8318C44.0235 39.4355 38.6704 44.7885 32.0671 44.7892C25.4634 44.7895 20.1103 39.4361 20.11 32.8327C20.1097 26.2293 25.4625 20.8759 32.0661 20.8756H32.0664C32.3136 20.8756 32.5532 20.897 32.794 20.9183L32.9808 20.9339C33.5014 20.9562 33.9414 20.5521 33.9634 20.0315C33.9637 20.0266 33.9637 20.022 33.964 20.0175Z" fill="#E16428"/>
<path d="M38.0455 21.8729V25.4459L31.3628 32.1286C30.967 32.511 30.956 33.1418 31.3384 33.5376C31.7207 33.9334 32.3515 33.9444 32.7474 33.562C32.7556 33.5541 32.7638 33.5459 32.7718 33.5376L39.4545 26.8549H43.0275C43.2918 26.8549 43.5451 26.7499 43.7321 26.5629L49.7102 20.5845C50.0993 20.1954 50.0993 19.5646 49.7102 19.1755C49.5235 18.9887 49.2702 18.8837 49.0059 18.8837H46.0167V15.8945C46.0167 15.3443 45.5705 14.8981 45.02 14.8984C44.756 14.8984 44.5027 15.0034 44.3159 15.1902L38.3376 21.1686C38.1505 21.3553 38.0455 21.6086 38.0455 21.8729ZM40.0383 22.2855L44.0239 18.2999V19.8801C44.0239 20.4304 44.4701 20.8765 45.0203 20.8765H46.6005L42.6149 24.8621H40.0383V22.2855Z" fill="#E16428"/>
</g>
<defs>
<clipPath id="clip0_4238_291043">
<rect width="40" height="40" fill="white" transform="translate(12 12.9004)"/>
</clipPath>
</defs>
</svg>
