<svg width="64" height="64" viewBox="0 0 64 64" fill="none" xmlns="http://www.w3.org/2000/svg">
<rect width="64" height="64" rx="32" fill="white"/>
<g clip-path="url(#clip0_6087_1073)">
<path d="M16.2572 39.8489L18.6572 42.2489V48.6663C18.6583 49.55 19.0098 50.3972 19.6347 51.0221C20.2596 51.647 21.1068 51.9985 21.9906 51.9996H48.6632C49.547 51.9985 50.3942 51.647 51.0191 51.0221C51.644 50.3972 51.9955 49.55 51.9966 48.6663V31.9996C51.994 31.1582 51.6728 30.349 51.0976 29.7348C50.5225 29.1207 49.736 28.7472 48.8966 28.6896C49.2327 28.0609 49.3589 27.3411 49.2565 26.6355C49.1542 25.9299 48.8288 25.2756 48.3279 24.7683L39.8386 16.2736L39.8346 16.2663H39.8286L36.5412 12.9749C35.9163 12.3513 35.0695 12.001 34.1866 12.001C33.3037 12.001 32.4568 12.3513 31.8319 12.9749L12.9706 31.8436C12.3488 32.4718 12 33.32 12 34.2039C12 35.0878 12.3488 35.936 12.9706 36.5643L16.2572 39.8489ZM36.5366 14.8556L38.4199 16.7403L26.5006 28.6663H22.7299L36.5366 14.8556ZM18.6632 36.5036L16.7299 38.4369L14.8459 36.5529L18.6632 32.7329V36.5036ZM17.6726 39.3796L18.6632 38.3889V40.3703L17.6726 39.3796ZM50.6632 31.9996V48.6663C50.6632 49.1967 50.4525 49.7054 50.0775 50.0805C49.7024 50.4556 49.1937 50.6663 48.6632 50.6663H21.9966C21.4661 50.6663 20.9574 50.4556 20.5824 50.0805C20.2073 49.7054 19.9966 49.1967 19.9966 48.6663V31.9996C19.9966 31.4692 20.2073 30.9605 20.5824 30.5854C20.9574 30.2103 21.4661 29.9996 21.9966 29.9996H48.6632C49.1937 29.9996 49.7024 30.2103 50.0775 30.5854C50.4525 30.9605 50.6632 31.4692 50.6632 31.9996ZM47.3852 28.5416L47.2632 28.6663H28.3852L39.3626 17.6836L47.3832 25.7089C47.7573 26.0853 47.9674 26.5942 47.9678 27.1249C47.9681 27.6555 47.7587 28.1647 47.3852 28.5416ZM13.9146 32.7843L32.7746 13.9176C33.1544 13.5546 33.6594 13.3517 34.1848 13.351C34.7102 13.3502 35.2157 13.5517 35.5966 13.9136L20.4472 29.0663C19.8579 29.3785 19.3758 29.8604 19.0632 30.4496L13.9046 35.6089C13.5362 35.2305 13.3308 34.7227 13.3327 34.1946C13.3346 33.6664 13.5435 33.1601 13.9146 32.7843Z" fill="#E00086"/>
<path d="M22.6615 37.3333H26.6615C27.0151 37.3333 27.3542 37.1929 27.6043 36.9428C27.8543 36.6928 27.9948 36.3536 27.9948 36V33.3333C27.9948 32.9797 27.8543 32.6406 27.6043 32.3905C27.3542 32.1405 27.0151 32 26.6615 32H22.6615C22.3078 32 21.9687 32.1405 21.7186 32.3905C21.4686 32.6406 21.3281 32.9797 21.3281 33.3333V36C21.3281 36.3536 21.4686 36.6928 21.7186 36.9428C21.9687 37.1929 22.3078 37.3333 22.6615 37.3333ZM22.6615 33.3333H26.6615V36H22.6615V33.3333Z" fill="#E00086"/>
<path d="M21.9948 41.3327C22.1716 41.3327 22.3412 41.2624 22.4662 41.1374C22.5912 41.0124 22.6615 40.8428 22.6615 40.666V39.3327C22.6615 39.1559 22.5912 38.9863 22.4662 38.8613C22.3412 38.7363 22.1716 38.666 21.9948 38.666C21.818 38.666 21.6484 38.7363 21.5234 38.8613C21.3984 38.9863 21.3281 39.1559 21.3281 39.3327V40.666C21.3281 40.8428 21.3984 41.0124 21.5234 41.1374C21.6484 41.2624 21.818 41.3327 21.9948 41.3327Z" fill="#E00086"/>
<path d="M24.6667 38.666C24.4899 38.666 24.3203 38.7363 24.1953 38.8613C24.0702 38.9863 24 39.1559 24 39.3327V40.666C24 40.8428 24.0702 41.0124 24.1953 41.1374C24.3203 41.2624 24.4899 41.3327 24.6667 41.3327C24.8435 41.3327 25.013 41.2624 25.1381 41.1374C25.2631 41.0124 25.3333 40.8428 25.3333 40.666V39.3327C25.3333 39.1559 25.2631 38.9863 25.1381 38.8613C25.013 38.7363 24.8435 38.666 24.6667 38.666Z" fill="#E00086"/>
<path d="M26.6641 39.3327V40.666C26.6641 40.8428 26.7343 41.0124 26.8593 41.1374C26.9843 41.2624 27.1539 41.3327 27.3307 41.3327C27.5075 41.3327 27.6771 41.2624 27.8021 41.1374C27.9272 41.0124 27.9974 40.8428 27.9974 40.666V39.3327C27.9974 39.1559 27.9272 38.9863 27.8021 38.8613C27.6771 38.7363 27.5075 38.666 27.3307 38.666C27.1539 38.666 26.9843 38.7363 26.8593 38.8613C26.7343 38.9863 26.6641 39.1559 26.6641 39.3327Z" fill="#E00086"/>
<path d="M29.9948 38.666C29.818 38.666 29.6484 38.7363 29.5234 38.8613C29.3984 38.9863 29.3281 39.1559 29.3281 39.3327V40.666C29.3281 40.8428 29.3984 41.0124 29.5234 41.1374C29.6484 41.2624 29.818 41.3327 29.9948 41.3327C30.1716 41.3327 30.3412 41.2624 30.4662 41.1374C30.5912 41.0124 30.6615 40.8428 30.6615 40.666V39.3327C30.6615 39.1559 30.5912 38.9863 30.4662 38.8613C30.3412 38.7363 30.1716 38.666 29.9948 38.666Z" fill="#E00086"/>
<path d="M32.6667 41.3327C32.8435 41.3327 33.013 41.2624 33.1381 41.1374C33.2631 41.0124 33.3333 40.8428 33.3333 40.666V39.3327C33.3333 39.1559 33.2631 38.9863 33.1381 38.8613C33.013 38.7363 32.8435 38.666 32.6667 38.666C32.4899 38.666 32.3203 38.7363 32.1953 38.8613C32.0702 38.9863 32 39.1559 32 39.3327V40.666C32 40.8428 32.0702 41.0124 32.1953 41.1374C32.3203 41.2624 32.4899 41.3327 32.6667 41.3327Z" fill="#E00086"/>
<path d="M37.9948 38.666C37.818 38.666 37.6484 38.7363 37.5234 38.8613C37.3984 38.9863 37.3281 39.1559 37.3281 39.3327V40.666C37.3281 40.8428 37.3984 41.0124 37.5234 41.1374C37.6484 41.2624 37.818 41.3327 37.9948 41.3327C38.1716 41.3327 38.3412 41.2624 38.4662 41.1374C38.5912 41.0124 38.6615 40.8428 38.6615 40.666V39.3327C38.6615 39.1559 38.5912 38.9863 38.4662 38.8613C38.3412 38.7363 38.1716 38.666 37.9948 38.666Z" fill="#E00086"/>
<path d="M40.6667 38.666C40.4899 38.666 40.3203 38.7363 40.1953 38.8613C40.0702 38.9863 40 39.1559 40 39.3327V40.666C40 40.8428 40.0702 41.0124 40.1953 41.1374C40.3203 41.2624 40.4899 41.3327 40.6667 41.3327C40.8435 41.3327 41.013 41.2624 41.1381 41.1374C41.2631 41.0124 41.3333 40.8428 41.3333 40.666V39.3327C41.3333 39.1559 41.2631 38.9863 41.1381 38.8613C41.013 38.7363 40.8435 38.666 40.6667 38.666Z" fill="#E00086"/>
<path d="M43.3307 38.666C43.1539 38.666 42.9843 38.7363 42.8593 38.8613C42.7343 38.9863 42.6641 39.1559 42.6641 39.3327V40.666C42.6641 40.8428 42.7343 41.0124 42.8593 41.1374C42.9843 41.2624 43.1539 41.3327 43.3307 41.3327C43.5075 41.3327 43.6771 41.2624 43.8021 41.1374C43.9272 41.0124 43.9974 40.8428 43.9974 40.666V39.3327C43.9974 39.1559 43.9272 38.9863 43.8021 38.8613C43.6771 38.7363 43.5075 38.666 43.3307 38.666Z" fill="#E00086"/>
<path d="M45.9948 38.666C45.818 38.666 45.6484 38.7363 45.5234 38.8613C45.3984 38.9863 45.3281 39.1559 45.3281 39.3327V40.666C45.3281 40.8428 45.3984 41.0124 45.5234 41.1374C45.6484 41.2624 45.818 41.3327 45.9948 41.3327C46.1716 41.3327 46.3412 41.2624 46.4662 41.1374C46.5912 41.0124 46.6615 40.8428 46.6615 40.666V39.3327C46.6615 39.1559 46.5912 38.9863 46.4662 38.8613C46.3412 38.7363 46.1716 38.666 45.9948 38.666Z" fill="#E00086"/>
<path d="M24.6615 42.666H21.9948C21.818 42.666 21.6484 42.7363 21.5234 42.8613C21.3984 42.9863 21.3281 43.1559 21.3281 43.3327C21.3281 43.5095 21.3984 43.6791 21.5234 43.8041C21.6484 43.9291 21.818 43.9993 21.9948 43.9993H24.6615C24.8383 43.9993 25.0078 43.9291 25.1329 43.8041C25.2579 43.6791 25.3281 43.5095 25.3281 43.3327C25.3281 43.1559 25.2579 42.9863 25.1329 42.8613C25.0078 42.7363 24.8383 42.666 24.6615 42.666Z" fill="#E00086"/>
<path d="M29.9974 42.666H27.3307C27.1539 42.666 26.9843 42.7363 26.8593 42.8613C26.7343 42.9863 26.6641 43.1559 26.6641 43.3327C26.6641 43.5095 26.7343 43.6791 26.8593 43.8041C26.9843 43.9291 27.1539 43.9993 27.3307 43.9993H29.9974C30.1742 43.9993 30.3438 43.9291 30.4688 43.8041C30.5938 43.6791 30.6641 43.5095 30.6641 43.3327C30.6641 43.1559 30.5938 42.9863 30.4688 42.8613C30.3438 42.7363 30.1742 42.666 29.9974 42.666Z" fill="#E00086"/>
<path d="M24.6615 45.333H21.9948C21.818 45.333 21.6484 45.4032 21.5234 45.5283C21.3984 45.6533 21.3281 45.8229 21.3281 45.9997C21.3281 46.1765 21.3984 46.3461 21.5234 46.4711C21.6484 46.5961 21.818 46.6663 21.9948 46.6663H24.6615C24.8383 46.6663 25.0078 46.5961 25.1329 46.4711C25.2579 46.3461 25.3281 46.1765 25.3281 45.9997C25.3281 45.8229 25.2579 45.6533 25.1329 45.5283C25.0078 45.4032 24.8383 45.333 24.6615 45.333Z" fill="#E00086"/>
<path d="M29.9974 45.333H27.3307C27.1539 45.333 26.9843 45.4032 26.8593 45.5283C26.7343 45.6533 26.6641 45.8229 26.6641 45.9997C26.6641 46.1765 26.7343 46.3461 26.8593 46.4711C26.9843 46.5961 27.1539 46.6663 27.3307 46.6663H29.9974C30.1742 46.6663 30.3438 46.5961 30.4688 46.4711C30.5938 46.3461 30.6641 46.1765 30.6641 45.9997C30.6641 45.8229 30.5938 45.6533 30.4688 45.5283C30.3438 45.4032 30.1742 45.333 29.9974 45.333Z" fill="#E00086"/>
<path d="M35.3333 42.666H32.6667C32.4899 42.666 32.3203 42.7363 32.1953 42.8613C32.0702 42.9863 32 43.1559 32 43.3327C32 43.5095 32.0702 43.6791 32.1953 43.8041C32.3203 43.9291 32.4899 43.9993 32.6667 43.9993H35.3333C35.5101 43.9993 35.6797 43.9291 35.8047 43.8041C35.9298 43.6791 36 43.5095 36 43.3327C36 43.1559 35.9298 42.9863 35.8047 42.8613C35.6797 42.7363 35.5101 42.666 35.3333 42.666Z" fill="#E00086"/>
</g>
<defs>
<clipPath id="clip0_6087_1073">
<rect width="40" height="40" fill="white" transform="translate(12 12)"/>
</clipPath>
</defs>
</svg>
