<svg width="64" height="64" viewBox="0 0 64 64" fill="none" xmlns="http://www.w3.org/2000/svg">
<rect width="64" height="64" rx="32" fill="white"/>
<path d="M50.0078 47.625H49.6172V29.9297C49.6172 29.7743 49.5555 29.6253 49.4456 29.5154C49.3357 29.4055 49.1866 29.3438 49.0312 29.3438C48.8759 29.3438 48.7268 29.4055 48.6169 29.5154C48.507 29.6253 48.4453 29.7743 48.4453 29.9297V47.625H42.5859V25.5547C42.5859 25.5029 42.6065 25.4532 42.6431 25.4166C42.6798 25.38 42.7295 25.3594 42.7812 25.3594H48.25C48.3018 25.3594 48.3515 25.38 48.3881 25.4166C48.4247 25.4532 48.4453 25.5029 48.4453 25.5547V27.5859C48.4453 27.7413 48.507 27.8904 48.6169 28.0003C48.7268 28.1101 48.8759 28.1719 49.0312 28.1719C49.1866 28.1719 49.3357 28.1101 49.4456 28.0003C49.5555 27.8904 49.6172 27.7413 49.6172 27.5859V25.5547C49.6168 25.1922 49.4726 24.8447 49.2163 24.5884C48.96 24.3321 48.6125 24.1879 48.25 24.1875H42.7812C42.4188 24.1879 42.0713 24.3321 41.815 24.5884C41.5587 24.8447 41.4145 25.1922 41.4141 25.5547V47.625H40.6068V32.5859C40.6064 32.2235 40.4622 31.876 40.2059 31.6196C39.9496 31.3633 39.6021 31.2192 39.2396 31.2188H33.7709C33.4084 31.2191 33.0609 31.3633 32.8045 31.6196C32.5482 31.8759 32.4041 32.2235 32.4037 32.5859V47.625H31.5963V28.6797C31.5959 28.3172 31.4518 27.9697 31.1955 27.7134C30.9391 27.4571 30.5916 27.3129 30.2291 27.3125H24.7604C24.3979 27.3129 24.0504 27.4571 23.7941 27.7134C23.5378 27.9697 23.3936 28.3172 23.3932 28.6797V47.625H22.5859V38.8359C22.5855 38.4735 22.4413 38.126 22.185 37.8697C21.9287 37.6134 21.5812 37.4692 21.2188 37.4688H15.75C15.3875 37.4692 15.04 37.6134 14.7837 37.8697C14.5274 38.126 14.3832 38.4735 14.3828 38.8359V46.4141C14.3828 46.5695 14.4445 46.7185 14.5544 46.8284C14.6643 46.9383 14.8133 47 14.9688 47C15.1242 47 15.2732 46.9383 15.3831 46.8284C15.493 46.7185 15.5547 46.5695 15.5547 46.4141V38.8359C15.5547 38.7841 15.5753 38.7345 15.6119 38.6978C15.6485 38.6612 15.6982 38.6406 15.75 38.6406H21.2188C21.2706 38.6406 21.3202 38.6612 21.3569 38.6978C21.3935 38.7345 21.4141 38.7841 21.4141 38.8359V47.625H13.9922C13.8368 47.625 13.6878 47.6867 13.5779 47.7966C13.468 47.9065 13.4062 48.0555 13.4062 48.2109C13.4062 48.3663 13.468 48.5154 13.5779 48.6253C13.6878 48.7351 13.8368 48.7969 13.9922 48.7969H50.0078C50.1632 48.7969 50.3122 48.7351 50.4221 48.6253C50.532 48.5154 50.5938 48.3663 50.5938 48.2109C50.5938 48.0555 50.532 47.9065 50.4221 47.7966C50.3122 47.6867 50.1632 47.625 50.0078 47.625ZM24.5651 47.625V28.6797C24.5651 28.6279 24.5857 28.5782 24.6223 28.5416C24.6589 28.505 24.7086 28.4844 24.7604 28.4844H30.2291C30.2809 28.4844 30.3306 28.505 30.3672 28.5416C30.4039 28.5782 30.4245 28.6279 30.4245 28.6797V47.625H24.5651ZM33.5755 47.625V32.5859C33.5755 32.5341 33.5961 32.4845 33.6328 32.4478C33.6694 32.4112 33.7191 32.3906 33.7709 32.3906H39.2396C39.2914 32.3906 39.3411 32.4112 39.3777 32.4478C39.4143 32.4845 39.4349 32.5341 39.4349 32.5859V47.625H33.5755Z" fill="#007CC2"/>
<path d="M45.5145 15.2031C45.1423 15.2031 44.7764 15.2997 44.4528 15.4836C44.1292 15.6675 43.8589 15.9324 43.6685 16.2522C43.4781 16.572 43.3741 16.9358 43.3666 17.308C43.3591 17.6801 43.4485 18.0478 43.626 18.375L38.0599 22.9034C37.8516 22.6836 37.5991 22.5104 37.3191 22.3952C37.039 22.2801 36.7377 22.2256 36.435 22.2352C36.1324 22.2449 35.8352 22.3186 35.5631 22.4515C35.2909 22.5843 35.05 22.7733 34.8562 23.0059L29.6414 20.5042C29.6414 20.4949 29.6421 20.4857 29.6421 20.4763C29.6424 20.1471 29.567 19.8222 29.4218 19.5267C29.2766 19.2312 29.0654 18.973 28.8046 18.7721C28.5438 18.5712 28.2402 18.433 27.9175 18.368C27.5947 18.3031 27.2613 18.3132 26.9431 18.3975C26.6248 18.4819 26.3302 18.6383 26.082 18.8546C25.8338 19.0709 25.6387 19.3414 25.5116 19.6451C25.3845 19.9489 25.329 20.2778 25.3492 20.6064C25.3695 20.935 25.465 21.2546 25.6284 21.5404L19.2806 28.6384C18.7987 28.4452 18.263 28.4327 17.7726 28.6034C17.2821 28.7741 16.87 29.1164 16.6121 29.5672C16.3543 30.0179 16.2681 30.5467 16.3696 31.056C16.4711 31.5653 16.7533 32.0207 17.1642 32.3382C17.5751 32.6558 18.087 32.8139 18.6054 32.7836C19.1239 32.7533 19.6138 32.5366 19.9849 32.1733C20.3561 31.8101 20.5833 31.3249 20.6247 30.8072C20.6661 30.2896 20.519 29.7744 20.2103 29.3568L26.4655 22.3625C26.9416 22.6225 27.4985 22.6925 28.0241 22.5584C28.5498 22.4243 29.0051 22.0961 29.2985 21.6398L34.3778 24.0764C34.333 24.386 34.3564 24.7017 34.4463 25.0014C34.5362 25.301 34.6905 25.5774 34.8984 25.8113C35.1062 26.0451 35.3626 26.2307 35.6497 26.3551C35.9367 26.4795 36.2475 26.5398 36.5602 26.5316C36.873 26.5234 37.1802 26.447 37.4603 26.3078C37.7405 26.1685 37.9869 25.9698 38.1822 25.7254C38.3776 25.481 38.5172 25.1969 38.5913 24.893C38.6655 24.589 38.6723 24.2726 38.6114 23.9657L44.4492 19.2162C44.735 19.3794 45.0544 19.4748 45.3828 19.495C45.7113 19.5152 46.04 19.4597 46.3436 19.3327C46.6471 19.2057 46.9175 19.0107 47.1337 18.7627C47.35 18.5146 47.5064 18.2202 47.5908 17.9022C47.6752 17.5841 47.6854 17.2509 47.6207 16.9283C47.5559 16.6057 47.4179 16.3022 47.2172 16.0414C47.0166 15.7806 46.7587 15.5693 46.4635 15.424C46.1682 15.2787 45.8435 15.2031 45.5145 15.2031ZM18.4832 31.6094C18.2901 31.6094 18.1013 31.5521 17.9407 31.4448C17.7801 31.3375 17.6549 31.185 17.581 31.0065C17.5071 30.8281 17.4877 30.6317 17.5254 30.4423C17.5631 30.2529 17.6561 30.0789 17.7927 29.9423C17.9293 29.8057 18.1033 29.7127 18.2927 29.675C18.4821 29.6373 18.6785 29.6567 18.8569 29.7306C19.0354 29.8045 19.1879 29.9297 19.2952 30.0903C19.4025 30.2509 19.4598 30.4397 19.4598 30.6328C19.4595 30.8917 19.3565 31.1399 19.1734 31.323C18.9904 31.5061 18.7421 31.6091 18.4832 31.6094ZM27.4936 21.4531C27.3005 21.4531 27.1117 21.3959 26.9511 21.2885C26.7905 21.1812 26.6653 21.0287 26.5914 20.8503C26.5175 20.6718 26.4981 20.4755 26.5358 20.286C26.5735 20.0966 26.6665 19.9226 26.8031 19.786C26.9397 19.6495 27.1137 19.5564 27.3031 19.5188C27.4925 19.4811 27.6889 19.5004 27.8673 19.5743C28.0458 19.6483 28.1983 19.7734 28.3056 19.934C28.4129 20.0946 28.4702 20.2834 28.4702 20.4766C28.4699 20.7355 28.3669 20.9837 28.1838 21.1668C28.0008 21.3499 27.7525 21.4528 27.4936 21.4531ZM36.5041 25.3594C36.3109 25.3594 36.1221 25.3021 35.9615 25.1948C35.8009 25.0875 35.6758 24.935 35.6019 24.7565C35.5279 24.5781 35.5086 24.3817 35.5463 24.1923C35.584 24.0029 35.677 23.8289 35.8136 23.6923C35.9501 23.5557 36.1241 23.4627 36.3136 23.425C36.503 23.3873 36.6994 23.4067 36.8778 23.4806C37.0562 23.5545 37.2088 23.6797 37.3161 23.8403C37.4234 24.0009 37.4806 24.1897 37.4806 24.3828C37.4804 24.6417 37.3774 24.8899 37.1943 25.073C37.0112 25.2561 36.763 25.3591 36.5041 25.3594ZM45.5145 18.3281C45.3213 18.3281 45.1325 18.2709 44.9719 18.1635C44.8113 18.0562 44.6862 17.9037 44.6123 17.7253C44.5383 17.5468 44.519 17.3505 44.5567 17.161C44.5944 16.9716 44.6874 16.7976 44.8239 16.661C44.9605 16.5245 45.1345 16.4314 45.324 16.3938C45.5134 16.3561 45.7097 16.3754 45.8882 16.4493C46.0666 16.5233 46.2192 16.6484 46.3265 16.809C46.4338 16.9696 46.491 17.1584 46.491 17.3516C46.4907 17.6105 46.3878 17.8587 46.2047 18.0418C46.0216 18.2249 45.7734 18.3278 45.5145 18.3281Z" fill="#007CC2"/>
</svg>
