<svg width="64" height="64" viewBox="0 0 64 64" fill="none" xmlns="http://www.w3.org/2000/svg">
<rect width="64" height="64" rx="32" fill="white"/>
<path d="M35.125 34.3438C35.5562 34.3438 35.9062 33.9937 35.9062 33.5625C35.9062 33.1313 35.5562 32.7812 35.125 32.7812C34.6938 32.7812 34.3438 33.1313 34.3438 33.5625C34.3438 33.9937 34.6938 34.3438 35.125 34.3438Z" fill="#E16428"/>
<path d="M17.9375 34.3438C18.3687 34.3438 18.7188 33.9937 18.7188 33.5625C18.7188 33.1313 18.3687 32.7812 17.9375 32.7812C17.5063 32.7812 17.1562 33.1313 17.1562 33.5625C17.1562 33.9937 17.5063 34.3438 17.9375 34.3438Z" fill="#E16428"/>
<path d="M17.1562 46.0625C17.1562 46.494 17.506 46.8438 17.9375 46.8438H25.75C26.1815 46.8438 26.5312 46.494 26.5312 46.0625V38.25C26.5312 37.8185 26.1815 37.4688 25.75 37.4688H17.9375C17.506 37.4688 17.1562 37.8185 17.1562 38.25V46.0625ZM18.7188 39.0312H24.9688V45.2812H18.7188V39.0312Z" fill="#E16428"/>
<path d="M25.75 17.1562H17.9375C17.506 17.1562 17.1562 17.506 17.1562 17.9375V25.75C17.1562 26.1815 17.506 26.5312 17.9375 26.5312H25.75C26.1815 26.5312 26.5312 26.1815 26.5312 25.75V17.9375C26.5312 17.506 26.1815 17.1562 25.75 17.1562ZM24.9688 24.9688H18.7188V18.7188H24.9688V24.9688Z" fill="#E16428"/>
<path d="M46.8438 17.9375C46.8438 17.506 46.494 17.1562 46.0625 17.1562H38.25C37.8185 17.1562 37.4688 17.506 37.4688 17.9375V25.75C37.4688 26.1815 37.8185 26.5312 38.25 26.5312H46.0625C46.494 26.5312 46.8438 26.1815 46.8438 25.75V17.9375ZM45.2812 24.9688H39.0312V18.7188H45.2812V24.9688Z" fill="#E16428"/>
<path d="M46.8438 46.0625V38.25C46.8438 37.8185 46.494 37.4688 46.0625 37.4688H38.25C37.8185 37.4688 37.4688 37.8185 37.4688 38.25V46.0625C37.4688 46.494 37.8185 46.8438 38.25 46.8438H46.0625C46.494 46.8438 46.8438 46.494 46.8438 46.0625ZM45.2812 45.2812H39.0312V39.0312H45.2812V45.2812Z" fill="#E16428"/>
<path d="M22.625 40.5938H21.0625C20.631 40.5938 20.2812 40.9435 20.2812 41.375V42.9375C20.2812 43.369 20.631 43.7188 21.0625 43.7188H22.625C23.0565 43.7188 23.4062 43.369 23.4062 42.9375V41.375C23.4062 40.9435 23.0565 40.5938 22.625 40.5938Z" fill="#E16428"/>
<path d="M21.0625 23.4062H22.625C23.0565 23.4062 23.4062 23.0565 23.4062 22.625V21.0625C23.4062 20.631 23.0565 20.2812 22.625 20.2812H21.0625C20.631 20.2812 20.2812 20.631 20.2812 21.0625V22.625C20.2812 23.0565 20.631 23.4062 21.0625 23.4062Z" fill="#E16428"/>
<path d="M41.375 23.4062H42.9375C43.369 23.4062 43.7188 23.0565 43.7188 22.625V21.0625C43.7188 20.631 43.369 20.2812 42.9375 20.2812H41.375C40.9435 20.2812 40.5938 20.631 40.5938 21.0625V22.625C40.5938 23.0565 40.9435 23.4062 41.375 23.4062Z" fill="#E16428"/>
<path d="M41.375 43.7188H42.9375C43.369 43.7188 43.7188 43.369 43.7188 42.9375V41.375C43.7188 40.9435 43.369 40.5938 42.9375 40.5938H41.375C40.9435 40.5938 40.5938 40.9435 40.5938 41.375V42.9375C40.5938 43.369 40.9435 43.7188 41.375 43.7188Z" fill="#E16428"/>
<path d="M20.2812 33.5625C20.2812 33.994 20.631 34.3438 21.0625 34.3438H31.2188V38.25C31.2188 38.6815 31.5685 39.0312 32 39.0312C32.4315 39.0312 32.7812 38.6815 32.7812 38.25V33.5625C32.7812 33.131 32.4315 32.7812 32 32.7812H21.0625C20.631 32.7812 20.2812 33.131 20.2812 33.5625Z" fill="#E16428"/>
<path d="M25.75 31.2188C26.1815 31.2188 26.5312 30.869 26.5312 30.4375C26.5312 30.006 26.1815 29.6562 25.75 29.6562H17.9375C17.506 29.6562 17.1562 30.006 17.1562 30.4375C17.1562 30.869 17.506 31.2188 17.9375 31.2188H25.75Z" fill="#E16428"/>
<path d="M28.875 31.2188H32C32.4315 31.2188 32.7812 30.869 32.7812 30.4375C32.7812 30.006 32.4315 29.6562 32 29.6562H28.875C28.4435 29.6562 28.0938 30.006 28.0938 30.4375C28.0938 30.869 28.4435 31.2188 28.875 31.2188Z" fill="#E16428"/>
<path d="M28.875 17.1562C28.4435 17.1562 28.0938 17.506 28.0938 17.9375V25.75C28.0938 26.1815 28.4435 26.5312 28.875 26.5312H34.3438V30.4375C34.3438 30.869 34.6935 31.2188 35.125 31.2188H38.25C38.6815 31.2188 39.0312 30.869 39.0312 30.4375C39.0312 30.006 38.6815 29.6562 38.25 29.6562H35.9062V25.75C35.9062 25.3185 35.5565 24.9688 35.125 24.9688H29.6562V17.9375C29.6562 17.506 29.3065 17.1562 28.875 17.1562Z" fill="#E16428"/>
<path d="M46.0625 29.6562H41.375C40.9435 29.6562 40.5938 30.006 40.5938 30.4375C40.5938 30.869 40.9435 31.2188 41.375 31.2188H46.0625C46.494 31.2188 46.8438 30.869 46.8438 30.4375C46.8438 30.006 46.494 29.6562 46.0625 29.6562Z" fill="#E16428"/>
<path d="M46.0625 32.7812H38.25C37.8185 32.7812 37.4688 33.131 37.4688 33.5625C37.4688 33.994 37.8185 34.3438 38.25 34.3438H46.0625C46.494 34.3438 46.8438 33.994 46.8438 33.5625C46.8438 33.131 46.494 32.7812 46.0625 32.7812Z" fill="#E16428"/>
<path d="M32 40.5938H28.875C28.4435 40.5938 28.0938 40.9435 28.0938 41.375V46.0625C28.0938 46.494 28.4435 46.8438 28.875 46.8438C29.3065 46.8438 29.6562 46.494 29.6562 46.0625V42.1562H32C32.4315 42.1562 32.7812 41.8065 32.7812 41.375C32.7812 40.9435 32.4315 40.5938 32 40.5938Z" fill="#E16428"/>
<path d="M34.3438 45.2812H32C31.5685 45.2812 31.2188 45.631 31.2188 46.0625C31.2188 46.494 31.5685 46.8438 32 46.8438H35.125C35.5565 46.8438 35.9062 46.494 35.9062 46.0625V36.6875C35.9062 36.256 35.5565 35.9062 35.125 35.9062C34.6935 35.9062 34.3438 36.256 34.3438 36.6875V45.2812Z" fill="#E16428"/>
<path d="M35.125 23.4062C35.5565 23.4062 35.9062 23.0565 35.9062 22.625V17.9375C35.9062 17.506 35.5565 17.1562 35.125 17.1562C34.6935 17.1562 34.3438 17.506 34.3438 17.9375V21.8438H32C31.5685 21.8438 31.2188 22.1935 31.2188 22.625C31.2188 23.0565 31.5685 23.4062 32 23.4062H35.125Z" fill="#E16428"/>
</svg>
