<svg width="64" height="65" viewBox="0 0 64 65" fill="none" xmlns="http://www.w3.org/2000/svg">
<rect y="0.900391" width="64" height="64" rx="32" fill="white"/>
<path d="M47.4875 33.1029L43.1357 26.3827C42.7985 25.8618 42.2266 25.5508 41.606 25.5508H22.4055C21.7859 25.5508 21.2146 25.861 20.8771 26.3805L16.5118 33.1016C16.0657 33.7884 16.1346 34.6951 16.6794 35.3065L30.6374 50.9768C30.9828 51.3646 31.4788 51.5871 31.9981 51.5871C31.9981 51.5871 31.9982 51.5871 31.9981 51.5871C32.5174 51.5871 33.0136 51.3647 33.3591 50.9769L47.3186 35.3056C47.8626 34.6949 47.932 33.7891 47.4875 33.1029ZM40.7245 27.1132L37.0646 32.7726L33.4026 27.1132H40.7245ZM35.6288 33.4298H28.3675L31.9981 27.8189L35.6288 33.4298ZM30.5937 27.1134L26.9417 32.7572L23.291 27.1134H30.5937ZM21.8464 27.7567L25.516 33.4298H18.1618L21.8464 27.7567ZM18.4918 34.9923H26.3547L30.5122 48.4872L18.4918 34.9923ZM31.9981 48.0034L27.9896 34.9923H36.0067L31.9981 48.0034ZM33.484 48.4877L37.6417 34.9923H45.5053L33.484 48.4877ZM38.5005 33.4298L42.1667 27.7606L45.8377 33.4298H38.5005Z" fill="#E00086"/>
<path d="M14.3698 33.4297H12.7812C12.3498 33.4297 12 33.7795 12 34.2109C12 34.6424 12.3498 34.9922 12.7812 34.9922H14.3698C14.8012 34.9922 15.151 34.6424 15.151 34.2109C15.151 33.7795 14.8012 33.4297 14.3698 33.4297Z" fill="#E00086"/>
<path d="M51.2174 33.4297H49.6289C49.1975 33.4297 48.8477 33.7795 48.8477 34.2109C48.8477 34.6424 49.1975 34.9922 49.6289 34.9922H51.2174C51.6488 34.9922 51.9987 34.6424 51.9987 34.2109C51.9987 33.7795 51.6488 33.4297 51.2174 33.4297Z" fill="#E00086"/>
<path d="M46.1515 20.0745C45.8463 19.7694 45.3518 19.7694 45.0465 20.0745L42.4515 22.6696C42.1464 22.9747 42.1464 23.4694 42.4515 23.7744C42.6041 23.927 42.804 24.0033 43.004 24.0033C43.204 24.0033 43.4038 23.9269 43.5564 23.7744L46.1515 21.1794C46.4565 20.8743 46.4565 20.3797 46.1515 20.0745Z" fill="#E00086"/>
<path d="M21.5811 22.656L18.9861 20.0608C18.6811 19.7558 18.1865 19.7558 17.8812 20.0608C17.5761 20.3659 17.5761 20.8606 17.8812 21.1657L20.4762 23.7608C20.6288 23.9133 20.8287 23.9896 21.0287 23.9896C21.2286 23.9896 21.4285 23.9133 21.5811 23.7608C21.8862 23.4558 21.8862 22.961 21.5811 22.656Z" fill="#E00086"/>
<path d="M32.0195 14.2109C31.5881 14.2109 31.2383 14.5607 31.2383 14.9922V20.0834C31.2383 20.5149 31.588 20.8647 32.0195 20.8647C32.4509 20.8647 32.8008 20.5149 32.8008 20.0834V14.9922C32.8008 14.5608 32.4509 14.2109 32.0195 14.2109Z" fill="#E00086"/>
<path d="M32.5718 22.1762C32.4266 22.0309 32.225 21.9473 32.0195 21.9473C31.8141 21.9473 31.6125 22.0309 31.4672 22.1762C31.3219 22.3215 31.2383 22.523 31.2383 22.7285C31.2383 22.9348 31.3218 23.1355 31.4672 23.2809C31.6125 23.427 31.8141 23.5098 32.0195 23.5098C32.225 23.5098 32.4266 23.427 32.5718 23.2809C32.7179 23.1355 32.8008 22.934 32.8008 22.7285C32.8008 22.523 32.7179 22.3216 32.5718 22.1762Z" fill="#E00086"/>
</svg>
