<svg width="152" height="44" viewBox="0 0 152 44" fill="none" xmlns="http://www.w3.org/2000/svg">
<path d="M151.155 38.9355C151.155 41.2756 149.22 43.1711 146.826 43.1711H5.1778C2.78555 43.1711 0.84375 41.2756 0.84375 38.9355V5.15811C0.84375 2.81914 2.78555 0.916992 5.1778 0.916992H146.825C149.22 0.916992 151.154 2.81914 151.154 5.15811L151.155 38.9355Z" fill="white"/>
<path d="M146.37 0.968433C148.977 0.968433 151.098 3.03638 151.098 5.57774V38.5111C151.098 41.0525 148.977 43.1204 146.37 43.1204H5.62963C3.02311 43.1204 0.902148 41.0525 0.902148 38.5111V5.57774C0.902148 3.03638 3.02311 0.968433 5.62963 0.968433H146.37ZM146.37 0.0888405H5.62963C2.53474 0.0888405 0 2.56021 0 5.57774V38.5111C0 41.5286 2.53474 44 5.62963 44H146.37C149.465 44 152 41.5286 152 38.5111V5.57774C152 2.56021 149.465 0.0888405 146.37 0.0888405Z" fill="#A6A6A6"/>
<path d="M33.9215 21.8076C33.8889 18.2695 36.8928 16.5482 37.0302 16.468C35.3289 14.0496 32.692 13.7192 31.7654 13.6928C29.5507 13.4656 27.4024 14.9849 26.2742 14.9849C25.1235 14.9849 23.3862 13.7148 21.5138 13.7521C19.1043 13.7884 16.8502 15.1485 15.6139 17.2606C13.0626 21.5672 14.9654 27.8959 17.4098 31.377C18.6326 33.0818 20.0614 34.9854 21.9315 34.9184C23.7611 34.8449 24.4446 33.7811 26.6525 33.7811C28.8402 33.7811 29.482 34.9184 31.3893 34.8756C33.3529 34.8449 34.5892 33.1631 35.7691 31.4428C37.1822 29.4888 37.7497 27.5644 37.7722 27.4656C37.726 27.4502 33.9587 26.0484 33.9215 21.8076Z" fill="black"/>
<path d="M30.3185 11.4029C31.3026 10.203 31.9759 8.57061 31.789 6.91406C30.3647 6.97554 28.5835 7.87462 27.5578 9.04815C26.6503 10.0823 25.8396 11.7772 26.049 13.3712C27.649 13.4876 29.2917 12.5841 30.3185 11.4029Z" fill="black"/>
<path d="M55.2265 11.0768C55.2265 12.3689 54.8291 13.3415 54.0353 13.9947C53.3001 14.5973 52.2552 14.8992 50.9018 14.8992C50.2308 14.8992 49.6566 14.8707 49.1758 14.8136V7.75379C49.8029 7.65499 50.4785 7.60449 51.2081 7.60449C52.4973 7.60449 53.4689 7.87784 54.1242 8.42453C54.8583 9.04258 55.2265 9.9263 55.2265 11.0768ZM53.9824 11.1086C53.9824 10.271 53.7549 9.6288 53.3001 9.1809C52.8452 8.73411 52.1809 8.51016 51.306 8.51016C50.9345 8.51016 50.6181 8.53431 50.3558 8.58481V13.9519C50.501 13.9738 50.7667 13.9837 51.1529 13.9837C52.0559 13.9837 52.7529 13.7389 53.2438 13.2493C53.7347 12.7597 53.9824 12.0461 53.9824 11.1086Z" fill="black"/>
<path d="M61.8234 12.2057C61.8234 13.0016 61.5903 13.6537 61.1242 14.1652C60.6355 14.6911 59.9881 14.9534 59.1797 14.9534C58.4006 14.9534 57.7802 14.7021 57.3174 14.1971C56.8558 13.6932 56.625 13.0576 56.625 12.2913C56.625 11.49 56.8626 10.8324 57.34 10.3219C57.8174 9.81145 58.4591 9.55566 59.2675 9.55566C60.0467 9.55566 60.6727 9.80706 61.1467 10.3109C61.5971 10.8005 61.8234 11.4329 61.8234 12.2057ZM60.5995 12.243C60.5995 11.7655 60.4937 11.356 60.2831 11.0146C60.0354 10.6018 59.683 10.3955 59.2248 10.3955C58.7508 10.3955 58.3905 10.6018 58.1427 11.0146C57.9311 11.356 57.8264 11.7721 57.8264 12.2639C57.8264 12.7414 57.9322 13.1509 58.1427 13.4923C58.3983 13.9051 58.7541 14.1114 59.2135 14.1114C59.6639 14.1114 60.0174 13.9018 60.2719 13.4813C60.4903 13.1333 60.5995 12.7206 60.5995 12.243Z" fill="black"/>
<path d="M70.6686 9.66016L69.0078 14.8351H67.927L67.239 12.5879C67.0645 12.027 66.9226 11.4693 66.8123 10.916H66.7909C66.6884 11.4847 66.5466 12.0412 66.3642 12.5879L65.6334 14.8351H64.5402L62.9785 9.66016H64.1911L64.7913 12.1203C64.9365 12.7021 65.0558 13.2565 65.1516 13.7812H65.1729C65.2608 13.3487 65.406 12.7976 65.6109 12.1313L66.3642 9.66125H67.3257L68.0474 12.0786C68.2219 12.6681 68.3638 13.2356 68.473 13.7823H68.5057C68.5856 13.2499 68.7061 12.6823 68.866 12.0786L69.51 9.66125H70.6686V9.66016Z" fill="black"/>
<path d="M76.7851 14.8354H75.6052V11.8714C75.6052 10.958 75.2494 10.5013 74.5355 10.5013C74.1854 10.5013 73.9028 10.6265 73.6832 10.8779C73.4659 11.1293 73.3556 11.4257 73.3556 11.7649V14.8343H72.1756V11.1391C72.1756 10.6847 72.161 10.1918 72.1328 9.65824H73.1698L73.225 10.4673H73.2576C73.395 10.2159 73.5999 10.0084 73.869 9.84267C74.1887 9.64946 74.5468 9.55176 74.9386 9.55176C75.434 9.55176 75.8461 9.70764 76.1737 10.0205C76.5813 10.4036 76.7851 10.9756 76.7851 11.7352V14.8354Z" fill="black"/>
<path d="M80.0402 14.8356H78.8613V7.28613H80.0402V14.8356Z" fill="black"/>
<path d="M86.9875 12.2057C86.9875 13.0016 86.7544 13.6537 86.2883 14.1652C85.7996 14.6911 85.1511 14.9534 84.3438 14.9534C83.5635 14.9534 82.9431 14.7021 82.4815 14.1971C82.0199 13.6932 81.7891 13.0576 81.7891 12.2913C81.7891 11.49 82.0266 10.8324 82.504 10.3219C82.9814 9.81145 83.6232 9.55566 84.4305 9.55566C85.2108 9.55566 85.8356 9.80706 86.3108 10.3109C86.7611 10.8005 86.9875 11.4329 86.9875 12.2057ZM85.7625 12.243C85.7625 11.7655 85.6566 11.356 85.4461 11.0146C85.1995 10.6018 84.8459 10.3955 84.3888 10.3955C83.9137 10.3955 83.5534 10.6018 83.3068 11.0146C83.0951 11.356 82.9904 11.7721 82.9904 12.2639C82.9904 12.7414 83.0963 13.1509 83.3068 13.4923C83.5624 13.9051 83.9182 14.1114 84.3776 14.1114C84.8279 14.1114 85.1803 13.9018 85.4348 13.4813C85.6544 13.1333 85.7625 12.7206 85.7625 12.243Z" fill="black"/>
<path d="M92.6972 14.836H91.6377L91.5499 14.2399H91.5172C91.1547 14.7152 90.6379 14.9534 89.9668 14.9534C89.4658 14.9534 89.0604 14.7965 88.7553 14.4847C88.4783 14.2015 88.3398 13.8491 88.3398 13.4308C88.3398 12.7985 88.6101 12.3166 89.1539 11.9829C89.6966 11.6491 90.46 11.4856 91.4429 11.4932V11.3966C91.4429 10.7149 91.0758 10.3746 90.3406 10.3746C89.8171 10.3746 89.3554 10.503 88.9569 10.7577L88.717 10.0025C89.2102 9.70496 89.8193 9.55566 90.5377 9.55566C91.9248 9.55566 92.6206 10.2692 92.6206 11.6963V13.6021C92.6206 14.1191 92.6465 14.5308 92.6972 14.836ZM91.4722 13.0576V12.2595C90.1706 12.2375 89.5198 12.5855 89.5198 13.3024C89.5198 13.5724 89.5941 13.7744 89.7461 13.9095C89.8981 14.0445 90.0918 14.1114 90.3226 14.1114C90.5816 14.1114 90.8236 14.0313 91.0443 13.8721C91.2661 13.7119 91.4024 13.5088 91.453 13.2596C91.4654 13.2036 91.4722 13.1355 91.4722 13.0576Z" fill="black"/>
<path d="M99.4026 14.8356H98.3555L98.3003 14.0045H98.2677C97.9333 14.6369 97.3635 14.953 96.563 14.953C95.9235 14.953 95.3909 14.7082 94.9687 14.2186C94.5465 13.729 94.3359 13.0934 94.3359 12.3129C94.3359 11.4753 94.5645 10.7968 95.0239 10.2787C95.4686 9.79566 96.0136 9.55414 96.6621 9.55414C97.3748 9.55414 97.8736 9.78797 98.1573 10.2567H98.1798V7.28613H99.3609V13.4414C99.3609 13.9453 99.3744 14.4096 99.4026 14.8356ZM98.1798 12.6532V11.7903C98.1798 11.641 98.1686 11.5203 98.1472 11.4281C98.0808 11.1514 97.9378 10.9187 97.7205 10.731C97.5009 10.5432 97.2363 10.4488 96.9312 10.4488C96.4909 10.4488 96.1464 10.619 95.8931 10.9604C95.642 11.3018 95.5148 11.7376 95.5148 12.27C95.5148 12.7816 95.6352 13.1966 95.8773 13.516C96.1329 13.8563 96.4774 14.0265 96.9087 14.0265C97.296 14.0265 97.6056 13.8849 97.8409 13.6006C98.0684 13.3382 98.1798 13.022 98.1798 12.6532Z" fill="black"/>
<path d="M109.493 12.2057C109.493 13.0016 109.26 13.6537 108.794 14.1652C108.305 14.6911 107.659 14.9534 106.85 14.9534C106.072 14.9534 105.451 14.7021 104.987 14.1971C104.526 13.6932 104.295 13.0576 104.295 12.2913C104.295 11.49 104.532 10.8324 105.01 10.3219C105.487 9.81145 106.129 9.55566 106.939 9.55566C107.717 9.55566 108.344 9.80706 108.817 10.3109C109.267 10.8005 109.493 11.4329 109.493 12.2057ZM108.271 12.243C108.271 11.7655 108.165 11.356 107.954 11.0146C107.705 10.6018 107.354 10.3955 106.895 10.3955C106.422 10.3955 106.061 10.6018 105.813 11.0146C105.601 11.356 105.496 11.7721 105.496 12.2639C105.496 12.7414 105.602 13.1509 105.813 13.4923C106.068 13.9051 106.424 14.1114 106.883 14.1114C107.334 14.1114 107.688 13.9018 107.943 13.4813C108.16 13.1333 108.271 12.7206 108.271 12.243Z" fill="black"/>
<path d="M115.839 14.8354H114.66V11.8714C114.66 10.958 114.304 10.5013 113.589 10.5013C113.239 10.5013 112.956 10.6265 112.738 10.8779C112.519 11.1293 112.41 11.4257 112.41 11.7649V14.8343H111.229V11.1391C111.229 10.6847 111.216 10.1918 111.188 9.65824H112.223L112.279 10.4673H112.311C112.45 10.2159 112.655 10.0084 112.923 9.84267C113.243 9.64946 113.6 9.55176 113.993 9.55176C114.488 9.55176 114.9 9.70764 115.227 10.0205C115.636 10.4036 115.839 10.9756 115.839 11.7352V14.8354Z" fill="black"/>
<path d="M123.779 10.5226H122.48V13.0365C122.48 13.6754 122.711 13.9949 123.168 13.9949C123.38 13.9949 123.555 13.9773 123.694 13.9411L123.724 14.8138C123.491 14.8995 123.185 14.9423 122.808 14.9423C122.342 14.9423 121.979 14.804 121.717 14.5273C121.453 14.2507 121.323 13.7852 121.323 13.132V10.5226H120.547V9.66086H121.323V8.71238L122.479 8.37207V9.65977H123.778V10.5226H123.779Z" fill="black"/>
<path d="M130.026 14.8356H128.844V11.8935C128.844 10.9659 128.489 10.5015 127.776 10.5015C127.229 10.5015 126.855 10.7705 126.65 11.3084C126.615 11.4215 126.595 11.5598 126.595 11.7223V14.8345H125.416V7.28613H126.595V10.4049H126.617C126.989 9.83737 127.522 9.55414 128.212 9.55414C128.7 9.55414 129.105 9.71003 129.425 10.0229C129.825 10.4126 130.026 10.9922 130.026 11.7585V14.8356Z" fill="black"/>
<path d="M136.471 12.0028C136.471 12.2092 136.455 12.3827 136.427 12.5243H132.888C132.904 13.0359 133.073 13.4256 133.4 13.6956C133.7 13.9371 134.086 14.0579 134.559 14.0579C135.082 14.0579 135.56 13.9767 135.99 13.8131L136.175 14.6123C135.671 14.8252 135.079 14.9317 134.393 14.9317C133.571 14.9317 132.924 14.6957 132.456 14.2237C131.985 13.7516 131.752 13.1182 131.752 12.3234C131.752 11.5429 131.969 10.893 132.407 10.3748C132.864 9.82156 133.483 9.54492 134.263 9.54492C135.026 9.54492 135.606 9.82156 135.998 10.3748C136.314 10.814 136.471 11.3574 136.471 12.0028ZM135.345 11.7054C135.354 11.3639 135.276 11.0697 135.116 10.8216C134.911 10.5022 134.599 10.3419 134.177 10.3419C133.792 10.3419 133.478 10.4978 133.238 10.8107C133.042 11.0599 132.926 11.3574 132.888 11.7054H135.345Z" fill="black"/>
<path d="M60.3998 34.6727H57.8428L56.4421 30.3815H51.5736L50.2394 34.6727H47.75L52.5735 20.0635H55.5527L60.3998 34.6727ZM56.0199 28.5811L54.7533 24.7664C54.6193 24.3767 54.3682 23.4589 53.9978 22.0142H53.9527C53.8052 22.6356 53.5677 23.5533 53.2411 24.7664L51.997 28.5811H56.0199Z" fill="black"/>
<path d="M72.8031 29.2767C72.8031 31.0683 72.3066 32.4844 71.3135 33.524C70.424 34.4495 69.3195 34.9116 68.001 34.9116C66.5779 34.9116 65.5555 34.4132 64.9329 33.4164H64.8879V38.9657H62.4874V27.607C62.4874 26.4807 62.457 25.3247 62.3984 24.1391H64.5095L64.6435 25.8088H64.6886C65.4891 24.5508 66.704 23.9229 68.3343 23.9229C69.6089 23.9229 70.6729 24.4136 71.5241 25.3961C72.3775 26.3797 72.8031 27.6729 72.8031 29.2767ZM70.3576 29.3623C70.3576 28.337 70.1212 27.4917 69.646 26.8265C69.127 26.1327 68.43 25.7858 67.5563 25.7858C66.9641 25.7858 66.4259 25.979 65.9451 26.3599C65.4632 26.7441 65.1479 27.2458 65.0004 27.8672C64.9261 28.157 64.889 28.3941 64.889 28.5807V30.3372C64.889 31.1034 65.1299 31.75 65.6118 32.278C66.0937 32.8061 66.7197 33.0695 67.4899 33.0695C68.394 33.0695 69.0977 32.7292 69.601 32.0508C70.1054 31.3713 70.3576 30.4755 70.3576 29.3623Z" fill="black"/>
<path d="M85.2317 29.2767C85.2317 31.0683 84.7352 32.4844 83.741 33.524C82.8526 34.4495 81.7481 34.9116 80.4296 34.9116C79.0064 34.9116 77.9841 34.4132 77.3626 33.4164H77.3175V38.9657H74.9171V27.607C74.9171 26.4807 74.8867 25.3247 74.8281 24.1391H76.9392L77.0732 25.8088H77.1183C77.9177 24.5508 79.1325 23.9229 80.764 23.9229C82.0374 23.9229 83.1014 24.4136 83.9549 25.3961C84.805 26.3797 85.2317 27.6729 85.2317 29.2767ZM82.7862 29.3623C82.7862 28.337 82.5486 27.4917 82.0735 26.8265C81.5544 26.1327 80.8597 25.7858 79.9849 25.7858C79.3915 25.7858 78.8544 25.979 78.3725 26.3599C77.8906 26.7441 77.5765 27.2458 77.429 27.8672C77.3558 28.157 77.3175 28.3941 77.3175 28.5807V30.3372C77.3175 31.1034 77.5585 31.75 78.0381 32.278C78.52 32.805 79.1461 33.0695 79.9184 33.0695C80.8226 33.0695 81.5263 32.7292 82.0296 32.0508C82.534 31.3713 82.7862 30.4755 82.7862 29.3623Z" fill="black"/>
<path d="M99.1257 30.576C99.1257 31.8187 98.6832 32.8297 97.7949 33.6103C96.8187 34.4632 95.4597 34.8892 93.7134 34.8892C92.1011 34.8892 90.8085 34.5862 89.8301 33.9791L90.3863 32.0284C91.4402 32.6497 92.5965 32.9615 93.8564 32.9615C94.7605 32.9615 95.4642 32.7617 95.9698 32.3643C96.473 31.9669 96.7241 31.4334 96.7241 30.7681C96.7241 30.1753 96.517 29.6758 96.1015 29.2708C95.6883 28.8657 94.9981 28.4891 94.0343 28.1411C91.4109 27.1872 90.1003 25.7897 90.1003 23.952C90.1003 22.751 90.5597 21.7663 91.4796 21.0001C92.3961 20.2327 93.6188 19.8496 95.1478 19.8496C96.5113 19.8496 97.644 20.0812 98.5481 20.5434L97.948 22.4513C97.1036 22.0035 96.1488 21.7795 95.0803 21.7795C94.2358 21.7795 93.576 21.9826 93.1031 22.3866C92.7034 22.7477 92.503 23.188 92.503 23.7094C92.503 24.2868 92.7316 24.7644 93.191 25.1398C93.5907 25.4867 94.3169 25.8621 95.3708 26.2672C96.6599 26.7733 97.6069 27.365 98.216 28.0434C98.8229 28.7197 99.1257 29.5661 99.1257 30.576Z" fill="black"/>
<path d="M107.062 25.8949H104.416V31.0095C104.416 32.3103 104.883 32.9602 105.817 32.9602C106.246 32.9602 106.602 32.924 106.883 32.8515L106.95 34.6288C106.477 34.8012 105.854 34.8879 105.083 34.8879C104.135 34.8879 103.394 34.6058 102.859 34.0426C102.327 33.4784 102.059 32.5321 102.059 31.2027V25.8927H100.482V24.1363H102.059V22.2075L104.416 21.5137V24.1363H107.062V25.8949Z" fill="black"/>
<path d="M119.001 29.3194C119.001 30.9386 118.525 32.268 117.577 33.3076C116.583 34.378 115.264 34.9115 113.619 34.9115C112.033 34.9115 110.771 34.3988 109.83 33.3735C108.889 32.3482 108.418 31.0539 108.418 29.494C108.418 27.8616 108.902 26.5245 109.874 25.4849C110.843 24.4442 112.152 23.9238 113.797 23.9238C115.382 23.9238 116.657 24.4365 117.62 25.4629C118.541 26.4586 119.001 27.7441 119.001 29.3194ZM116.51 29.3952C116.51 28.4236 116.297 27.5904 115.866 26.8955C115.363 26.0546 114.643 25.6353 113.711 25.6353C112.746 25.6353 112.013 26.0557 111.51 26.8955C111.079 27.5915 110.866 28.4379 110.866 29.4391C110.866 30.4106 111.079 31.2438 111.51 31.9376C112.029 32.7785 112.754 33.1979 113.69 33.1979C114.606 33.1979 115.326 32.7697 115.845 31.9157C116.287 31.2076 116.51 30.3656 116.51 29.3952Z" fill="black"/>
<path d="M126.802 26.1975C126.564 26.1546 126.311 26.1327 126.045 26.1327C125.201 26.1327 124.548 26.4434 124.089 27.0658C123.689 27.6147 123.488 28.3085 123.488 29.1461V34.6734H121.089L121.112 27.4566C121.112 26.2425 121.081 25.137 121.021 24.1402H123.112L123.2 26.1557H123.267C123.52 25.463 123.92 24.9054 124.467 24.4871C125.002 24.1106 125.579 23.9229 126.202 23.9229C126.424 23.9229 126.624 23.9382 126.802 23.9657V26.1975Z" fill="black"/>
<path d="M137.537 28.9071C137.537 29.3265 137.509 29.68 137.45 29.9687H130.248C130.276 31.0094 130.624 31.8053 131.293 32.3541C131.9 32.8449 132.685 33.0908 133.648 33.0908C134.715 33.0908 135.688 32.925 136.562 32.5924L136.938 34.2171C135.916 34.6518 134.709 34.8681 133.316 34.8681C131.641 34.8681 130.326 34.3872 129.369 33.4267C128.414 32.4661 127.936 31.1762 127.936 29.5581C127.936 27.9696 128.38 26.6468 129.271 25.5918C130.203 24.4655 131.463 23.9023 133.048 23.9023C134.606 23.9023 135.784 24.4655 136.585 25.5918C137.219 26.4865 137.537 27.5931 137.537 28.9071ZM135.248 28.3C135.264 27.6062 135.108 27.0069 134.782 26.5008C134.367 25.8498 133.728 25.5249 132.869 25.5249C132.085 25.5249 131.446 25.8421 130.959 26.4788C130.559 26.9849 130.321 27.592 130.248 28.2989H135.248V28.3Z" fill="black"/>
</svg>
