<svg width="75" height="74" viewBox="0 0 75 74" fill="none" xmlns="http://www.w3.org/2000/svg">
<rect x="0.335938" width="74" height="74" rx="8" fill="#D4F3FF"/>
<path d="M29.0043 57.8333H45.6709C54.0459 57.8333 55.5459 54.4792 55.9834 50.3958L57.5459 33.7292C58.1084 28.6458 56.6501 24.5 47.7543 24.5H26.9209C18.0251 24.5 16.5668 28.6458 17.1293 33.7292L18.6918 50.3958C19.1293 54.4792 20.6293 57.8333 29.0043 57.8333Z" stroke="#007CC2" stroke-width="3" stroke-miterlimit="10" stroke-linecap="round" stroke-linejoin="round"/>
<path d="M29 24.4998V22.8332C29 19.1457 29 16.1665 35.6667 16.1665H39C45.6667 16.1665 45.6667 19.1457 45.6667 22.8332V24.4998" stroke="#007CC2" stroke-width="3" stroke-miterlimit="10" stroke-linecap="round" stroke-linejoin="round"/>
<path d="M41.5052 39.0833V41.1667C41.5052 41.1875 41.5052 41.1875 41.5052 41.2083C41.5052 43.4792 41.4844 45.3333 37.3385 45.3333C33.2135 45.3333 33.1719 43.5 33.1719 41.2292V39.0833C33.1719 37 33.1719 37 35.2552 37H39.4219C41.5052 37 41.5052 37 41.5052 39.0833Z" stroke="#007CC2" stroke-width="3" stroke-miterlimit="10" stroke-linecap="round" stroke-linejoin="round"/>
<path d="M57.4375 34.9165C52.625 38.4165 47.125 40.4998 41.5 41.2082" stroke="#007CC2" stroke-width="3" stroke-miterlimit="10" stroke-linecap="round" stroke-linejoin="round"/>
<path d="M17.7969 35.479C22.4844 38.6873 27.776 40.6248 33.1719 41.229" stroke="#007CC2" stroke-width="3" stroke-miterlimit="10" stroke-linecap="round" stroke-linejoin="round"/>
</svg>
