<svg width="40" height="40" viewBox="0 0 40 40" fill="none" xmlns="http://www.w3.org/2000/svg">
<rect width="40" height="40" rx="20" fill="#F7F1FF"/>
<path d="M19.0584 23.6601H16.0265C15.9277 23.6601 15.833 23.6993 15.7631 23.7691C15.6933 23.839 15.654 23.9337 15.654 24.0325V31.1293C15.654 31.2281 15.6933 31.3228 15.7631 31.3927C15.833 31.4625 15.9277 31.5018 16.0265 31.5018H19.0584C19.1572 31.5018 19.2519 31.4625 19.3218 31.3927C19.3916 31.3228 19.4309 31.2281 19.4309 31.1293V24.0325C19.4309 23.9337 19.3916 23.839 19.3218 23.7691C19.2519 23.6993 19.1572 23.6601 19.0584 23.6601ZM18.6859 30.7568H16.389V24.405H18.6859V30.7568ZM13.8438 27.7175H10.8119C10.7131 27.7175 10.6184 27.7567 10.5485 27.8266C10.4787 27.8964 10.4395 27.9912 10.4395 28.09V31.1293C10.4395 31.2281 10.4787 31.3228 10.5485 31.3927C10.6184 31.4625 10.7131 31.5018 10.8119 31.5018H13.8438C13.9426 31.5018 14.0374 31.4625 14.1072 31.3927C14.1771 31.3228 14.2163 31.2281 14.2163 31.1293V28.09C14.2163 27.9912 14.1771 27.8964 14.1072 27.8266C14.0374 27.7567 13.9426 27.7175 13.8438 27.7175ZM13.4714 30.7568H11.1745V28.4624H13.4714V30.7568ZM24.1265 25.6888H21.0846C20.9859 25.6888 20.8911 25.728 20.8213 25.7979C20.7514 25.8677 20.7122 25.9625 20.7122 26.0612V30.9828C20.7122 31.0816 20.7514 31.1763 20.8213 31.2462C20.8911 31.316 20.9859 31.3553 21.0846 31.3553H24.1265C24.2253 31.3553 24.32 31.316 24.3899 31.2462C24.4597 31.1763 24.4989 31.0816 24.4989 30.9828V26.0612C24.4989 25.9625 24.4597 25.8677 24.3899 25.7979C24.32 25.728 24.2253 25.6888 24.1265 25.6888ZM23.754 30.6103H21.4571V26.4337H23.754V30.6103ZM29.1871 20.6207H26.1552C26.0564 20.6207 25.9617 20.6599 25.8918 20.7298C25.822 20.7996 25.7827 20.8944 25.7827 20.9932V31.1293C25.7827 31.2281 25.822 31.3228 25.8918 31.3927C25.9617 31.4625 26.0564 31.5018 26.1552 31.5018H29.1871C29.2859 31.5018 29.3806 31.4625 29.4505 31.3927C29.5203 31.3228 29.5596 31.2281 29.5596 31.1293V20.9932C29.5596 20.8944 29.5203 20.7996 29.4505 20.7298C29.3806 20.6599 29.2859 20.6207 29.1871 20.6207ZM28.8146 30.7568H26.5277V21.3656H28.8246L28.8146 30.7568ZM12.3242 25.4802C12.4872 25.4802 12.6486 25.4481 12.7993 25.3857C12.9499 25.3233 13.0868 25.2318 13.2021 25.1165C13.3174 25.0013 13.4088 24.8644 13.4712 24.7137C13.5336 24.5631 13.5657 24.4017 13.5657 24.2386C13.5648 24.0911 13.5379 23.9448 13.4863 23.8066L16.831 21.2018C17.0878 21.3802 17.4029 21.4538 17.7122 21.4077C18.0214 21.3615 18.3013 21.199 18.4947 20.9534L21.3727 22.1031V22.1975C21.3727 22.5268 21.5035 22.8426 21.7363 23.0754C21.9692 23.3082 22.285 23.4391 22.6142 23.4391C22.9435 23.4391 23.2593 23.3082 23.4922 23.0754C23.725 22.8426 23.8558 22.5268 23.8558 22.1975C23.8547 22.0012 23.807 21.8081 23.7168 21.6338L27.0963 18.3039C27.2734 18.4021 27.4724 18.4542 27.6749 18.4554C27.9204 18.4554 28.1605 18.3826 28.3647 18.2462C28.5688 18.1097 28.728 17.9158 28.8219 17.689C28.9159 17.4621 28.9405 17.2125 28.8926 16.9716C28.8447 16.7308 28.7264 16.5096 28.5528 16.3359C28.3792 16.1623 28.1579 16.044 27.9171 15.9961C27.6763 15.9482 27.4266 15.9728 27.1997 16.0668C26.9729 16.1608 26.779 16.3199 26.6425 16.5241C26.5061 16.7282 26.4333 16.9683 26.4333 17.2138C26.4364 17.4059 26.484 17.5946 26.5724 17.7651L23.1854 21.1148C22.9336 20.9775 22.6414 20.9334 22.3603 20.9902C22.0792 21.0469 21.8271 21.201 21.6483 21.4252L18.7704 20.2731C18.7704 20.2433 18.7704 20.2135 18.7704 20.1812C18.7704 19.8519 18.6396 19.5361 18.4067 19.3033C18.1739 19.0704 17.8581 18.9396 17.5288 18.9396C17.1995 18.9396 16.8837 19.0704 16.6509 19.3033C16.418 19.5361 16.2872 19.8519 16.2872 20.1812C16.2878 20.329 16.3156 20.4755 16.3692 20.6133L13.0294 23.228C12.8691 23.1178 12.6852 23.0468 12.4924 23.0207C12.2997 22.9946 12.1035 23.0142 11.9197 23.0778C11.7359 23.1414 11.5697 23.2473 11.4343 23.387C11.299 23.5267 11.1983 23.6962 11.1405 23.8819C11.0827 24.0676 11.0693 24.2643 11.1014 24.4561C11.1335 24.6479 11.2103 24.8295 11.3254 24.9863C11.4406 25.143 11.591 25.2705 11.7645 25.3584C11.9379 25.4464 12.1297 25.4923 12.3242 25.4926V25.4802ZM27.6749 16.7122C27.7731 16.7122 27.8691 16.7414 27.9508 16.7959C28.0325 16.8505 28.0961 16.9281 28.1337 17.0188C28.1713 17.1096 28.1811 17.2094 28.162 17.3058C28.1428 17.4021 28.0955 17.4906 28.026 17.56C27.9566 17.6295 27.8681 17.6768 27.7718 17.696C27.6754 17.7151 27.5756 17.7053 27.4848 17.6677C27.3941 17.6301 27.3165 17.5665 27.2619 17.4848C27.2074 17.4031 27.1782 17.3071 27.1782 17.2089C27.1782 17.0772 27.2306 16.9508 27.3237 16.8577C27.4168 16.7646 27.5432 16.7122 27.6749 16.7122ZM22.6068 21.7108C22.705 21.7108 22.801 21.7399 22.8827 21.7945C22.9644 21.8491 23.028 21.9266 23.0656 22.0174C23.1032 22.1081 23.113 22.208 23.0939 22.3043C23.0747 22.4006 23.0274 22.4891 22.958 22.5586C22.8885 22.628 22.8 22.6753 22.7037 22.6945C22.6074 22.7137 22.5075 22.7038 22.4167 22.6662C22.326 22.6287 22.2484 22.565 22.1939 22.4833C22.1393 22.4017 22.1102 22.3056 22.1102 22.2074C22.1102 22.0757 22.1625 21.9494 22.2556 21.8563C22.3488 21.7631 22.4751 21.7108 22.6068 21.7108ZM17.5362 19.6821C17.6345 19.6821 17.7305 19.7112 17.8122 19.7658C17.8938 19.8203 17.9575 19.8979 17.9951 19.9887C18.0327 20.0794 18.0425 20.1793 18.0233 20.2756C18.0042 20.3719 17.9569 20.4604 17.8874 20.5299C17.818 20.5993 17.7295 20.6466 17.6331 20.6658C17.5368 20.6849 17.4369 20.6751 17.3462 20.6375C17.2554 20.5999 17.1779 20.5363 17.1233 20.4546C17.0687 20.3729 17.0396 20.2769 17.0396 20.1787C17.0396 20.047 17.0919 19.9207 17.1851 19.8275C17.2782 19.7344 17.4045 19.6821 17.5362 19.6821ZM12.3217 23.737C12.4199 23.737 12.5159 23.7662 12.5976 23.8207C12.6792 23.8753 12.7429 23.9529 12.7805 24.0436C12.8181 24.1344 12.8279 24.2342 12.8088 24.3305C12.7896 24.4269 12.7423 24.5154 12.6728 24.5848C12.6034 24.6543 12.5149 24.7016 12.4186 24.7207C12.3222 24.7399 12.2224 24.7301 12.1316 24.6925C12.0409 24.6549 11.9633 24.5912 11.9087 24.5096C11.8542 24.4279 11.825 24.3319 11.825 24.2337C11.825 24.1682 11.838 24.1034 11.8631 24.043C11.8882 23.9826 11.925 23.9278 11.9714 23.8816C12.0178 23.8355 12.0728 23.7989 12.1333 23.7741C12.1939 23.7493 12.2587 23.7367 12.3242 23.737H12.3217ZM21.2411 18.6789C22.2479 18.6789 23.232 18.3803 24.0692 17.821C24.9063 17.2617 25.5587 16.4666 25.944 15.5365C26.3293 14.6063 26.4301 13.5828 26.2337 12.5954C26.0373 11.6079 25.5525 10.7009 24.8405 9.989C24.1286 9.27709 23.2216 8.79228 22.2342 8.59586C21.2467 8.39945 20.2232 8.50025 19.2931 8.88553C18.3629 9.27082 17.5679 9.92327 17.0085 10.7604C16.4492 11.5975 16.1507 12.5817 16.1507 13.5885C16.1526 14.9379 16.6896 16.2316 17.6438 17.1858C18.598 18.14 19.8916 18.6769 21.2411 18.6789ZM21.2411 9.24299C22.1005 9.24299 22.9407 9.49785 23.6553 9.97533C24.3699 10.4528 24.9269 11.1315 25.2558 11.9255C25.5847 12.7196 25.6707 13.5933 25.5031 14.4362C25.3354 15.2792 24.9215 16.0535 24.3138 16.6612C23.7061 17.2689 22.9318 17.6828 22.0888 17.8505C21.2459 18.0181 20.3722 17.9321 19.5781 17.6032C18.7841 17.2743 18.1054 16.7173 17.6279 16.0027C17.1505 15.2881 16.8956 14.4479 16.8956 13.5885C16.8969 12.4364 17.3552 11.3319 18.1698 10.5172C18.9845 9.70255 20.089 9.2443 21.2411 9.24299Z" fill="#6F2ECF"/>
<path d="M21.7909 15.8332C21.7034 15.8332 21.6451 15.804 21.5867 15.7457L19.8367 13.9957C19.7492 13.9082 19.7201 13.7915 19.7784 13.6748C19.8076 13.5582 19.9242 13.4998 20.0409 13.4998H20.9159C21.1492 13.4998 21.3826 13.4123 21.5284 13.2373C21.7034 13.0915 21.7909 12.8582 21.7909 12.6248C21.7909 12.3915 21.7034 12.1582 21.5284 12.0123C21.3826 11.8373 21.1492 11.7498 20.9159 11.7498H20.0409C19.8659 11.7498 19.7492 11.6332 19.7492 11.4582C19.7492 11.2832 19.8659 11.1665 20.0409 11.1665H23.2492C23.4242 11.1665 23.5409 11.2832 23.5409 11.4582C23.5409 11.6332 23.4242 11.7498 23.2492 11.7498H22.0826C22.2576 12.0123 22.3742 12.304 22.3742 12.6248C22.3742 13.004 22.2284 13.3832 21.9367 13.6457C21.6742 13.9373 21.2951 14.0832 20.9159 14.0832H20.7409L21.9951 15.3373C22.1117 15.454 22.1117 15.629 21.9951 15.7457C21.9367 15.804 21.8784 15.8332 21.7909 15.8332Z" fill="#6F2ECF"/>
<path d="M23.25 12.9168H20.0417C19.8667 12.9168 19.75 12.8002 19.75 12.6252C19.75 12.4502 19.8667 12.3335 20.0417 12.3335H23.25C23.425 12.3335 23.5417 12.4502 23.5417 12.6252C23.5417 12.8002 23.425 12.9168 23.25 12.9168Z" fill="#6F2ECF"/>
</svg>
