<svg width="152" height="44" viewBox="0 0 152 44" fill="none" xmlns="http://www.w3.org/2000/svg">
<path d="M146.37 44H5.62963C2.53474 44 0 41.5286 0 38.5111V5.57779C0 2.56027 2.53474 0.0889006 5.62963 0.0889006H146.37C149.465 0.0889006 152 2.56027 152 5.57779V38.5111C152 41.5286 149.465 44 146.37 44Z" fill="white"/>
<path d="M146.37 0.968493C148.977 0.968493 151.098 3.03643 151.098 5.57779V38.5111C151.098 41.0525 148.977 43.1204 146.37 43.1204H5.62963C3.02311 43.1204 0.902148 41.0525 0.902148 38.5111V5.57779C0.902148 3.03643 3.02311 0.968493 5.62963 0.968493H146.37ZM146.37 0.0889006H5.62963C2.53474 0.0889006 0 2.56027 0 5.57779V38.5111C0 41.5286 2.53474 44 5.62963 44H146.37C149.465 44 152 41.5286 152 38.5111V5.57779C152 2.56027 149.465 0.0889006 146.37 0.0889006Z" fill="#A6A6A6"/>
<path d="M11.7487 8.36476C11.418 8.70233 11.2266 9.22789 11.2266 9.90851V34.1859C11.2266 34.8665 11.418 35.392 11.7487 35.7296L11.8303 35.8037L25.7834 22.205V21.8839L11.8303 8.28517L11.7487 8.36476Z" fill="url(#paint0_linear_5855_2719)"/>
<path d="M30.4291 26.7402L25.7832 22.205V21.8839L30.4347 17.3487L30.5388 17.4078L36.0474 20.4637C37.6195 21.3309 37.6195 22.758 36.0474 23.6308L30.5388 26.6812L30.4291 26.7402Z" fill="url(#paint1_linear_5855_2719)"/>
<path d="M30.5383 26.6815L25.7827 22.0448L11.748 35.73C12.2702 36.2651 13.1217 36.3296 14.09 35.7945L30.5383 26.6815Z" fill="url(#paint2_linear_5855_2719)"/>
<path d="M30.5383 17.4082L14.09 8.29526C13.1217 7.76558 12.2702 7.83008 11.748 8.36524L25.7827 22.0449L30.5383 17.4082Z" fill="url(#paint3_linear_5855_2719)"/>
<path d="M53.3893 11.3341C53.3893 12.2508 53.1078 12.9849 52.5533 13.5324C51.9157 14.1815 51.0854 14.5081 50.0678 14.5081C49.0953 14.5081 48.2649 14.176 47.5837 13.5214C46.9011 12.8573 46.5605 12.0422 46.5605 11.0665C46.5605 10.0909 46.9011 9.27578 47.5837 8.61712C48.2649 7.95708 49.0953 7.625 50.0678 7.625C50.552 7.625 51.0136 7.72243 51.4541 7.90356C51.8932 8.08607 52.2507 8.33307 52.5097 8.6377L51.9214 9.21678C51.4696 8.69671 50.8545 8.4401 50.0678 8.4401C49.3585 8.4401 48.7434 8.68161 48.2213 9.16875C47.7048 9.65726 47.4458 10.2899 47.4458 11.0665C47.4458 11.8432 47.7048 12.4813 48.2213 12.9698C48.7434 13.4514 49.3585 13.6985 50.0678 13.6985C50.8208 13.6985 51.4541 13.4515 51.9537 12.9643C52.2831 12.6418 52.4703 12.1972 52.5195 11.6291H50.0678V10.836H53.3386C53.378 11.0075 53.3893 11.1736 53.3893 11.3341Z" fill="black" stroke="black" stroke-width="0.16" stroke-miterlimit="10"/>
<path d="M58.5789 8.58363H55.5065V10.6694H58.2763V11.4625H55.5065V13.5483H58.5789V14.3566H54.6367V7.77539H58.5789V8.58363Z" fill="black" stroke="black" stroke-width="0.16" stroke-miterlimit="10"/>
<path d="M62.2406 14.3566H61.3708V8.58363H59.4863V7.77539H64.1265V8.58363H62.2406V14.3566Z" fill="black" stroke="black" stroke-width="0.16" stroke-miterlimit="10"/>
<path d="M67.4844 14.3566V7.77539H68.3527V14.3566H67.4844Z" fill="black" stroke="black" stroke-width="0.16" stroke-miterlimit="10"/>
<path d="M72.2016 14.3566H71.3388V8.58363H69.4473V7.77539H74.0931V8.58363H72.2016V14.3566Z" fill="black" stroke="black" stroke-width="0.16" stroke-miterlimit="10"/>
<path d="M82.8788 13.5105C82.2131 14.176 81.3884 14.5081 80.4046 14.5081C79.4152 14.5081 78.5904 14.176 77.9247 13.5105C77.2604 12.8463 76.9297 12.0312 76.9297 11.0665C76.9297 10.1019 77.2604 9.28676 77.9247 8.62261C78.5904 7.95708 79.4152 7.625 80.4046 7.625C81.3827 7.625 82.2075 7.95708 82.8732 8.62809C83.5431 9.29774 83.8738 10.1073 83.8738 11.0665C83.8738 12.0312 83.5431 12.8463 82.8788 13.5105ZM78.5679 12.9588C79.069 13.4515 79.6784 13.6985 80.4046 13.6985C81.1252 13.6985 81.7402 13.4515 82.2356 12.9588C82.7352 12.4662 82.9886 11.8336 82.9886 11.0665C82.9886 10.2995 82.7352 9.66687 82.2356 9.17424C81.7402 8.68161 81.1252 8.43461 80.4046 8.43461C79.6784 8.43461 79.069 8.68161 78.5679 9.17424C78.0683 9.66687 77.8149 10.2995 77.8149 11.0665C77.8149 11.8336 78.0683 12.4662 78.5679 12.9588Z" fill="black" stroke="black" stroke-width="0.16" stroke-miterlimit="10"/>
<path d="M85.0938 14.3566V7.77539H86.1493L89.4314 12.8938H89.4694L89.4314 11.6286V7.77539H90.2998V14.3566H89.3934L85.9565 8.98569H85.9185L85.9565 10.2564V14.3566H85.0938Z" fill="black" stroke="black" stroke-width="0.16" stroke-miterlimit="10"/>
<path d="M76.714 23.9679C74.0695 23.9679 71.9091 25.9302 71.9091 28.6376C71.9091 31.3231 74.0695 33.3059 76.714 33.3059C79.3641 33.3059 81.5245 31.3231 81.5245 28.6376C81.5245 25.9302 79.3641 23.9679 76.714 23.9679ZM76.714 31.4671C75.2629 31.4671 74.0146 30.2994 74.0146 28.6376C74.0146 26.9539 75.2629 25.8067 76.714 25.8067C78.165 25.8067 79.419 26.9539 79.419 28.6376C79.419 30.2994 78.165 31.4671 76.714 31.4671ZM66.2302 23.9679C63.5801 23.9679 61.4253 25.9302 61.4253 28.6376C61.4253 31.3231 63.5801 33.3059 66.2302 33.3059C68.8789 33.3059 71.0351 31.3231 71.0351 28.6376C71.0351 25.9302 68.8789 23.9679 66.2302 23.9679ZM66.2302 31.4671C64.7778 31.4671 63.5252 30.2994 63.5252 28.6376C63.5252 26.9539 64.7778 25.8067 66.2302 25.8067C67.6812 25.8067 68.9296 26.9539 68.9296 28.6376C68.9296 30.2994 67.6812 31.4671 66.2302 31.4671ZM53.755 25.3992V27.3834H58.6147C58.4726 28.4922 58.0926 29.3073 57.5099 29.8754C56.8006 30.5615 55.6958 31.323 53.755 31.323C50.7642 31.323 48.4223 28.9697 48.4223 26.0537C48.4223 23.1378 50.7642 20.7844 53.755 20.7844C55.3721 20.7844 56.5487 21.4005 57.417 22.1992L58.8512 20.8009C57.6366 19.6701 56.0209 18.8015 53.755 18.8015C49.6538 18.8015 46.207 22.0551 46.207 26.0537C46.207 30.0524 49.6538 33.3059 53.755 33.3059C55.9716 33.3059 57.6366 32.5978 58.9455 31.2695C60.2867 29.9618 60.7047 28.123 60.7047 26.6383C60.7047 26.1772 60.6653 25.7532 60.595 25.3992H53.755ZM104.768 26.9374C104.372 25.8932 103.152 23.9679 100.667 23.9679C98.2037 23.9679 96.1531 25.8602 96.1531 28.6376C96.1531 31.2531 98.1826 33.3059 100.903 33.3059C103.103 33.3059 104.372 31.9982 104.894 31.2366L103.262 30.1759C102.717 30.9526 101.976 31.4671 100.903 31.4671C99.8377 31.4671 99.0735 30.991 98.5837 30.0524L104.989 27.4685L104.768 26.9374ZM98.2375 28.4922C98.1826 26.6918 99.6716 25.7697 100.738 25.7697C101.574 25.7697 102.284 26.1772 102.52 26.7604L98.2375 28.4922ZM93.0315 33.0219H95.1369V19.2996H93.0315V33.0219ZM89.5833 25.0081H89.5129C89.04 24.4619 88.1379 23.9679 86.9951 23.9679C84.5969 23.9679 82.4041 26.0208 82.4041 28.6527C82.4041 31.2695 84.5969 33.3059 86.9951 33.3059C88.1379 33.3059 89.04 32.8078 89.5129 32.2452H89.5833V32.9148C89.5833 34.7001 88.6052 35.6593 87.0275 35.6593C85.7411 35.6593 84.9431 34.7536 84.6138 33.992L82.7827 34.7371C83.3105 35.9749 84.7081 37.498 87.0275 37.498C89.496 37.498 91.579 36.0819 91.579 32.6363V24.252H89.5833V25.0081ZM87.1752 31.4671C85.7242 31.4671 84.5096 30.2829 84.5096 28.6527C84.5096 27.0074 85.7242 25.8067 87.1752 25.8067C88.6052 25.8067 89.7325 27.0074 89.7325 28.6527C89.7325 30.2829 88.6052 31.4671 87.1752 31.4671ZM114.625 19.2996H109.59V33.0219H111.689V27.8225H114.625C116.957 27.8225 119.244 26.1772 119.244 23.5604C119.244 20.9449 116.952 19.2996 114.625 19.2996ZM114.68 25.9138H111.689V21.2084H114.68C116.248 21.2084 117.143 22.4777 117.143 23.5604C117.143 24.6225 116.248 25.9138 114.68 25.9138ZM127.661 23.9419C126.144 23.9419 124.566 24.595 123.917 26.0427L125.78 26.8043C126.182 26.0427 126.919 25.7957 127.699 25.7957C128.788 25.7957 129.893 26.4338 129.91 27.5604V27.7045C129.53 27.4904 128.716 27.1735 127.716 27.1735C125.709 27.1735 123.664 28.2506 123.664 30.261C123.664 32.0997 125.308 33.284 127.155 33.284C128.568 33.284 129.348 32.6623 129.838 31.9392H129.91V32.9999H131.938V27.7361C131.938 25.3031 130.074 23.9419 127.661 23.9419ZM127.407 31.4616C126.721 31.4616 125.764 31.1296 125.764 30.2994C125.764 29.2373 126.957 28.8297 127.99 28.8297C128.915 28.8297 129.348 29.0287 129.91 29.2908C129.745 30.5615 128.623 31.4616 127.407 31.4616ZM139.327 24.2424L136.913 30.191H136.841L134.346 24.2424H132.081L135.831 32.5553L133.691 37.1811H135.886L141.663 24.2424H139.327ZM120.398 33.0219H122.504V19.2996H120.398V33.0219Z" fill="black"/>
<defs>
<linearGradient id="paint0_linear_5855_2719" x1="24.5445" y1="34.4387" x2="6.12707" y2="15.549" gradientUnits="userSpaceOnUse">
<stop stop-color="#00A0FF"/>
<stop offset="0.0066" stop-color="#00A1FF"/>
<stop offset="0.2601" stop-color="#00BEFF"/>
<stop offset="0.5122" stop-color="#00D2FF"/>
<stop offset="0.7604" stop-color="#00DFFF"/>
<stop offset="1" stop-color="#00E3FF"/>
</linearGradient>
<linearGradient id="paint1_linear_5855_2719" x1="38.0945" y1="22.043" x2="10.8506" y2="22.043" gradientUnits="userSpaceOnUse">
<stop stop-color="#FFE000"/>
<stop offset="0.4087" stop-color="#FFBD00"/>
<stop offset="0.7754" stop-color="#FFA500"/>
<stop offset="1" stop-color="#FF9C00"/>
</linearGradient>
<linearGradient id="paint2_linear_5855_2719" x1="27.9524" y1="19.5242" x2="2.97683" y2="-6.09175" gradientUnits="userSpaceOnUse">
<stop stop-color="#FF3A44"/>
<stop offset="1" stop-color="#C31162"/>
</linearGradient>
<linearGradient id="paint3_linear_5855_2719" x1="8.21523" y1="43.807" x2="19.3679" y2="32.3685" gradientUnits="userSpaceOnUse">
<stop stop-color="#32A071"/>
<stop offset="0.0685" stop-color="#2DA771"/>
<stop offset="0.4762" stop-color="#15CF74"/>
<stop offset="0.8009" stop-color="#06E775"/>
<stop offset="1" stop-color="#00F076"/>
</linearGradient>
</defs>
</svg>
