<svg width="24" height="24" viewBox="0 0 24 24" fill="none" xmlns="http://www.w3.org/2000/svg">
<path d="M1.35379 12.2406L6.36704 14.7474C6.56094 14.8434 6.78986 14.8365 6.97522 14.7277L11.4375 12.1249L8.73656 14.5263C8.59904 14.6488 8.52045 14.8237 8.52045 15.0079V20.8571C8.52045 21.4742 9.30546 21.7339 9.67361 21.2436L11.8407 18.3529L17.1999 21.415C17.5757 21.6319 18.0575 21.4142 18.1446 20.9831L21.4871 4.27109C21.587 3.76887 21.089 3.35922 20.626 3.54605L1.40675 11.0665C0.890819 11.2687 0.857505 11.9929 1.35379 12.2406ZM20.0008 5.17097L17.0632 19.8578L11.9851 16.9559C11.7083 16.7974 11.3521 16.8677 11.1556 17.1282L9.80174 18.934V15.2967L17.1059 8.8039C17.6842 8.29054 17.0197 7.37781 16.3594 7.7669L6.63013 13.4421L3.2202 11.7375L20.0008 5.17097Z" fill="white"/>
</svg>
