<svg width="40" height="40" viewBox="0 0 40 40" fill="none" xmlns="http://www.w3.org/2000/svg">
<rect width="40" height="40" rx="20" fill="#FFF5EF"/>
<path d="M20.0007 31.6668C26.4173 31.6668 31.6673 26.4168 31.6673 20.0002C31.6673 13.5835 26.4173 8.3335 20.0007 8.3335C13.584 8.3335 8.33398 13.5835 8.33398 20.0002C8.33398 26.4168 13.584 31.6668 20.0007 31.6668Z" stroke="#E16428" stroke-width="1.5" stroke-linecap="round" stroke-linejoin="round"/>
<path d="M21.072 26.1078C20.8262 26.1078 20.6623 26.0258 20.4985 25.862L15.5831 20.9466C15.3373 20.7008 15.2554 20.3731 15.4192 20.0454C15.5012 19.7177 15.8288 19.5539 16.1565 19.5539H18.6142C19.2696 19.5539 19.925 19.3081 20.3346 18.8166C20.8262 18.407 21.072 17.7516 21.072 17.0962C21.072 16.4408 20.8262 15.7854 20.3346 15.3758C19.925 14.8842 19.2696 14.6385 18.6142 14.6385H16.1565C15.665 14.6385 15.3373 14.3108 15.3373 13.8192C15.3373 13.3277 15.665 13 16.1565 13H25.1681C25.6597 13 25.9874 13.3277 25.9874 13.8192C25.9874 14.3108 25.6597 14.6385 25.1681 14.6385H21.8912C22.3827 15.3758 22.7104 16.195 22.7104 17.0962C22.7104 18.1612 22.3008 19.2262 21.4816 19.9635C20.7443 20.7827 19.6793 21.1924 18.6142 21.1924H18.1227L21.6454 24.7151C21.9731 25.0428 21.9731 25.5343 21.6454 25.862C21.4816 26.0258 21.3177 26.1078 21.072 26.1078Z" fill="#E16428"/>
<path d="M25.1687 17.9153H16.1571C15.6656 17.9153 15.3379 17.5876 15.3379 17.0961C15.3379 16.6045 15.6656 16.2769 16.1571 16.2769H25.1687C25.6603 16.2769 25.988 16.6045 25.988 17.0961C25.988 17.5876 25.6603 17.9153 25.1687 17.9153Z" fill="#E16428"/>
<path d="M12 12L28 28" stroke="#E16428" stroke-width="1.5" stroke-linecap="round"/>
</svg>
