<svg width="48" height="48" viewBox="0 0 48 48" fill="none" xmlns="http://www.w3.org/2000/svg">
<rect width="48" height="48" rx="8" fill="#FFF6C4"/>
<g clip-path="url(#clip0_4592_273788)">
<path d="M38.6201 21.7081H9.38165C9.26696 21.7081 9.15697 21.6625 9.07588 21.5815C8.99478 21.5004 8.94922 21.3904 8.94922 21.2757V18.1215C8.94922 18.0471 8.96844 17.9739 9.00504 17.909C9.04163 17.8442 9.09435 17.7898 9.15808 17.7514L23.7743 8.92714C23.8417 8.88648 23.9189 8.86499 23.9977 8.86499C24.0764 8.86499 24.1536 8.88648 24.221 8.92714L38.8433 17.7514C38.907 17.7898 38.9597 17.8442 38.9963 17.909C39.0329 17.9739 39.0521 18.0471 39.0521 18.1215V21.2757C39.0521 21.3903 39.0066 21.5002 38.9256 21.5813C38.8446 21.6624 38.7348 21.708 38.6201 21.7081ZM9.81452 20.8432H38.1877V18.3654L23.9983 9.80238L9.81452 18.3645V20.8432Z" fill="#F8BB34"/>
<path d="M24.0004 18.5137C23.4889 18.5137 22.9889 18.362 22.5635 18.0778C22.1382 17.7936 21.8067 17.3897 21.6109 16.9171C21.4152 16.4445 21.364 15.9245 21.4638 15.4227C21.5636 14.921 21.8099 14.4602 22.1716 14.0985C22.5333 13.7368 22.9942 13.4904 23.4959 13.3906C23.9976 13.2908 24.5176 13.3421 24.9902 13.5378C25.4628 13.7336 25.8667 14.0651 26.1509 14.4904C26.4351 14.9157 26.5868 15.4158 26.5868 15.9273C26.586 16.613 26.3133 17.2704 25.8284 17.7553C25.3435 18.2401 24.6861 18.5129 24.0004 18.5137ZM24.0004 14.2054C23.66 14.2054 23.3271 14.3063 23.044 14.4955C22.7609 14.6847 22.5403 14.9535 22.41 15.2681C22.2797 15.5827 22.2456 15.9288 22.312 16.2627C22.3784 16.5967 22.5424 16.9034 22.7831 17.1442C23.0239 17.3849 23.3307 17.5489 23.6646 17.6153C23.9985 17.6817 24.3447 17.6477 24.6592 17.5174C24.9738 17.3871 25.2427 17.1664 25.4318 16.8833C25.621 16.6002 25.722 16.2674 25.722 15.9269C25.7214 15.4705 25.5398 15.033 25.2171 14.7102C24.8944 14.3875 24.4568 14.2059 24.0004 14.2054ZM36.0964 24.4398H31.4949C31.2472 24.4394 31.0098 24.3408 30.8347 24.1656C30.6596 23.9905 30.5611 23.753 30.5609 23.5053V21.2756C30.5609 21.161 30.6064 21.051 30.6875 20.9699C30.7686 20.8888 30.8786 20.8432 30.9933 20.8432H36.5981C36.7128 20.8432 36.8227 20.8888 36.9038 20.9699C36.9849 21.051 37.0305 21.161 37.0305 21.2756V23.5066C37.0299 23.754 36.9313 23.9912 36.7562 24.1661C36.5812 24.341 36.3439 24.4394 36.0964 24.4398ZM31.4262 21.7068V23.5053C31.4262 23.5237 31.4334 23.5413 31.4464 23.5543C31.4594 23.5674 31.477 23.5748 31.4954 23.5749H36.0964C36.1148 23.5748 36.1324 23.5674 36.1454 23.5543C36.1584 23.5413 36.1656 23.5237 36.1656 23.5053V21.7081L31.4262 21.7068Z" fill="#F8BB34"/>
<path d="M35.7042 33.1745H31.8875C31.7728 33.1745 31.6628 33.1289 31.5817 33.0478C31.5006 32.9667 31.4551 32.8567 31.4551 32.742V24.0069C31.4551 23.8922 31.5006 23.7822 31.5817 23.7011C31.6628 23.62 31.7728 23.5745 31.8875 23.5745H35.7042C35.8188 23.5745 35.9288 23.62 36.0099 23.7011C36.091 23.7822 36.1366 23.8922 36.1366 24.0069V32.742C36.1366 32.8567 36.091 32.9667 36.0099 33.0478C35.9288 33.1289 35.8188 33.1745 35.7042 33.1745ZM32.3199 32.3096H35.2717V24.4393H32.3199V32.3096Z" fill="#F8BB34"/>
<path d="M36.5978 35.9075H30.9931C30.8784 35.9075 30.7684 35.8619 30.6873 35.7808C30.6062 35.6997 30.5607 35.5897 30.5607 35.475V33.2441C30.5609 32.9964 30.6593 32.7589 30.8345 32.5838C31.0096 32.4086 31.247 32.31 31.4947 32.3096H36.0962C36.3439 32.31 36.5814 32.4086 36.7565 32.5838C36.9316 32.7589 37.03 32.9964 37.0303 33.2441V35.475C37.0303 35.5897 36.9847 35.6997 36.9036 35.7808C36.8225 35.8619 36.7125 35.9075 36.5978 35.9075ZM31.4255 35.0426H36.1654V33.2441C36.1654 33.2257 36.1581 33.2081 36.1452 33.195C36.1322 33.182 36.1146 33.1746 36.0962 33.1745H31.4947C31.4763 33.1746 31.4587 33.182 31.4458 33.195C31.4328 33.2081 31.4255 33.2257 31.4255 33.2441V35.0426ZM26.3008 24.4398H21.6997C21.452 24.4395 21.2145 24.3409 21.0394 24.1657C20.8643 23.9905 20.7659 23.753 20.7656 23.5053V21.2757C20.7656 21.161 20.8112 21.051 20.8923 20.9699C20.9734 20.8888 21.0834 20.8433 21.1981 20.8433H26.8024C26.9171 20.8433 27.0271 20.8888 27.1082 20.9699C27.1893 21.051 27.2348 21.161 27.2348 21.2757V23.5066C27.2342 23.7541 27.1356 23.9912 26.9606 24.1662C26.7855 24.3411 26.5482 24.4395 26.3008 24.4398ZM21.6305 21.7081V23.5066C21.6305 23.525 21.6378 23.5426 21.6507 23.5557C21.6637 23.5687 21.6813 23.5761 21.6997 23.5762H26.3008C26.3191 23.5761 26.3367 23.5687 26.3497 23.5557C26.3627 23.5426 26.3699 23.525 26.3699 23.5066V21.7081H21.6305Z" fill="#F8BB34"/>
<path d="M25.9039 33.1745H22.0984C21.9838 33.1745 21.8738 33.1289 21.7927 33.0478C21.7116 32.9667 21.666 32.8567 21.666 32.742V24.0069C21.666 23.8922 21.7116 23.7822 21.7927 23.7011C21.8738 23.62 21.9838 23.5745 22.0984 23.5745H25.9039C26.0185 23.5745 26.1285 23.62 26.2096 23.7011C26.2907 23.7822 26.3363 23.8922 26.3363 24.0069V32.742C26.3363 32.8567 26.2907 32.9667 26.2096 33.0478C26.1285 33.1289 26.0185 33.1745 25.9039 33.1745ZM22.5309 32.3096H25.4714V24.4393H22.5309V32.3096Z" fill="#F8BB34"/>
<path d="M26.8021 35.9075H21.1978C21.0831 35.9075 20.9731 35.8619 20.892 35.7808C20.8109 35.6997 20.7654 35.5897 20.7654 35.475V33.2441C20.7656 32.9964 20.8641 32.7589 21.0392 32.5838C21.2143 32.4086 21.4517 32.31 21.6994 32.3096H26.3005C26.5482 32.31 26.7856 32.4086 26.9608 32.5838C27.1359 32.7589 27.2343 32.9964 27.2346 33.2441V35.475C27.2346 35.5897 27.189 35.6997 27.1079 35.7808C27.0268 35.8619 26.9168 35.9075 26.8021 35.9075ZM21.6298 35.0426H26.3697V33.2441C26.3697 33.2257 26.3624 33.2081 26.3495 33.195C26.3365 33.182 26.3189 33.1746 26.3005 33.1745H21.6994C21.681 33.1746 21.6634 33.182 21.6505 33.195C21.6375 33.2081 21.6302 33.2257 21.6302 33.2441L21.6298 35.0426ZM16.9379 24.4398H12.3364C12.0887 24.4395 11.8513 24.3409 11.6761 24.1657C11.501 23.9905 11.4026 23.753 11.4023 23.5053V21.2757C11.4023 21.161 11.4479 21.051 11.529 20.9699C11.6101 20.8888 11.7201 20.8433 11.8348 20.8433H17.4395C17.5542 20.8433 17.6642 20.8888 17.7453 20.9699C17.8264 21.051 17.872 21.161 17.872 21.2757V23.5066C17.8714 23.7541 17.7728 23.9912 17.5977 24.1662C17.4226 24.3411 17.1854 24.4395 16.9379 24.4398ZM12.2672 21.7081V23.5066C12.2672 23.525 12.2745 23.5426 12.2874 23.5557C12.3004 23.5687 12.318 23.5761 12.3364 23.5762H16.9379C16.9563 23.5761 16.9739 23.5687 16.9869 23.5557C16.9998 23.5426 17.0071 23.525 17.0071 23.5066V21.7081H12.2672Z" fill="#F8BB34"/>
<path d="M16.5623 33.1745H12.7137C12.599 33.1745 12.489 33.1289 12.4079 33.0478C12.3268 32.9667 12.2812 32.8567 12.2812 32.742V24.0069C12.2812 23.8922 12.3268 23.7822 12.4079 23.7011C12.489 23.62 12.599 23.5745 12.7137 23.5745H16.5623C16.677 23.5745 16.787 23.62 16.8681 23.7011C16.9492 23.7822 16.9948 23.8922 16.9948 24.0069V32.742C16.9948 32.8567 16.9492 32.9667 16.8681 33.0478C16.787 33.1289 16.677 33.1745 16.5623 33.1745ZM13.1461 32.3096H16.1299V24.4393H13.1461V32.3096Z" fill="#F8BB34"/>
<path d="M17.4395 35.9074H11.8348C11.7201 35.9074 11.6101 35.8618 11.529 35.7808C11.4479 35.6997 11.4023 35.5897 11.4023 35.475V33.2441C11.4026 32.9964 11.501 32.7589 11.6761 32.5837C11.8513 32.4085 12.0887 32.3099 12.3364 32.3096H16.9379C17.1856 32.3099 17.4231 32.4085 17.5982 32.5837C17.7733 32.7589 17.8717 32.9964 17.872 33.2441V35.475C17.872 35.5897 17.8264 35.6997 17.7453 35.7808C17.6642 35.8618 17.5542 35.9074 17.4395 35.9074ZM12.2672 35.0425H17.0071V33.2441C17.0071 33.2257 16.9998 33.208 16.9869 33.195C16.9739 33.1819 16.9563 33.1745 16.9379 33.1744H12.3364C12.318 33.1745 12.3004 33.1819 12.2874 33.195C12.2745 33.208 12.2672 33.2257 12.2672 33.2441V35.0425Z" fill="#F8BB34"/>
<path d="M38.7031 39.1351H9.29767C9.18298 39.1351 9.07299 39.0896 8.99189 39.0085C8.91079 38.9274 8.86523 38.8174 8.86523 38.7027V35.475C8.86523 35.3603 8.91079 35.2504 8.99189 35.1693C9.07299 35.0882 9.18298 35.0426 9.29767 35.0426H38.7031C38.8178 35.0426 38.9278 35.0882 39.0089 35.1693C39.0899 35.2504 39.1355 35.3603 39.1355 35.475V38.7027C39.1355 38.8174 39.0899 38.9274 39.0089 39.0085C38.9278 39.0896 38.8178 39.1351 38.7031 39.1351ZM9.7301 38.2703H38.2706V35.9075H9.7301V38.2703Z" fill="#F8BB34"/>
</g>
<defs>
<clipPath id="clip0_4592_273788">
<rect width="32" height="32" fill="white" transform="translate(8 8)"/>
</clipPath>
</defs>
</svg>
