<svg width="48" height="48" viewBox="0 0 48 48" fill="none" xmlns="http://www.w3.org/2000/svg">
<rect width="48" height="48" rx="8" fill="#D4F3FF"/>
<g clip-path="url(#clip0_4592_273809)">
<path d="M39.5 35H38.723C38.9031 34.6974 38.999 34.3521 39.001 34V25C39.0003 24.4698 38.7894 23.9614 38.4145 23.5865C38.0396 23.2116 37.5312 23.0007 37.001 23H25.501C25.2375 22.9999 24.9766 23.0523 24.7335 23.154C24.3298 23.056 23.9163 23.0043 23.501 23H21.751V22.616C22.264 22.2508 22.6992 21.7873 23.0314 21.2523C23.3636 20.7174 23.5861 20.1217 23.686 19.5H23.751C24.2812 19.4993 24.7896 19.2884 25.1645 18.9135C25.5394 18.5386 25.7503 18.0302 25.751 17.5V15.25C25.751 13.4598 25.0398 11.7429 23.774 10.477C22.5081 9.21116 20.7912 8.5 19.001 8.5C17.2108 8.5 15.4939 9.21116 14.228 10.477C12.9622 11.7429 12.251 13.4598 12.251 15.25V17.5C12.2517 18.0302 12.4626 18.5386 12.8375 18.9135C13.2124 19.2884 13.7208 19.4993 14.251 19.5H14.316C14.4159 20.1216 14.6385 20.7172 14.9707 21.2521C15.3028 21.7869 15.7381 22.2504 16.251 22.6155V23H14.501C13.0428 23.0016 11.6448 23.5816 10.6137 24.6127C9.58256 25.6438 9.00259 27.0418 9.001 28.5V33.5C9.00295 34.0427 9.1832 34.5698 9.514 35H8.5C8.36739 35 8.24021 35.0527 8.14645 35.1464C8.05268 35.2402 8 35.3674 8 35.5V39C8 39.1326 8.05268 39.2598 8.14645 39.3536C8.24021 39.4473 8.36739 39.5 8.5 39.5H39.5C39.6326 39.5 39.7598 39.4473 39.8536 39.3536C39.9473 39.2598 40 39.1326 40 39V35.5C40 35.3674 39.9473 35.2402 39.8536 35.1464C39.7598 35.0527 39.6326 35 39.5 35ZM37.001 24C37.2661 24.0003 37.5203 24.1057 37.7078 24.2932C37.8953 24.4807 38.0007 24.7349 38.001 25V34C38.0007 34.2651 37.8953 34.5193 37.7078 34.7068C37.5203 34.8943 37.2661 34.9997 37.001 35H24.501V25C24.5013 24.7349 24.6067 24.4807 24.7942 24.2932C24.9817 24.1057 25.2359 24.0003 25.501 24H37.001ZM21.9665 35C21.9002 34.471 21.7279 33.9609 21.46 33.5H23.501V35H21.9665ZM18.5015 32.545C19.1149 32.6494 19.6807 32.9417 20.1209 33.3814C20.5611 33.8212 20.8539 34.3867 20.959 35H18.5005L18.5015 32.545ZM23.751 18.5V16.5C24.0162 16.5 24.2706 16.6054 24.4581 16.7929C24.6456 16.9804 24.751 17.2348 24.751 17.5C24.751 17.7652 24.6456 18.0196 24.4581 18.2071C24.2706 18.3946 24.0162 18.5 23.751 18.5ZM19.001 9.5C20.5255 9.50172 21.987 10.1081 23.065 11.186C24.1429 12.264 24.7493 13.7255 24.751 15.25V15.778C24.4484 15.5979 24.1031 15.5019 23.751 15.5H23.496L21.7145 13.1945C21.6701 13.137 21.6137 13.0898 21.5493 13.0563C21.4848 13.0228 21.4138 13.0037 21.3412 13.0005C21.2687 12.9972 21.1963 13.0098 21.129 13.0373C21.0618 13.0649 21.0014 13.1067 20.952 13.16C20.2669 13.8969 19.4375 14.4849 18.5154 14.8875C17.5933 15.2901 16.5982 15.4986 15.592 15.5H14.251C13.8989 15.502 13.5536 15.5979 13.251 15.778V15.25C13.2527 13.7255 13.8591 12.264 14.937 11.186C16.015 10.1081 17.4765 9.50172 19.001 9.5ZM13.251 17.5C13.2513 17.2349 13.3567 16.9807 13.5442 16.7932C13.7317 16.6057 13.9859 16.5003 14.251 16.5V18.5C13.9859 18.4997 13.7317 18.3943 13.5442 18.2068C13.3567 18.0193 13.2513 17.7651 13.251 17.5ZM15.251 18.75V16.5H15.591C17.6999 16.497 19.7295 15.6952 21.271 14.256L22.751 16.171V18.75C22.751 19.7446 22.3559 20.6984 21.6527 21.4017C20.9494 22.1049 19.9956 22.5 19.001 22.5C18.0064 22.5 17.0526 22.1049 16.3493 21.4017C15.6461 20.6984 15.251 19.7446 15.251 18.75ZM19.001 23.5C19.6005 23.4995 20.1944 23.3848 20.751 23.162V23.75C20.751 24.2141 20.5666 24.6592 20.2384 24.9874C19.9102 25.3156 19.4651 25.5 19.001 25.5C18.5369 25.5 18.0918 25.3156 17.7636 24.9874C17.4354 24.6592 17.251 24.2141 17.251 23.75V23.1615C17.8075 23.3845 18.4015 23.4994 19.001 23.5ZM10.001 33.5V28.5C10.0023 27.3069 10.4769 26.1631 11.3205 25.3195C12.1641 24.4759 13.3079 24.0013 14.501 24H16.2635C16.3249 24.6837 16.6398 25.3196 17.1464 25.7828C17.653 26.246 18.3146 26.5028 19.001 26.5028C19.6874 26.5028 20.349 26.246 20.8556 25.7828C21.3622 25.3196 21.6771 24.6837 21.7385 24H23.5005C23.589 24 23.6795 24.013 23.769 24.0185C23.5955 24.3167 23.5031 24.655 23.501 25V32.5H20.638C19.9106 31.8559 18.9726 31.5002 18.001 31.5H13.001C12.8684 31.5 12.7412 31.5527 12.6474 31.6464C12.5537 31.7402 12.501 31.8674 12.501 32C12.501 32.1326 12.5537 32.2598 12.6474 32.3536C12.7412 32.4473 12.8684 32.5 13.001 32.5H17.501V35H11.501C11.1033 34.9996 10.722 34.8414 10.4408 34.5602C10.1596 34.279 10.0014 33.8977 10.001 33.5ZM39 38.5H9V36H39V38.5Z" fill="#007CC2"/>
<path d="M31.252 32C31.7464 32 32.2298 31.8534 32.6409 31.5787C33.052 31.304 33.3724 30.9135 33.5617 30.4567C33.7509 29.9999 33.8004 29.4972 33.7039 29.0123C33.6075 28.5273 33.3694 28.0819 33.0197 27.7322C32.6701 27.3826 32.2246 27.1445 31.7397 27.048C31.2547 26.9516 30.7521 27.0011 30.2952 27.1903C29.8384 27.3795 29.448 27.7 29.1733 28.1111C28.8986 28.5222 28.752 29.0055 28.752 29.5C28.7527 30.1628 29.0164 30.7982 29.4851 31.2669C29.9537 31.7356 30.5892 31.9992 31.252 32ZM31.252 28C31.5486 28 31.8386 28.088 32.0853 28.2528C32.332 28.4176 32.5242 28.6519 32.6378 28.926C32.7513 29.2001 32.781 29.5017 32.7231 29.7926C32.6653 30.0836 32.5224 30.3509 32.3126 30.5607C32.1028 30.7704 31.8356 30.9133 31.5446 30.9712C31.2536 31.0291 30.952 30.9994 30.6779 30.8858C30.4038 30.7723 30.1696 30.58 30.0047 30.3334C29.8399 30.0867 29.752 29.7967 29.752 29.5C29.7524 29.1023 29.9105 28.721 30.1917 28.4398C30.473 28.1586 30.8543 28.0004 31.252 28Z" fill="#007CC2"/>
</g>
<defs>
<clipPath id="clip0_4592_273809">
<rect width="32" height="32" fill="white" transform="translate(8 8)"/>
</clipPath>
</defs>
</svg>
