<svg width="48" height="48" viewBox="0 0 48 48" fill="none" xmlns="http://www.w3.org/2000/svg">
<rect width="48" height="48" rx="8" fill="#E5FFFA"/>
<path d="M19.8745 23.5625C19.8745 23.463 19.835 23.3676 19.7647 23.2973C19.6944 23.227 19.599 23.1875 19.4995 23.1875H16.437C16.3376 23.1875 16.2422 23.227 16.1718 23.2973C16.1015 23.3676 16.062 23.463 16.062 23.5625V28.625C16.062 28.7244 16.1015 28.8198 16.1718 28.8901C16.2422 28.9605 16.3376 29 16.437 29H19.4995C19.599 29 19.6944 28.9605 19.7647 28.8901C19.835 28.8198 19.8745 28.7244 19.8745 28.625V23.5625ZM19.187 28.1875H16.812V23.9375H19.187V28.1875ZM13.562 19.9375C13.562 19.838 13.5225 19.7426 13.4522 19.6723C13.3819 19.602 13.2865 19.5625 13.187 19.5625H10.1245C10.0251 19.5625 9.92967 19.602 9.85935 19.6723C9.78902 19.7426 9.74951 19.838 9.74951 19.9375V28.5625C9.74951 28.6619 9.78902 28.7573 9.85935 28.8276C9.92967 28.898 10.0251 28.9375 10.1245 28.9375H13.187C13.2865 28.9375 13.3819 28.898 13.4522 28.8276C13.5225 28.7573 13.562 28.6619 13.562 28.5625V19.9375ZM12.8745 28.1875H10.4995V20.3125H12.8745V28.1875ZM22.8078 16.2644C23.1457 16.6197 23.5965 16.8468 24.0832 16.9069C24.5699 16.9671 25.0624 16.8565 25.4767 16.5941C25.891 16.3317 26.2014 15.9337 26.3551 15.468C26.5087 15.0023 26.4961 14.4977 26.3193 14.0403L28.7794 11.7855C29.0144 12.2482 29.411 12.6087 29.8941 12.7984C30.3772 12.9881 30.9131 12.9939 31.4002 12.8147C31.8873 12.6355 32.2916 12.2838 32.5366 11.8262C32.7815 11.3687 32.85 10.8372 32.729 10.3325C32.6081 9.82775 32.3061 9.385 31.8803 9.0882C31.4546 8.79139 30.9347 8.66117 30.4193 8.72225C29.9039 8.78332 29.4289 9.03143 29.0843 9.41952C28.7397 9.80761 28.5495 10.3087 28.5499 10.8277C28.5499 10.8767 28.5521 10.9252 28.5554 10.9735L25.9201 13.3889C25.5851 13.0142 25.1279 12.7708 24.63 12.7021C24.1322 12.6333 23.6262 12.7437 23.2022 13.0135C22.7782 13.2833 22.4639 13.695 22.3153 14.1751C22.1668 14.6552 22.1936 15.1725 22.3911 15.6346L19.851 17.7769C19.6751 17.4688 19.4246 17.2099 19.1225 17.0239C18.8205 16.8379 18.4765 16.7307 18.1223 16.7123C17.768 16.6938 17.4148 16.7646 17.0951 16.9182C16.7753 17.0717 16.4992 17.3032 16.2922 17.5912L13.7248 15.8037C13.8676 15.2929 13.814 14.7471 13.5747 14.2738C13.3355 13.8004 12.9278 13.4337 12.4318 13.2457C11.9358 13.0577 11.3874 13.0621 10.8945 13.258C10.4016 13.4538 9.9998 13.827 9.76809 14.3041C9.53639 14.7812 9.49156 15.3278 9.64243 15.8363C9.79329 16.3448 10.1289 16.7784 10.5833 17.052C11.0378 17.3256 11.5781 17.4192 12.0981 17.3146C12.618 17.2099 13.08 16.9145 13.3933 16.4865L15.9649 18.2772C15.8826 18.5808 15.8688 18.899 15.9246 19.2086C15.9804 19.5182 16.1043 19.8115 16.2875 20.0672C16.4707 20.323 16.7084 20.5348 16.9836 20.6873C17.2587 20.8398 17.5644 20.9292 17.8783 20.9489C18.1923 20.9687 18.5067 20.9184 18.7988 20.8016C19.0909 20.6848 19.3534 20.5045 19.5672 20.2737C19.781 20.043 19.9408 19.7675 20.035 19.4673C20.1291 19.1672 20.1553 18.8498 20.1117 18.5383L22.8078 16.2644ZM30.6703 9.45729C30.9413 9.45728 31.2063 9.53764 31.4316 9.68821C31.657 9.83878 31.8326 10.0528 31.9364 10.3032C32.0401 10.5536 32.0672 10.8291 32.0144 11.095C31.9615 11.3608 31.831 11.605 31.6393 11.7966C31.4477 11.9883 31.2035 12.1188 30.9377 12.1717C30.6719 12.2246 30.3963 12.1975 30.1459 12.0937C29.8955 11.99 29.6815 11.8144 29.5309 11.589C29.3803 11.3637 29.2999 11.0987 29.2999 10.8277C29.3004 10.4644 29.4449 10.1161 29.7017 9.85917C29.9586 9.60226 30.3069 9.45774 30.6702 9.45729H30.6703ZM24.341 13.4316C24.612 13.4316 24.8769 13.512 25.1023 13.6626C25.3276 13.8131 25.5033 14.0272 25.607 14.2776C25.7107 14.528 25.7379 14.8035 25.685 15.0693C25.6321 15.3352 25.5016 15.5793 25.31 15.771C25.1183 15.9626 24.8741 16.0931 24.6083 16.146C24.3425 16.1989 24.0669 16.1718 23.8165 16.068C23.5661 15.9643 23.3521 15.7887 23.2015 15.5633C23.0509 15.338 22.9706 15.073 22.9706 14.802C22.971 14.4387 23.1155 14.0903 23.3724 13.8334C23.6293 13.5765 23.9776 13.432 24.341 13.4316ZM11.6824 16.6062C11.4114 16.6062 11.1464 16.5259 10.921 16.3753C10.6957 16.2247 10.52 16.0107 10.4163 15.7603C10.3126 15.5099 10.2855 15.2343 10.3383 14.9685C10.3912 14.7027 10.5218 14.4585 10.7134 14.2668C10.9051 14.0752 11.1492 13.9447 11.4151 13.8918C11.6809 13.8389 11.9564 13.8661 12.2069 13.9698C12.4573 14.0735 12.6713 14.2492 12.8218 14.4746C12.9724 14.6999 13.0528 14.9649 13.0528 15.2359C13.0523 15.5992 12.9078 15.9475 12.6509 16.2044C12.394 16.4613 12.0457 16.6058 11.6824 16.6062ZM18.0116 20.2C17.7406 20.2 17.4757 20.1196 17.2503 19.969C17.0249 19.8185 16.8493 19.6044 16.7456 19.354C16.6419 19.1036 16.6147 18.8281 16.6676 18.5623C16.7205 18.2964 16.851 18.0523 17.0426 17.8606C17.2343 17.669 17.4785 17.5384 17.7443 17.4856C18.0101 17.4327 18.2857 17.4598 18.5361 17.5635C18.7865 17.6673 19.0005 17.8429 19.1511 18.0683C19.3016 18.2936 19.382 18.5586 19.382 18.8296C19.3816 19.1929 19.2371 19.5413 18.9802 19.7982C18.7233 20.0551 18.375 20.1996 18.0116 20.2ZM30.7321 25.3807C29.5045 25.3807 28.3044 25.7447 27.2837 26.4268C26.2629 27.1088 25.4674 28.0782 24.9976 29.2123C24.5278 30.3465 24.4048 31.5945 24.6443 32.7985C24.8838 34.0026 25.475 35.1086 26.343 35.9766C27.2111 36.8447 28.317 37.4358 29.5211 37.6753C30.7251 37.9148 31.9731 37.7919 33.1073 37.3221C34.2415 36.8524 35.2109 36.0568 35.8929 35.0361C36.5749 34.0153 36.9389 32.8153 36.9389 31.5877C36.9371 29.9421 36.2825 28.3644 35.1189 27.2008C33.9553 26.0372 32.3777 25.3826 30.7321 25.3807ZM30.7321 37.0446C29.6528 37.0446 28.5977 36.7246 27.7003 36.125C26.8029 35.5254 26.1035 34.6731 25.6905 33.676C25.2774 32.6789 25.1694 31.5817 25.3799 30.5231C25.5905 29.4646 26.1102 28.4922 26.8734 27.7291C27.6365 26.9659 28.6088 26.4461 29.6674 26.2356C30.7259 26.025 31.8231 26.1331 32.8203 26.5461C33.8174 26.9591 34.6697 27.6586 35.2693 28.5559C35.8689 29.4533 36.1889 30.5084 36.1889 31.5877C36.1873 33.0344 35.6119 34.4215 34.5889 35.4445C33.5659 36.4675 32.1788 37.0429 30.7321 37.0446Z" fill="#00A271"/>
<path d="M32.5626 24.1099V15.5089C32.5626 15.3017 32.4234 15.125 32.2164 15.125H29.1251C29.0248 15.127 28.9292 15.1684 28.8591 15.2402C28.789 15.312 28.7498 15.4085 28.7501 15.5089V24.1421C27.8542 24.3815 27.0078 24.7777 26.2501 25.3125V19.4674C26.2501 19.2603 26.0942 19.0625 25.8871 19.0625H22.796C22.5889 19.0625 22.4376 19.2603 22.4376 19.4674V28.5924C22.4364 28.6392 22.4449 28.6858 22.4627 28.7291C22.4804 28.7724 22.507 28.8115 22.5407 28.844C22.5744 28.8765 22.6146 28.9015 22.6585 28.9176C22.7025 28.9337 22.7493 28.9405 22.796 28.9375H23.4851C23.1839 29.7836 23.0292 30.6748 23.0276 31.5729C23.0276 35.8214 26.4839 39.2854 30.7327 39.2854C34.9815 39.2854 38.4232 35.8326 38.4232 31.584C38.422 29.8625 37.8441 28.191 36.7819 26.8363C35.7196 25.4815 34.2342 24.5217 32.5626 24.1099ZM29.5001 15.875H31.8126V23.9625C31.4504 23.9074 31.0845 23.8807 30.7182 23.8824C30.3101 23.8813 29.9026 23.9145 29.5001 23.9817V15.875ZM23.1876 19.8125H25.5001V25.9214C24.8132 26.578 24.2397 27.3437 23.8027 28.1875H23.1876V19.8125ZM30.7327 38.5427C29.3571 38.5427 28.0124 38.1348 26.8687 37.3706C25.7249 36.6064 24.8335 35.5202 24.3071 34.2493C23.7806 32.9785 23.6429 31.5801 23.9112 30.2309C24.1796 28.8818 24.8419 27.6425 25.8146 26.6698C26.7873 25.6972 28.0265 25.0347 29.3756 24.7664C30.7248 24.498 32.1232 24.6357 33.394 25.162C34.6649 25.6884 35.7511 26.5798 36.5154 27.7236C37.2796 28.8673 37.6876 30.2119 37.6876 31.5875C37.6856 33.4315 36.9522 35.1993 35.6483 36.5032C34.3445 37.8071 32.5766 38.5406 30.7327 38.5427Z" fill="#00A271"/>
<path d="M32.9204 29.25C33.0198 29.25 33.1152 29.2105 33.1855 29.1402C33.2559 29.0698 33.2954 28.9745 33.2954 28.875C33.2954 28.7755 33.2559 28.6802 33.1855 28.6098C33.1152 28.5395 33.0198 28.5 32.9204 28.5H28.5454C28.4459 28.5 28.3505 28.5395 28.2802 28.6098C28.2099 28.6802 28.1704 28.7755 28.1704 28.875C28.1704 28.9745 28.2099 29.0698 28.2802 29.1402C28.3505 29.2105 28.4459 29.25 28.5454 29.25H29.7972C30.4961 29.25 31.0847 29.6875 31.2519 30.375H28.5454C28.4459 30.375 28.3505 30.4145 28.2802 30.4848C28.2099 30.5552 28.1704 30.6505 28.1704 30.75C28.1704 30.8495 28.2099 30.9448 28.2802 31.0152C28.3505 31.0855 28.4459 31.125 28.5454 31.125H31.2519C31.1644 31.445 30.9751 31.7278 30.7127 31.9307C30.4503 32.1337 30.129 32.2457 29.7972 32.25H28.5454C28.4708 32.2484 28.3975 32.2696 28.3352 32.3107C28.273 32.3517 28.2246 32.4107 28.1967 32.4799C28.1688 32.5491 28.1625 32.6251 28.1788 32.6979C28.1951 32.7707 28.2331 32.8368 28.2878 32.8875L31.4167 35.8426C31.4893 35.9105 31.5858 35.947 31.6852 35.9439C31.7846 35.9409 31.8787 35.8986 31.9469 35.8263C31.9807 35.7911 32.0071 35.7496 32.0247 35.7041C32.0422 35.6586 32.0505 35.6101 32.0491 35.5614C32.0477 35.5126 32.0367 35.4647 32.0165 35.4203C31.9964 35.3759 31.9676 35.3359 31.9319 35.3027L29.4882 33H29.7972C30.329 32.9995 30.8435 32.811 31.2497 32.4679C31.656 32.1248 31.9279 31.6492 32.0175 31.125H32.9204C33.0198 31.125 33.1152 31.0855 33.1855 31.0152C33.2559 30.9448 33.2954 30.8495 33.2954 30.75C33.2954 30.6505 33.2559 30.5552 33.1855 30.4848C33.1152 30.4145 33.0198 30.375 32.9204 30.375H32.0175C31.9481 29.9555 31.7593 29.565 31.4737 29.25H32.9204Z" fill="#00A271"/>
</svg>
