<svg width="48" height="48" viewBox="0 0 48 48" fill="none" xmlns="http://www.w3.org/2000/svg">
<rect width="48" height="48" rx="8" fill="#E5FFFA"/>
<g clip-path="url(#clip0_4592_273816)">
<path d="M36.6572 29.2607L34.5713 28.7623V28.0296C35.7234 27.349 36.4984 26.0949 36.4984 24.6625V21.8971C36.4984 19.7419 34.7449 17.9885 32.5898 17.9885H32.1575C31.0068 17.9885 29.9709 18.4886 29.2551 19.2825C28.5618 17.0384 26.4679 15.4033 23.9991 15.4033C21.5304 15.4033 19.4365 17.0383 18.7432 19.2825C18.0273 18.4886 16.9914 17.9885 15.8408 17.9885H15.4085C13.2533 17.9885 11.4998 19.7419 11.4998 21.8971V24.6625C11.4998 26.0948 12.2748 27.349 13.4269 28.0296V28.7623L11.341 29.2607C9.37388 29.7307 8 31.4714 8 33.4938V35.3752C8 35.7203 8.27987 36.0001 8.62494 36.0001H13.6726C13.6406 36.2493 13.6246 36.5002 13.6246 36.7514V38.75H9.87487C9.52975 38.75 9.24994 39.0299 9.24994 39.3749C9.24994 39.7201 9.52981 39.9999 9.87487 39.9999H38.1232C38.4684 39.9999 38.7482 39.72 38.7482 39.3749C38.7482 39.0298 38.4683 38.75 38.1232 38.75H34.3735V36.7544C34.3735 36.4992 34.3571 36.2474 34.3252 36.0002H39.3732C39.7183 36.0002 39.9981 35.7203 39.9981 35.3752V33.4939C39.9982 31.4714 38.6242 29.7306 36.6572 29.2607ZM29.4989 21.8971C29.4988 20.4311 30.6915 19.2384 32.1576 19.2384H32.5898C34.0559 19.2384 35.2486 20.4311 35.2486 21.8971V22.0573C34.348 22.0471 33.4692 21.7793 32.7159 21.2858C32.6142 21.2191 32.4953 21.1837 32.3737 21.1837C32.2522 21.1837 32.1333 21.2191 32.0316 21.2858C31.2783 21.7794 30.3995 22.0471 29.4989 22.0573V21.8971H29.4989ZM29.4988 24.1528V23.3074C30.5107 23.2976 31.4958 23.0341 32.3736 22.5397C33.2514 23.0342 34.2366 23.2976 35.2484 23.3074V24.6626C35.2484 26.1286 34.0557 27.3213 32.5897 27.3213H32.1574C30.6914 27.3213 29.4987 26.1286 29.4987 24.6626V24.1528H29.4988ZM30.6974 31.3463C30.4406 31.2448 30.1769 31.1616 29.9084 31.0971L27.9221 30.6226C28.0701 30.5616 28.2227 30.5122 28.3783 30.4748L30.3525 30.0016L30.6974 31.3463ZM30.1801 28.0321V28.7577L28.087 29.2593C27.6374 29.3669 27.2079 29.5456 26.8146 29.7887V28.8753C27.6734 28.361 28.3768 27.6237 28.8501 26.7417C29.1845 27.2715 29.6404 27.7139 30.1801 28.0321ZM28.2489 24.1528C28.2489 26.4961 26.3425 28.4025 23.9992 28.4025C21.6559 28.4025 19.7494 26.4961 19.7494 24.1528V22.322H20.4363C22.1909 22.322 23.8625 21.7621 25.2367 20.7454L25.38 20.9594C25.6601 21.379 26.0395 21.7229 26.4844 21.9607C26.9294 22.1984 27.4262 22.3225 27.9307 22.322H28.249L28.2489 24.1528ZM19.7493 20.9029C19.7493 18.5596 21.6557 16.6532 23.9991 16.6532C26.3424 16.6532 28.2488 18.5596 28.2488 20.9029V21.0721H27.9305C27.6315 21.0724 27.3371 20.9988 27.0733 20.8579C26.8096 20.717 26.5847 20.5132 26.4187 20.2645L26.1876 19.919C26.3763 19.7278 26.5555 19.5275 26.7245 19.3188C26.9415 19.0503 26.8997 18.6568 26.6313 18.4399C26.363 18.2229 25.9694 18.2646 25.7524 18.5331C24.4484 20.1466 22.5108 21.072 20.4362 21.072H19.7493V20.9029ZM19.1481 26.7417C19.6224 27.6257 20.3279 28.3644 21.1893 28.8787V29.7922C20.7945 29.5473 20.3629 29.3674 19.9111 29.2593L17.8181 28.7577V28.0321C18.3578 27.7139 18.8137 27.2715 19.1481 26.7417ZM20.0692 30.6198L18.0857 31.0951C17.8188 31.1594 17.5568 31.2422 17.3015 31.3429L17.6457 30.0018L19.6198 30.4749C19.7739 30.5117 19.9239 30.5605 20.0692 30.6198ZM12.7498 21.8971C12.7498 20.4311 13.9424 19.2384 15.4085 19.2384H15.8408C17.3068 19.2384 18.4995 20.4311 18.4995 21.8971V22.0573C17.599 22.0471 16.7202 21.7793 15.9669 21.2858C15.8652 21.2191 15.7463 21.1837 15.6247 21.1837C15.5031 21.1837 15.3842 21.2191 15.2825 21.2858C14.5292 21.7794 13.6504 22.0471 12.7499 22.0573L12.7498 21.8971ZM12.7498 24.6626V23.3074C13.7616 23.2976 14.7468 23.0341 15.6246 22.5397C16.5024 23.0342 17.4875 23.2976 18.4994 23.3074V24.6626C18.4994 26.1286 17.3067 27.3213 15.8406 27.3213H15.4084C13.9424 27.3213 12.7498 26.1286 12.7498 24.6626ZM13.9773 34.7504H9.24994V33.4939C9.24994 32.0522 10.2292 30.8114 11.6314 30.4765L13.5992 30.0064L14.5289 33.6303C14.3051 33.9826 14.1202 34.3582 13.9773 34.7504ZM14.6769 28.5015C14.918 28.5476 15.1629 28.571 15.4084 28.5712H15.8407C16.0894 28.5712 16.3323 28.5469 16.5682 28.5023V29.1716L15.7851 32.2238C15.6935 32.2971 15.6041 32.3732 15.5171 32.4519L14.6769 29.1766V28.5015ZM14.8746 38.7501V36.7516C14.8746 35.236 15.6106 33.8712 16.7831 33.0351L22.4981 38.7501H14.8746ZM17.951 32.4352C18.0909 32.3869 18.2331 32.3453 18.377 32.3106L21.3617 31.5954L22.8287 37.3129L17.951 32.4352ZM22.4392 30.7654V29.4269C22.9456 29.5768 23.4709 29.6528 23.9991 29.6526C24.5428 29.6526 25.0682 29.5729 25.5647 29.4252V30.7726L24.0029 36.8601L22.4392 30.7654ZM26.6423 31.602L29.618 32.3129C29.7662 32.3485 29.9125 32.3915 30.0565 32.4416L25.1744 37.3237L26.6423 31.602ZM33.1236 38.7501H25.5157L31.2224 33.0434C32.3907 33.8797 33.1236 35.2418 33.1236 36.7544V38.7501ZM33.3214 29.1768L32.4806 32.4543C32.394 32.376 32.3052 32.3004 32.2141 32.2274L31.4301 29.1717V28.5024C31.6699 28.548 31.9134 28.5711 32.1576 28.5713H32.5898C32.8399 28.5713 33.0843 28.5467 33.3214 28.5016V29.1768ZM38.7482 34.7503H34.02C33.8771 34.3588 33.6923 33.9838 33.4688 33.632L34.3989 30.0063L36.3667 30.4764C37.7689 30.8114 38.7482 32.0522 38.7482 33.4938V34.7503H38.7482ZM23.9991 8C23.654 8 23.3741 8.27987 23.3741 8.62494V11.3008C23.3741 11.646 23.6539 11.9258 23.9991 11.9258C24.3442 11.9258 24.624 11.6459 24.624 11.3008V8.62494C24.6241 8.27987 24.3442 8 23.9991 8ZM24.4409 13.0322C24.3234 12.9154 24.1647 12.8496 23.9991 12.8491C23.834 12.8491 23.6734 12.9159 23.5572 13.0322C23.4403 13.1496 23.3745 13.3084 23.3741 13.4741C23.3741 13.6384 23.4409 13.7997 23.5572 13.9159C23.6734 14.0322 23.8347 14.0991 23.9991 14.0991C24.1634 14.0991 24.3247 14.0322 24.4409 13.9159C24.5576 13.7984 24.6234 13.6397 24.6241 13.4741C24.6241 13.3091 24.5572 13.1484 24.4409 13.0322ZM19.8431 13.174L17.5274 10.8588C17.2834 10.6148 16.8877 10.6149 16.6436 10.8589C16.3996 11.103 16.3996 11.4987 16.6437 11.7428L18.9594 14.058C19.0174 14.1161 19.0863 14.1622 19.1621 14.1936C19.2379 14.225 19.3192 14.2411 19.4013 14.241C19.4834 14.2411 19.5647 14.225 19.6406 14.1935C19.7164 14.1621 19.7853 14.116 19.8433 14.0579C20.0872 13.8139 20.0872 13.4181 19.8431 13.174ZM31.448 10.7617C31.2039 10.5178 30.8084 10.5177 30.5641 10.7617L28.1074 13.2184C27.8633 13.4624 27.8633 13.8581 28.1074 14.1023C28.2295 14.2243 28.3894 14.2853 28.5494 14.2853C28.7093 14.2853 28.8692 14.2243 28.9913 14.1023L31.4481 11.6456C31.6921 11.4015 31.6921 11.0057 31.448 10.7617Z" fill="#00A271"/>
</g>
<defs>
<clipPath id="clip0_4592_273816">
<rect width="32" height="32" fill="white" transform="translate(8 8)"/>
</clipPath>
</defs>
</svg>
