<svg width="48" height="48" viewBox="0 0 48 48" fill="none" xmlns="http://www.w3.org/2000/svg">
<rect width="48" height="48" rx="8" fill="#F7F1FF"/>
<g clip-path="url(#clip0_4592_273802)">
<path d="M27.4765 17.4182C26.7266 17.4182 26.1011 17.9586 25.9677 18.6703L21.0419 20.7163H19.2563C18.4741 20.7163 17.8379 21.3192 17.8379 22.0602V24.3718C17.8379 24.9266 18.1946 25.4039 18.7022 25.6088V28.626C18.7022 29.4264 19.3533 30.0775 20.1537 30.0775C20.9541 30.0775 21.6052 29.4264 21.6052 28.626V25.9496L25.9677 27.7617C26.1011 28.4733 26.7267 29.0138 27.4765 29.0138C28.3232 29.0138 29.012 28.325 29.012 27.4783V25.7485C30.1426 25.4552 30.9767 24.4166 30.9767 23.216C30.9767 22.0152 30.1426 20.9767 29.012 20.6835V18.9537C29.012 18.107 28.3232 17.4182 27.4765 17.4182ZM21.6052 21.4995L25.9411 19.6985V26.7335L21.6052 24.9325V21.4995ZM18.7772 22.0602C18.7772 21.8372 18.9921 21.6557 19.2562 21.6557H20.6658V24.7762H19.2563C18.9921 24.7762 18.7773 24.5948 18.7773 24.3717V22.0602H18.7772ZM20.1537 29.1382C19.8713 29.1382 19.6415 28.9085 19.6415 28.626V25.7156H20.6658V28.626C20.6659 28.9085 20.4361 29.1382 20.1537 29.1382ZM28.0726 27.4783C28.0726 27.807 27.8052 28.0745 27.4765 28.0745C27.1478 28.0745 26.8804 27.807 26.8804 27.4783V18.9537C26.8804 18.625 27.1478 18.3575 27.4765 18.3575C27.8052 18.3575 28.0726 18.6249 28.0726 18.9537V27.4783ZM30.0374 23.216C30.0374 23.9002 29.6149 24.5023 29.012 24.7596V21.6724C29.6148 21.9296 30.0374 22.5317 30.0374 23.216Z" fill="#6F2ECF"/>
<path d="M35.6918 32.0308C34.8723 32.0308 34.0945 32.2991 33.4569 32.7926L31.3278 30.6636C32.9301 28.9035 33.7841 26.7012 33.8891 24.4696H35.5955C35.8118 25.4729 36.7056 26.2273 37.7726 26.2273C39.0008 26.2274 40 25.2282 40 24C40 22.7718 39.0008 21.7726 37.7726 21.7726C36.7056 21.7726 35.8118 22.527 35.5955 23.5303H33.8891C33.7841 21.2988 32.9301 19.0965 31.3278 17.3364L33.4569 15.2073C34.0912 15.6983 34.8648 15.9666 35.6798 15.9692H35.6814C35.805 15.968 35.9232 15.9181 36.0102 15.8303C36.0973 15.7425 36.1462 15.6239 36.1464 15.5003C36.1466 15.3766 36.0981 15.2579 36.0113 15.1698C35.9245 15.0818 35.8065 15.0315 35.6829 15.0299C34.9593 15.0275 34.279 14.7444 33.7673 14.2327C32.7062 13.1716 32.7062 11.4449 33.7673 10.3837C34.2814 9.86962 34.9648 9.58656 35.6919 9.58656C36.4189 9.58656 37.1023 9.86962 37.6164 10.3837C38.1305 10.8977 38.4136 11.5812 38.4136 12.3082C38.4136 13.0352 38.1305 13.7186 37.6164 14.2327C37.4964 14.3528 37.3656 14.4615 37.2255 14.5574C37.1736 14.5917 37.129 14.6361 37.0944 14.6878C37.0598 14.7396 37.0358 14.7977 37.0238 14.8588C37.0119 14.9199 37.0122 14.9828 37.0247 15.0438C37.0373 15.1047 37.0618 15.1626 37.097 15.214C37.1321 15.2654 37.1771 15.3093 37.2293 15.3432C37.2816 15.3771 37.3401 15.4002 37.4013 15.4112C37.4626 15.4223 37.5255 15.4211 37.5863 15.4076C37.647 15.3942 37.7046 15.3688 37.7554 15.3329C37.9436 15.2041 38.1194 15.0581 38.2806 14.8969C38.9721 14.2054 39.3529 13.286 39.3529 12.3081C39.3529 11.3303 38.9721 10.4109 38.2806 9.71944C37.5892 9.028 36.6698 8.64719 35.6919 8.64719C34.7139 8.64719 33.7946 9.028 33.1031 9.71944C31.7883 11.0343 31.6856 13.1081 32.793 14.5427L30.6637 16.6721C28.9036 15.0698 26.7013 14.2159 24.4697 14.1109V12.4045C25.4731 12.1883 26.2274 11.2944 26.2274 10.2274C26.2274 8.99919 25.2282 8 24 8C22.7718 8 21.7726 8.99919 21.7726 10.2274C21.7726 11.2944 22.527 12.1883 23.5303 12.4045V14.1109C21.2988 14.2159 19.0965 15.0699 17.3364 16.6722L15.207 14.5428C16.3144 13.1081 16.2117 11.0343 14.8969 9.7195C14.2055 9.02806 13.2861 8.64725 12.3082 8.64725C11.3304 8.64725 10.411 9.02806 9.7195 9.7195C9.028 10.4109 8.64719 11.3304 8.64719 12.3082C8.64719 13.2861 9.028 14.2055 9.71944 14.897C10.4109 15.5885 11.3303 15.9693 12.3082 15.9693C13.1277 15.9693 13.9055 15.7009 14.5431 15.2074L16.6728 17.3371C16.1509 17.9103 15.6982 18.5391 15.3257 19.2134C15.2666 19.3224 15.2529 19.4503 15.2876 19.5694C15.3224 19.6884 15.4028 19.7888 15.5114 19.8488C15.6199 19.9087 15.7478 19.9233 15.867 19.8894C15.9863 19.8555 16.0873 19.7757 16.148 19.6676C16.553 18.9343 17.0619 18.259 17.6604 17.6604C21.1559 14.1649 26.8439 14.1648 30.3395 17.6604C33.8352 21.1561 33.8352 26.8439 30.3395 30.3396C26.8439 33.8351 21.1561 33.8351 17.6604 30.3396C15.2895 27.9686 14.4413 24.5068 15.4471 21.3051C15.4655 21.2462 15.4723 21.1843 15.4668 21.1229C15.4614 21.0614 15.4439 21.0017 15.4154 20.947C15.3868 20.8923 15.3478 20.8438 15.3005 20.8042C15.2532 20.7646 15.1986 20.7347 15.1398 20.7163C15.0809 20.6978 15.019 20.691 14.9576 20.6965C14.8961 20.7019 14.8363 20.7194 14.7817 20.7479C14.727 20.7765 14.6784 20.8155 14.6388 20.8628C14.5992 20.9101 14.5694 20.9647 14.5509 21.0236C14.2955 21.8366 14.1454 22.6791 14.1043 23.5304H12.4045C12.1883 22.5271 11.2944 21.7727 10.2274 21.7727C8.99919 21.7726 8 22.7718 8 24C8 25.2282 8.99919 26.2274 10.2274 26.2274C11.2944 26.2274 12.1882 25.473 12.4045 24.4697H14.1033C14.2092 26.7403 15.0971 28.9325 16.6729 30.6629L14.5432 32.7926C13.9056 32.2991 13.1277 32.0308 12.3082 32.0308C11.3303 32.0308 10.411 32.4116 9.7195 33.1031C9.028 33.7946 8.64725 34.7139 8.64725 35.6917C8.64725 36.6696 9.02806 37.589 9.7195 38.2805C10.4109 38.972 11.3304 39.3528 12.3082 39.3528C12.4328 39.3528 12.5523 39.3033 12.6404 39.2152C12.7285 39.1271 12.7779 39.0076 12.7779 38.8831C12.7779 38.7585 12.7285 38.639 12.6404 38.5509C12.5523 38.4629 12.4328 38.4134 12.3082 38.4134C11.5812 38.4134 10.8977 38.1302 10.3837 37.6162C9.86962 37.1022 9.58656 36.4187 9.58656 35.6917C9.58656 34.9647 9.86962 34.2812 10.3837 33.7672C10.8977 33.2531 11.5812 32.9701 12.3082 32.9701C13.0352 32.9701 13.7187 33.2531 14.2328 33.7672C15.2939 34.8284 15.2939 36.5551 14.2329 37.6162C14.1025 37.7466 13.9593 37.8636 13.8055 37.9653C13.754 37.9993 13.7097 38.0431 13.6752 38.0942C13.6406 38.1452 13.6165 38.2026 13.6041 38.2631C13.5917 38.3235 13.5914 38.3858 13.6031 38.4463C13.6148 38.5069 13.6383 38.5645 13.6723 38.616C13.7063 38.6675 13.7501 38.7118 13.8012 38.7463C13.8522 38.7809 13.9096 38.805 13.9701 38.8174C14.0305 38.8298 14.0927 38.8301 14.1533 38.8184C14.2139 38.8067 14.2715 38.7832 14.323 38.7493C14.5296 38.6127 14.7219 38.4556 14.8971 38.2804C16.2118 36.9656 16.3145 34.8918 15.2071 33.4571L17.3365 31.3277C19.0966 32.9301 21.2989 33.784 23.5304 33.889V35.5954C22.5271 35.8117 21.7727 36.7055 21.7727 37.7726C21.7726 39.0008 22.7718 40 24 40C25.2282 40 26.2274 39.0008 26.2274 37.7726C26.2274 36.7056 25.473 35.8118 24.4697 35.5955V33.8891C26.7012 33.7841 28.9035 32.9301 30.6636 31.3278L32.7929 33.4572C31.6856 34.8919 31.7882 36.9657 33.103 38.2805C33.7946 38.972 34.7139 39.3528 35.6918 39.3528C36.6698 39.3528 37.5891 38.9719 38.2806 38.2805C38.9721 37.5891 39.3528 36.6697 39.3528 35.6918C39.3528 34.7139 38.972 33.7946 38.2806 33.1031C37.5891 32.4116 36.6697 32.0308 35.6918 32.0308ZM22.7119 10.2274C22.7119 9.51713 23.2898 8.93931 24 8.93931C24.7103 8.93931 25.2881 9.51713 25.2881 10.2274C25.2881 10.9376 24.7103 11.5154 24 11.5154C23.2898 11.5154 22.7119 10.9376 22.7119 10.2274ZM10.3837 14.2327C9.86962 13.7187 9.58656 13.0353 9.58656 12.3082C9.58656 11.5812 9.86962 10.8977 10.3837 10.3837C10.8977 9.86962 11.5812 9.58656 12.3082 9.58656C13.0352 9.58656 13.7187 9.86962 14.2328 10.3837C15.2939 11.4449 15.2939 13.1716 14.2328 14.2327C13.7188 14.7468 13.0353 15.0299 12.3082 15.0299C11.5812 15.0299 10.8977 14.7468 10.3837 14.2327ZM37.7726 22.7119C38.4829 22.7119 39.0607 23.2898 39.0607 24C39.0607 24.7103 38.4829 25.2881 37.7726 25.2881C37.0624 25.2881 36.4846 24.7103 36.4846 24C36.4846 23.2898 37.0624 22.7119 37.7726 22.7119ZM10.2274 25.2881C9.51713 25.2881 8.93931 24.7103 8.93931 24C8.93931 23.2898 9.51713 22.7119 10.2274 22.7119C10.9376 22.7119 11.5154 23.2898 11.5154 24C11.5154 24.7102 10.9376 25.2881 10.2274 25.2881ZM25.2881 37.7726C25.2881 38.4828 24.7103 39.0607 24 39.0607C23.2898 39.0607 22.7119 38.4829 22.7119 37.7726C22.7119 37.0624 23.2898 36.4846 24 36.4846C24.7103 36.4846 25.2881 37.0624 25.2881 37.7726ZM37.6162 37.6163C37.1022 38.1304 36.4187 38.4134 35.6917 38.4134C34.9648 38.4134 34.2812 38.1304 33.7672 37.6163C32.7061 36.5551 32.7061 34.8284 33.7672 33.7673C34.2812 33.2532 34.9647 32.9701 35.6917 32.9701C36.4187 32.9701 37.1022 33.2532 37.6162 33.7673C38.1304 34.2813 38.4134 34.9648 38.4134 35.6918C38.4135 36.4188 38.1304 37.1022 37.6162 37.6163Z" fill="#6F2ECF"/>
</g>
<defs>
<clipPath id="clip0_4592_273802">
<rect width="32" height="32" fill="white" transform="translate(8 8)"/>
</clipPath>
</defs>
</svg>
