<svg width="32" height="32" viewBox="0 0 32 32" fill="none" xmlns="http://www.w3.org/2000/svg">
<path d="M22.6641 24.5736H17.3307L11.3974 28.5203C10.5174 29.1069 9.33073 28.4803 9.33073 27.4137V24.5736C5.33073 24.5736 2.66406 21.907 2.66406 17.907V9.9069C2.66406 5.9069 5.33073 3.24023 9.33073 3.24023H22.6641C26.6641 3.24023 29.3307 5.9069 29.3307 9.9069V17.907C29.3307 21.907 26.6641 24.5736 22.6641 24.5736Z" stroke="#6E6E6E" stroke-width="1.5" stroke-miterlimit="10" stroke-linecap="round" stroke-linejoin="round"/>
<path d="M16.0024 15.1465V14.8665C16.0024 13.9599 16.5624 13.4798 17.1224 13.0932C17.6691 12.7198 18.2157 12.2399 18.2157 11.3599C18.2157 10.1332 17.229 9.14648 16.0024 9.14648C14.7757 9.14648 13.7891 10.1332 13.7891 11.3599" stroke="#6E6E6E" stroke-width="1.5" stroke-linecap="round" stroke-linejoin="round"/>
<path d="M15.9966 18.3337H16.0086" stroke="#6E6E6E" stroke-width="1.5" stroke-linecap="round" stroke-linejoin="round"/>
</svg>
