<svg width="32" height="32" viewBox="0 0 32 32" fill="none" xmlns="http://www.w3.org/2000/svg">
<path d="M23.9975 9.547C23.9175 9.53366 23.8242 9.53366 23.7442 9.547C21.9042 9.48033 20.4375 7.97366 20.4375 6.10699C20.4375 4.20033 21.9708 2.66699 23.8775 2.66699C25.7842 2.66699 27.3175 4.21366 27.3175 6.10699C27.3042 7.97366 25.8375 9.48033 23.9975 9.547Z" stroke="#6E6E6E" stroke-width="1.5" stroke-linecap="round" stroke-linejoin="round"/>
<path d="M22.6259 19.2539C24.4526 19.5605 26.4659 19.2405 27.8793 18.2939C29.7593 17.0405 29.7593 14.9872 27.8793 13.7339C26.4526 12.7872 24.4126 12.4672 22.5859 12.7872" stroke="#6E6E6E" stroke-width="1.5" stroke-linecap="round" stroke-linejoin="round"/>
<path d="M7.96063 9.547C8.04063 9.53366 8.13396 9.53366 8.21396 9.547C10.054 9.48033 11.5206 7.97366 11.5206 6.10699C11.5206 4.20033 9.98729 2.66699 8.08063 2.66699C6.17396 2.66699 4.64062 4.21366 4.64062 6.10699C4.65396 7.97366 6.12063 9.48033 7.96063 9.547Z" stroke="#6E6E6E" stroke-width="1.5" stroke-linecap="round" stroke-linejoin="round"/>
<path d="M9.33521 19.2539C7.50854 19.5605 5.49521 19.2405 4.08188 18.2939C2.20188 17.0405 2.20188 14.9872 4.08188 13.7339C5.50854 12.7872 7.54854 12.4672 9.3752 12.7872" stroke="#6E6E6E" stroke-width="1.5" stroke-linecap="round" stroke-linejoin="round"/>
<path d="M15.9975 19.507C15.9175 19.4936 15.8242 19.4936 15.7442 19.507C13.9042 19.4403 12.4375 17.9336 12.4375 16.067C12.4375 14.1603 13.9708 12.627 15.8775 12.627C17.7842 12.627 19.3175 14.1736 19.3175 16.067C19.3042 17.9336 17.8375 19.4536 15.9975 19.507Z" stroke="#6E6E6E" stroke-width="1.5" stroke-linecap="round" stroke-linejoin="round"/>
<path d="M12.1209 23.7065C10.2409 24.9598 10.2409 27.0131 12.1209 28.2665C14.2543 29.6931 17.7476 29.6931 19.8809 28.2665C21.7609 27.0131 21.7609 24.9598 19.8809 23.7065C17.7609 22.2932 14.2543 22.2932 12.1209 23.7065Z" stroke="#6E6E6E" stroke-width="1.5" stroke-linecap="round" stroke-linejoin="round"/>
</svg>
