<svg width="21" height="19" viewBox="0 0 21 19" fill="none" xmlns="http://www.w3.org/2000/svg">
<path d="M0.35379 9.24058L5.36704 11.7474C5.56094 11.8434 5.78986 11.8365 5.97522 11.7277L10.4375 9.12488L7.73656 11.5263C7.59904 11.6488 7.52045 11.8237 7.52045 12.0079V17.8571C7.52045 18.4742 8.30546 18.7339 8.67361 18.2436L10.8407 15.3529L16.1999 18.415C16.5757 18.6319 17.0575 18.4142 17.1446 17.9831L20.4871 1.27109C20.587 0.768874 20.089 0.359216 19.626 0.546047L0.40675 8.06645C-0.109181 8.26871 -0.142495 8.9929 0.35379 9.24058ZM19.0008 2.17097L16.0632 16.8578L10.9851 13.9559C10.7083 13.7974 10.3521 13.8677 10.1556 14.1282L8.80174 15.934V12.2967L16.1059 5.8039C16.6842 5.29054 16.0197 4.37781 15.3594 4.7669L5.63013 10.4421L2.2202 8.7375L19.0008 2.17097Z" fill="#6E6E6E"/>
</svg>
