<svg width="40" height="40" viewBox="0 0 40 40" fill="none" xmlns="http://www.w3.org/2000/svg">
<rect width="40" height="40" rx="20" fill="#E8F9FF"/>
<g clip-path="url(#clip0_4587_268006)">
<path d="M30.2486 22.4131C30.2397 22.3909 30.2264 22.3732 30.2131 22.3554C29.6409 21.6502 28.6075 21.5437 27.8978 22.1159C27.0107 22.8389 25.72 23.8812 24.8817 24.5599C24.2917 25.0345 23.5643 25.305 22.8058 25.3316L20.5349 25.407C20.4417 25.4115 20.3575 25.3627 20.3087 25.2873L20.0558 24.8526C20.0115 24.7816 20.0071 24.6974 20.0425 24.622C20.078 24.5466 20.1446 24.4933 20.2244 24.48L22.5708 24.0365C23.3958 23.8812 23.9724 23.1006 23.8792 22.2534C23.7905 21.4373 23.0986 20.8252 22.2825 20.8252C22.2603 20.8252 22.2337 20.8252 22.2026 20.8252L19.0667 20.6966C17.8159 20.6522 16.7425 20.8917 15.4873 21.4994L13.8462 22.2933C13.6155 21.8143 13.1321 21.5083 12.5998 21.5083H10.7857C10.0272 21.5038 9.41069 22.1159 9.40625 22.8744V29.6296C9.41069 30.3881 10.0272 31.0002 10.7857 31.0002H12.5998C13.3583 31.0002 13.9704 30.3881 13.9748 29.6296V29.1728L15.7179 28.8534C16.2813 28.7691 16.6361 28.7381 17.2349 28.7647L22.003 28.9865C23.7196 29.0619 25.4006 28.4941 26.7179 27.3941L30.0224 24.653L30.0268 24.6486C30.6877 24.0853 30.7853 23.0962 30.2486 22.4131ZM13.0877 29.6296C13.0877 29.8958 12.8704 30.1131 12.6042 30.1131H10.7768C10.5107 30.1131 10.2933 29.8958 10.2933 29.6296V22.8788C10.2933 22.6127 10.5107 22.3954 10.7768 22.3954H12.6042C12.8704 22.3954 13.0877 22.6127 13.0877 22.8788V29.6296ZM29.4546 23.97L26.1546 26.7066C25.0058 27.6647 23.5377 28.157 22.0429 28.095L17.2748 27.8732C16.605 27.8421 16.197 27.882 15.5804 27.9708C15.576 27.9708 15.5716 27.9708 15.5671 27.9752L13.9748 28.2679V23.2115L15.8732 22.2933C16.9909 21.7522 17.9357 21.5393 19.0313 21.5792L22.1893 21.7079C22.2071 21.7079 22.2292 21.7079 22.247 21.7079C22.2514 21.7079 22.2692 21.7079 22.2825 21.7079C22.6462 21.7123 22.9567 21.9829 23.001 22.3466C23.0454 22.728 22.7881 23.0829 22.4111 23.1583L20.0647 23.6018C19.4482 23.7171 19.0446 24.3159 19.1599 24.9325C19.1865 25.0611 19.2308 25.1853 19.2974 25.2962L19.5502 25.7264C19.7631 26.0857 20.1534 26.2986 20.5704 26.2853L22.8413 26.2099C23.7905 26.1744 24.7042 25.8329 25.445 25.2429C26.2833 24.5643 27.5784 23.522 28.4655 22.799C28.7849 22.5506 29.2417 22.5905 29.5123 22.8921C29.5212 22.9099 29.5345 22.9276 29.5478 22.9454C29.8006 23.2514 29.7607 23.7127 29.4546 23.97Z" fill="#008CC3"/>
<path d="M23.5243 9C20.3263 9 17.7227 11.6036 17.7227 14.8016C17.7227 17.9996 20.3263 20.6077 23.5243 20.6077C26.7223 20.6077 29.3259 18.004 29.3259 14.806C29.3259 11.6081 26.7223 9 23.5243 9ZM23.5287 19.7206C20.8142 19.7206 18.6098 17.5206 18.6098 14.806C18.6098 14.806 18.6098 14.806 18.6098 14.8016C18.6142 12.0915 20.8098 9.89153 23.5243 9.8871C26.2388 9.8871 28.4432 12.0871 28.4432 14.8016C28.4432 17.5161 26.2432 19.7206 23.5287 19.7206Z" fill="#008CC3"/>
<path d="M25.2579 13.4353H24.6635C24.6147 13.2135 24.5305 13.0051 24.4063 12.8143H25.2579C25.5018 12.8143 25.7014 12.6147 25.7014 12.3708C25.7014 12.1268 25.5018 11.9272 25.2579 11.9272H21.7893C21.5454 11.9272 21.3458 12.1268 21.3458 12.3708C21.3458 12.6147 21.5454 12.8143 21.7893 12.8143H22.7829C23.1998 12.8143 23.5635 13.0805 23.7276 13.4353H21.7893C21.5454 13.4353 21.3458 13.6349 21.3458 13.8789C21.3458 14.1228 21.5454 14.3224 21.7893 14.3224H23.7276C23.67 14.4244 23.6034 14.5176 23.5236 14.6018C23.324 14.797 23.0579 14.9035 22.7829 14.899H21.7893C21.5409 14.9035 21.3413 15.1031 21.3458 15.3514C21.3458 15.4712 21.399 15.5865 21.4833 15.6708L23.9627 18.0172C24.1401 18.1857 24.4196 18.1768 24.5881 17.9994C24.7567 17.822 24.7478 17.5426 24.5704 17.374L22.8982 15.7906C23.3684 15.7639 23.8119 15.5688 24.1446 15.2361C24.3974 14.9833 24.5748 14.6684 24.6635 14.3224H25.2579C25.5018 14.3224 25.7014 14.1228 25.7014 13.8789C25.7014 13.6349 25.5018 13.4353 25.2579 13.4353Z" fill="#008CC3"/>
</g>
<defs>
<clipPath id="clip0_4587_268006">
<rect width="22" height="22" fill="white" transform="translate(9 9)"/>
</clipPath>
</defs>
</svg>
