<svg width="40" height="41" viewBox="0 0 40 41" fill="none" xmlns="http://www.w3.org/2000/svg">
<g clip-path="url(#clip0_6341_69543)">
<path d="M29.97 27.2265C29.97 27.5865 29.89 27.9565 29.72 28.3165C29.55 28.6765 29.33 29.0165 29.04 29.3365C28.55 29.8765 28.01 30.2665 27.4 30.5165C26.8 30.7665 26.15 30.8965 25.45 30.8965C24.43 30.8965 23.34 30.6565 22.19 30.1665C21.04 29.6765 19.89 29.0165 18.75 28.1865C17.6 27.3465 16.51 26.4165 15.47 25.3865C14.44 24.3465 13.51 23.2565 12.68 22.1165C11.86 20.9765 11.2 19.8365 10.72 18.7065C10.24 17.5665 10 16.4765 10 15.4365C10 14.7565 10.12 14.1065 10.36 13.5065C10.6 12.8965 10.98 12.3365 11.51 11.8365C12.15 11.2065 12.85 10.8965 13.59 10.8965C13.87 10.8965 14.15 10.9565 14.4 11.0765C14.66 11.1965 14.89 11.3765 15.07 11.6365L17.39 14.9065C17.57 15.1565 17.7 15.3865 17.79 15.6065C17.88 15.8165 17.93 16.0265 17.93 16.2165C17.93 16.4565 17.86 16.6965 17.72 16.9265C17.59 17.1565 17.4 17.3965 17.16 17.6365L16.4 18.4265C16.29 18.5365 16.24 18.6665 16.24 18.8265C16.24 18.9065 16.25 18.9765 16.27 19.0565C16.3 19.1365 16.33 19.1965 16.35 19.2565C16.53 19.5865 16.84 20.0165 17.28 20.5365C17.73 21.0565 18.21 21.5865 18.73 22.1165C19.27 22.6465 19.79 23.1365 20.32 23.5865C20.84 24.0265 21.27 24.3265 21.61 24.5065C21.66 24.5265 21.72 24.5565 21.79 24.5865C21.87 24.6165 21.95 24.6265 22.04 24.6265C22.21 24.6265 22.34 24.5665 22.45 24.4565L23.21 23.7065C23.46 23.4565 23.7 23.2665 23.93 23.1465C24.16 23.0065 24.39 22.9365 24.64 22.9365C24.83 22.9365 25.03 22.9765 25.25 23.0665C25.47 23.1565 25.7 23.2865 25.95 23.4565L29.26 25.8065C29.52 25.9865 29.7 26.1965 29.81 26.4465C29.91 26.6965 29.97 26.9465 29.97 27.2265Z" stroke="#292D32" stroke-width="1.5" stroke-miterlimit="10"/>
</g>
<defs>
<clipPath id="clip0_6341_69543">
<rect y="0.896484" width="40" height="40" rx="20" fill="white"/>
</clipPath>
</defs>
</svg>
