<svg width="40" height="40" viewBox="0 0 40 40" fill="none" xmlns="http://www.w3.org/2000/svg">
<g clip-path="url(#clip0_5995_227)">
<path d="M13 18H15C17 18 18 17 18 15V13C18 11 17 10 15 10H13C11 10 10 11 10 13V15C10 17 11 18 13 18Z" stroke="#292D32" stroke-width="1.5" stroke-miterlimit="10" stroke-linecap="round" stroke-linejoin="round"/>
<path d="M25 18H27C29 18 30 17 30 15V13C30 11 29 10 27 10H25C23 10 22 11 22 13V15C22 17 23 18 25 18Z" stroke="#292D32" stroke-width="1.5" stroke-miterlimit="10" stroke-linecap="round" stroke-linejoin="round"/>
<path d="M25 30H27C29 30 30 29 30 27V25C30 23 29 22 27 22H25C23 22 22 23 22 25V27C22 29 23 30 25 30Z" stroke="#292D32" stroke-width="1.5" stroke-miterlimit="10" stroke-linecap="round" stroke-linejoin="round"/>
<path d="M13 30H15C17 30 18 29 18 27V25C18 23 17 22 15 22H13C11 22 10 23 10 25V27C10 29 11 30 13 30Z" stroke="#292D32" stroke-width="1.5" stroke-miterlimit="10" stroke-linecap="round" stroke-linejoin="round"/>
</g>
<defs>
<clipPath id="clip0_5995_227">
<rect width="40" height="40" rx="20" fill="white"/>
</clipPath>
</defs>
</svg>
