<svg width="64" height="64" viewBox="0 0 64 64" fill="none" xmlns="http://www.w3.org/2000/svg">
<rect width="64" height="64" rx="32" fill="white"/>
<g clip-path="url(#clip0_6087_501)">
<path d="M36.4141 39.3193L39.9926 41.3854" stroke="#6F2ECF" stroke-width="1.5" stroke-miterlimit="10" stroke-linecap="round" stroke-linejoin="round"/>
<path d="M38.3594 35.959L42.6623 38.4432" stroke="#6F2ECF" stroke-width="1.5" stroke-miterlimit="10" stroke-linecap="round" stroke-linejoin="round"/>
<path d="M35.4641 28.626C35.3795 28.967 35.2245 29.2804 35.0156 29.5497" stroke="#6F2ECF" stroke-width="1.5" stroke-miterlimit="10" stroke-linecap="round" stroke-linejoin="round"/>
<path d="M34.4688 42.6729L36.2678 43.7115" stroke="#6F2ECF" stroke-width="1.5" stroke-miterlimit="10" stroke-linecap="round" stroke-linejoin="round"/>
<path d="M22.1195 23.9202L23.0223 24.4414C23.0749 24.4718 23.0929 24.5389 23.0625 24.5915L16.9332 35.2078C16.9029 35.2604 16.8357 35.2783 16.7831 35.248L12.6409 32.8565C12.5883 32.8262 12.5704 32.759 12.6007 32.7064L18.73 22.0901C18.7603 22.0375 18.8275 22.0196 18.88 22.0499L19.7434 22.5484" stroke="#6F2ECF" stroke-width="1.5" stroke-miterlimit="10" stroke-linecap="round" stroke-linejoin="round"/>
<path d="M51.3582 32.8565C51.4107 32.8262 51.4287 32.759 51.3984 32.7064L45.2691 22.0901C45.2388 22.0375 45.1715 22.0196 45.119 22.0499L40.9768 24.4414C40.9243 24.4717 40.9063 24.5389 40.9366 24.5914L47.0659 35.2078C47.0962 35.2604 47.1634 35.2783 47.216 35.248L51.3582 32.8565Z" stroke="#6F2ECF" stroke-width="1.5" stroke-miterlimit="10" stroke-linecap="round" stroke-linejoin="round"/>
<path d="M21.7401 33.582C21.6204 33.6225 21.5029 33.6752 21.3893 33.7409L19.2045 35.0023C18.5308 35.3913 18.3 36.2527 18.6889 36.9265L19.2202 37.8466C19.6092 38.5204 20.4706 38.7512 21.1444 38.3623L23.3292 37.1009C24.2392 36.5755 24.5625 35.4239 24.069 34.5045" stroke="#6F2ECF" stroke-width="1.5" stroke-miterlimit="10" stroke-linecap="round" stroke-linejoin="round"/>
<path d="M23.3788 41.5486L24.8634 40.6914C25.7913 40.1557 26.1092 38.9693 25.5734 38.0415C25.0377 37.1137 23.8513 36.7958 22.9235 37.3315L21.4389 38.1886C20.7652 38.5776 20.5344 39.4391 20.9233 40.1129L21.4545 41.033C21.8436 41.7067 22.7051 41.9375 23.3788 41.5486Z" stroke="#6F2ECF" stroke-width="1.5" stroke-miterlimit="10" stroke-linecap="round" stroke-linejoin="round"/>
<path d="M26.3945 44.2907L27.7792 43.4913C28.707 42.9555 29.0249 41.7691 28.4892 40.8413C27.9534 39.9135 26.767 39.5956 25.8392 40.1313L24.4545 40.9308C23.7808 41.3198 23.55 42.1813 23.9389 42.855L24.4702 43.7752C24.8593 44.4489 25.7208 44.6797 26.3945 44.2907Z" stroke="#6F2ECF" stroke-width="1.5" stroke-miterlimit="10" stroke-linecap="round" stroke-linejoin="round"/>
<path d="M29.7148 46.8507L30.6994 46.2823C31.6272 45.7466 31.9451 44.5602 31.4094 43.6323C30.8737 42.7045 29.6873 42.3866 28.7595 42.9223L27.7749 43.4908C27.1011 43.8798 26.8703 44.7412 27.2592 45.415L27.7905 46.3352C28.1795 47.0088 29.041 47.2397 29.7148 46.8507Z" stroke="#6F2ECF" stroke-width="1.5" stroke-miterlimit="10" stroke-linecap="round" stroke-linejoin="round"/>
<path d="M31.9535 21.2154C31.3579 21.2154 30.875 20.7325 30.875 20.1368V17.9799C30.875 17.3843 31.3579 16.9014 31.9535 16.9014C32.5491 16.9014 33.032 17.3843 33.032 17.9799V20.1368C33.032 20.7325 32.5491 21.2154 31.9535 21.2154Z" stroke="#6F2ECF" stroke-width="1.5" stroke-miterlimit="10" stroke-linecap="round" stroke-linejoin="round"/>
<path d="M36.8129 22.1492C36.297 21.8514 36.1203 21.1917 36.4181 20.676L37.4966 18.808C37.7944 18.2921 38.454 18.1154 38.9698 18.4132C39.4857 18.711 39.6624 19.3706 39.3646 19.8864L38.2861 21.7544C37.9883 22.2703 37.3287 22.447 36.8129 22.1492Z" stroke="#6F2ECF" stroke-width="1.5" stroke-miterlimit="10" stroke-linecap="round" stroke-linejoin="round"/>
<path d="M27.1026 22.1492C27.6185 21.8514 27.7952 21.1917 27.4974 20.676L26.4189 18.808C26.1211 18.2921 25.4615 18.1154 24.9457 18.4132C24.4298 18.711 24.2531 19.3706 24.5509 19.8864L25.6294 21.7544C25.9272 22.2703 26.5869 22.447 27.1026 22.1492Z" stroke="#6F2ECF" stroke-width="1.5" stroke-miterlimit="10" stroke-linecap="round" stroke-linejoin="round"/>
<path d="M31.4844 45.4429L31.7499 45.5828L34.0491 46.9102C34.7319 47.3045 35.6052 47.0616 35.9864 46.3714L36.5002 45.4412C36.8713 44.7693 36.6363 43.9241 35.9716 43.5402L34.6658 42.7863L37.8418 44.62C38.5245 45.0142 39.3979 44.7713 39.7791 44.0812L40.293 43.151C40.6641 42.4791 40.429 41.6338 39.7643 41.2501L37.8263 40.1311L40.7006 41.7905C41.3744 42.1795 42.2359 41.9487 42.6248 41.2749L43.1561 40.3548C43.545 39.6811 43.3143 38.8198 42.6408 38.4307L40.8832 37.4155L43.0867 38.688C43.7748 39.0854 44.6552 38.8353 45.0316 38.1356L45.5352 37.1997C45.896 36.5291 45.6585 35.6931 44.9991 35.3124L44.9416 35.2793" stroke="#6F2ECF" stroke-width="1.5" stroke-miterlimit="10" stroke-linecap="round" stroke-linejoin="round"/>
<path d="M17.4062 34.3818L18.8927 35.2385" stroke="#6F2ECF" stroke-width="1.5" stroke-miterlimit="10" stroke-linecap="round" stroke-linejoin="round"/>
<path d="M26.6718 27.081C25.894 27.0615 25.1288 26.8466 24.448 26.4537L22.6016 25.3896" stroke="#6F2ECF" stroke-width="1.5" stroke-miterlimit="10" stroke-linecap="round" stroke-linejoin="round"/>
<path d="M33.8386 24.9386L33.7522 24.8888C32.7371 24.3027 31.4863 24.3027 30.4711 24.8888L25.3433 27.8493C25.0599 28.013 24.9627 28.3755 25.1264 28.6589L25.3175 28.99C26.1196 30.3793 27.8964 30.8552 29.2857 30.0532C29.6182 29.8612 29.9154 29.6897 30.1232 29.5697C30.4813 29.363 30.9393 29.4219 31.2215 29.7241C31.6766 30.2113 32.3247 30.5159 33.0439 30.5159C33.8458 30.5159 34.5592 30.1374 35.0153 29.5493L37.2222 30.8234L40.8562 32.9215L44.9387 35.2786L46.5668 34.3363" stroke="#6F2ECF" stroke-width="1.5" stroke-miterlimit="10" stroke-linecap="round" stroke-linejoin="round"/>
<path d="M41.4127 25.4062L39.6448 26.4247C38.6448 27.0019 37.4129 27.0017 36.413 26.4245L36.375 26.4026" stroke="#6F2ECF" stroke-width="1.5" stroke-miterlimit="10" stroke-linecap="round" stroke-linejoin="round"/>
</g>
<defs>
<clipPath id="clip0_6087_501">
<rect width="40" height="40" fill="white" transform="translate(12 12)"/>
</clipPath>
</defs>
</svg>
