<svg width="64" height="64" viewBox="0 0 64 64" fill="none" xmlns="http://www.w3.org/2000/svg">
<rect width="64" height="64" rx="32" fill="white"/>
<path d="M27.625 32H25.125C24.9592 32 24.8003 32.0658 24.6831 32.1831C24.5658 32.3003 24.5 32.4592 24.5 32.625V37C24.5 37.1658 24.5658 37.3247 24.6831 37.4419C24.8003 37.5592 24.9592 37.625 25.125 37.625H27.625C27.7908 37.625 27.9497 37.5592 28.0669 37.4419C28.1842 37.3247 28.25 37.1658 28.25 37V32.625C28.25 32.4592 28.1842 32.3003 28.0669 32.1831C27.9497 32.0658 27.7908 32 27.625 32ZM27 36.375H25.75V33.25H27V36.375Z" fill="#FF3F3F"/>
<path d="M36.375 37.625H38.875C39.0408 37.625 39.1997 37.5592 39.3169 37.4419C39.4342 37.3247 39.5 37.1658 39.5 37V32.625C39.5 32.4592 39.4342 32.3003 39.3169 32.1831C39.1997 32.0658 39.0408 32 38.875 32H36.375C36.2092 32 36.0503 32.0658 35.9331 32.1831C35.8158 32.3003 35.75 32.4592 35.75 32.625V37C35.75 37.1658 35.8158 37.3247 35.9331 37.4419C36.0503 37.5592 36.2092 37.625 36.375 37.625ZM37 33.25H38.25V36.375H37V33.25Z" fill="#FF3F3F"/>
<path d="M40.799 25.1724C41.4753 24.865 42.0197 24.3262 42.334 23.653L46.5096 25.8243C46.9519 26.0543 47.446 26.1665 47.9442 26.15C48.4425 26.1335 48.9281 25.9889 49.3542 25.7302C49.7803 25.4715 50.1326 25.1074 50.3771 24.6729C50.6216 24.2385 50.75 23.7484 50.75 23.2499C50.75 23.1384 50.7202 23.029 50.6637 22.9329C50.6071 22.8369 50.5259 22.7577 50.4285 22.7035L33.5535 13.3285C33.4131 13.2507 33.248 13.2297 33.0926 13.2701L19.5 16.8159V16.3749C19.5 16.2091 19.4342 16.0501 19.3169 15.9329C19.1997 15.8157 19.0408 15.7499 18.875 15.7499H13.875C13.7092 15.7499 13.5503 15.8157 13.4331 15.9329C13.3158 16.0501 13.25 16.2091 13.25 16.3749V25.1249C13.25 25.2906 13.3158 25.4496 13.4331 25.5668C13.5503 25.684 13.7092 25.7499 13.875 25.7499H18.875C19.0408 25.7499 19.1997 25.684 19.3169 25.5668C19.4342 25.4496 19.5 25.2906 19.5 25.1249V24.4999H23.25C23.3081 24.4999 23.366 24.4918 23.4219 24.4758L27.9646 23.1779L19.1094 30.2618C19.0408 30.3167 18.9845 30.3855 18.9443 30.4636C18.9041 30.5417 18.8808 30.6274 18.8759 30.7152C18.8711 30.8029 18.8848 30.8907 18.9161 30.9727C18.9475 31.0548 18.9958 31.1294 19.0579 31.1915L20.9329 33.0665C21.04 33.1736 21.1823 33.2382 21.3334 33.2483C21.4845 33.2583 21.6341 33.2132 21.7545 33.1212L21.9998 32.9337V39.7896C21.8692 39.963 21.7572 40.1498 21.6659 40.3467L17.4904 38.1754C17.0481 37.9454 16.554 37.8333 16.0558 37.8498C15.5575 37.8662 15.0719 38.0108 14.6458 38.2695C14.2197 38.5282 13.8674 38.8924 13.6229 39.3268C13.3784 39.7612 13.25 40.2514 13.25 40.7499C13.25 40.8613 13.2798 40.9708 13.3363 41.0668C13.3929 41.1629 13.4741 41.2421 13.5715 41.2962L30.4465 50.6712C30.587 50.7493 30.7522 50.7702 30.9078 50.7296L44.5 47.1839V47.6249C44.5 47.7906 44.5658 47.9496 44.6831 48.0668C44.8003 48.184 44.9592 48.2499 45.125 48.2499H50.125C50.2908 48.2499 50.4497 48.184 50.5669 48.0668C50.6842 47.9496 50.75 47.7906 50.75 47.6249V38.8749C50.75 38.7091 50.6842 38.5501 50.5669 38.4329C50.4497 38.3157 50.2908 38.2499 50.125 38.2499H45.125C44.9592 38.2499 44.8003 38.3157 44.6831 38.4329C44.5658 38.5501 44.5 38.7091 44.5 38.8749V39.4999H42V32.9337L42.2454 33.1212C42.3657 33.2132 42.5153 33.2583 42.6664 33.2483C42.8176 33.2382 42.9599 33.1736 43.067 33.0665L44.942 31.1915C45.0041 31.1294 45.0524 31.0548 45.0837 30.9727C45.1151 30.8907 45.1288 30.8029 45.1239 30.7152C45.119 30.6274 45.0957 30.5417 45.0555 30.4636C45.0153 30.3855 44.9591 30.3167 44.8905 30.2618L38.7768 25.3712C39.454 25.5346 40.1665 25.4647 40.799 25.1727V25.1724ZM18.25 24.4999H14.5V16.9999H18.25V24.4999ZM45.75 39.4999H49.5V46.9999H45.75V39.4999ZM44.5 40.7499V45.892L30.8346 49.4569L14.5362 40.4022C14.5898 40.1537 14.7001 39.921 14.8583 39.722C15.0166 39.5231 15.2186 39.3633 15.4487 39.2552C15.6787 39.147 15.9306 39.0934 16.1848 39.0985C16.4389 39.1035 16.6885 39.1672 16.9141 39.2844L29.2116 45.6796C29.3588 45.756 29.5302 45.7709 29.6883 45.721C29.8464 45.671 29.9782 45.5603 30.0547 45.4132C30.1312 45.2661 30.1461 45.0946 30.0961 44.9365C30.0462 44.7784 29.9355 44.6467 29.7884 44.5702L22.7766 40.9242C22.9616 40.4975 23.2987 40.155 23.7224 39.9632C23.9762 39.8445 24.2538 39.7854 24.5339 39.7905C24.814 39.7956 25.0892 39.8648 25.3385 39.9927L31.7205 43.1836C31.8603 43.2536 32.0214 43.2685 32.1717 43.2256L40.8376 40.7499H44.5ZM32.0503 30.1254C32.042 30.1254 32.0334 30.1249 32.025 30.1249H32C31.9917 30.1249 31.9834 30.125 31.9752 30.1253C31.3145 30.1392 30.6855 30.4111 30.2229 30.883C29.7603 31.3548 29.5008 31.9891 29.5 32.6499V40.6761L25.8976 38.8749C25.4886 38.6689 25.0392 38.556 24.5814 38.5442C24.1237 38.5324 23.669 38.622 23.25 38.8065V31.9778L32 25.2867L40.75 31.9778V39.4999C40.6919 39.4999 40.634 39.508 40.5781 39.5239L34.5 41.2606V32.6499C34.5024 31.9925 34.2474 31.3602 33.7896 30.8884C33.3318 30.4167 32.7075 30.1428 32.0503 30.1254ZM33.25 32.6499V41.6178L32.062 41.9571L30.75 41.3011V32.6499C30.7504 32.314 30.8831 31.9918 31.1195 31.7531C31.3558 31.5144 31.6767 31.3785 32.0126 31.3749C32.1778 31.3764 32.3411 31.4107 32.493 31.4758C32.6449 31.5409 32.7824 31.6354 32.8975 31.754C33.0126 31.8726 33.103 32.0129 33.1635 32.1666C33.224 32.3204 33.2534 32.4847 33.25 32.6499ZM43.5643 30.8017L42.5703 31.796L32.3796 24.0035C32.2706 23.9201 32.1372 23.875 32 23.875C31.8628 23.875 31.7294 23.9201 31.6204 24.0035L21.4297 31.796L20.4354 30.8017L31.0771 22.2889L31.938 22.043L33.7446 22.9464L43.5643 30.8017ZM38.6615 24.0068L32.2795 20.8159C32.1397 20.7459 31.9786 20.731 31.8283 20.7739L23.1624 23.2499H19.5V18.1078L33.1654 14.5428L49.4638 23.5975C49.4102 23.846 49.2999 24.0788 49.1417 24.2777C48.9834 24.4766 48.7814 24.6364 48.5513 24.7445C48.3213 24.8527 48.0694 24.9063 47.8152 24.9012C47.5611 24.8962 47.3115 24.8326 47.0859 24.7153L34.7884 18.3202C34.6412 18.2437 34.4698 18.2288 34.3117 18.2787C34.1536 18.3287 34.0218 18.4394 33.9453 18.5865C33.8688 18.7336 33.8539 18.9051 33.9039 19.0632C33.9538 19.2213 34.0645 19.3531 34.2116 19.4296L41.2234 23.0756C41.0384 23.5023 40.7013 23.8449 40.2776 24.0366C40.0238 24.1553 39.7462 24.2143 39.4661 24.2091C39.186 24.204 38.9107 24.1348 38.6615 24.0068Z" fill="#FF3F3F"/>
</svg>
