<svg width="64" height="64" viewBox="0 0 64 64" fill="none" xmlns="http://www.w3.org/2000/svg">
<rect width="64" height="64" rx="32" fill="white"/>
<path d="M19.5013 39.5008V39.8133C19.5013 40.3935 19.7318 40.9499 20.142 41.3601C20.5523 41.7704 21.1087 42.0008 21.6888 42.0008H29.8138C30.394 42.0008 30.9504 41.7704 31.3606 41.3601C31.7709 40.9499 32.0013 40.3935 32.0013 39.8133V39.5008C32.0264 38.4224 31.6926 37.3661 31.0523 36.4978C30.4121 35.6296 29.5016 34.9986 28.4638 34.704C29.076 34.1549 29.5071 33.4331 29.7002 32.6338C29.8933 31.8345 29.8393 30.9954 29.5454 30.2275C29.2515 29.4595 28.7314 28.7989 28.054 28.3328C27.3765 27.8667 26.5736 27.6172 25.7513 27.6172C24.929 27.6172 24.1261 27.8667 23.4487 28.3328C22.7712 28.7989 22.2512 29.4595 21.9572 30.2275C21.6633 30.9954 21.6093 31.8345 21.8024 32.6338C21.9956 33.4331 22.4267 34.1549 23.0388 34.704C22.0011 34.9986 21.0906 35.6296 20.4503 36.4978C19.81 37.3661 19.4762 38.4224 19.5013 39.5008ZM25.7513 28.8758C26.3076 28.8758 26.8513 29.0408 27.3139 29.3498C27.7764 29.6589 28.1369 30.0981 28.3497 30.612C28.5626 31.126 28.6183 31.6915 28.5098 32.237C28.4013 32.7826 28.1334 33.2837 27.7401 33.6771C27.3467 34.0704 26.8456 34.3383 26.3 34.4468C25.7544 34.5553 25.1889 34.4996 24.675 34.2868C24.1611 34.0739 23.7219 33.7134 23.4128 33.2509C23.1038 32.7884 22.9388 32.2446 22.9388 31.6883C22.9388 30.9424 23.2351 30.227 23.7626 29.6996C24.29 29.1722 25.0054 28.8758 25.7513 28.8758ZM24.5013 35.7508H27.0013C27.4968 35.7397 27.9894 35.8291 28.4494 36.0137C28.9094 36.1982 29.3272 36.474 29.6777 36.8245C30.0281 37.1749 30.304 37.5928 30.4885 38.0527C30.673 38.5127 30.7624 39.0053 30.7513 39.5008V39.8133C30.7513 40.062 30.6525 40.3004 30.4767 40.4763C30.3009 40.6521 30.0625 40.7508 29.8138 40.7508H21.6888C21.4402 40.7508 21.2017 40.6521 21.0259 40.4763C20.8501 40.3004 20.7513 40.062 20.7513 39.8133V39.5008C20.7402 39.0053 20.8296 38.5127 21.0142 38.0527C21.1987 37.5928 21.4745 37.1749 21.825 36.8245C22.1754 36.474 22.5932 36.1982 23.0532 36.0137C23.5132 35.8291 24.0058 35.7397 24.5013 35.7508Z" fill="#00A271"/>
<path d="M45.125 35.125C44.9592 35.125 44.8003 35.1908 44.6831 35.3081C44.5658 35.4253 44.5 35.5842 44.5 35.75V43.5625C44.5 43.8111 44.4012 44.0496 44.2254 44.2254C44.0496 44.4012 43.8111 44.5 43.5625 44.5H17.9375C17.6889 44.5 17.4504 44.4012 17.2746 44.2254C17.0988 44.0496 17 43.8111 17 43.5625V25.4375C17 25.1889 17.0988 24.9504 17.2746 24.7746C17.4504 24.5988 17.6889 24.5 17.9375 24.5H31.6875C31.8533 24.5 32.0122 24.4342 32.1294 24.3169C32.2467 24.1997 32.3125 24.0408 32.3125 23.875C32.3125 23.7092 32.2467 23.5503 32.1294 23.4331C32.0122 23.3158 31.8533 23.25 31.6875 23.25H17.9375C17.3573 23.25 16.8009 23.4805 16.3907 23.8907C15.9805 24.3009 15.75 24.8573 15.75 25.4375V43.5625C15.75 44.1427 15.9805 44.6991 16.3907 45.1093C16.8009 45.5195 17.3573 45.75 17.9375 45.75H43.5625C44.1427 45.75 44.6991 45.5195 45.1093 45.1093C45.5195 44.6991 45.75 44.1427 45.75 43.5625V35.75C45.75 35.5842 45.6842 35.4253 45.5669 35.3081C45.4497 35.1908 45.2908 35.125 45.125 35.125Z" fill="#00A271"/>
<path d="M44.5832 23.4351L40.6519 27.3663L38.1769 24.8913C38.0596 24.774 37.9006 24.7082 37.7347 24.7082C37.5689 24.7082 37.4098 24.774 37.2925 24.8913C37.1753 25.0086 37.1094 25.1676 37.1094 25.3335C37.1094 25.4994 37.1753 25.6584 37.2925 25.7757L40.2082 28.6913C40.2663 28.7498 40.3354 28.7962 40.4116 28.8279C40.4878 28.8595 40.5694 28.8758 40.6519 28.8757C40.8174 28.875 40.9759 28.8087 41.0925 28.6913L45.4675 24.3163C45.5751 24.1972 45.6327 24.0414 45.6284 23.881C45.6242 23.7206 45.5585 23.568 45.4448 23.4547C45.3312 23.3415 45.1783 23.2763 45.0179 23.2726C44.8575 23.269 44.7019 23.3271 44.5832 23.4351Z" fill="#00A271"/>
<path d="M48.9642 19.9598C48.9488 19.8154 48.8835 19.681 48.7798 19.5795C48.676 19.478 48.5401 19.4158 48.3955 19.4035C47.2033 19.2493 46.0394 18.9252 44.9392 18.441C43.8028 17.9678 42.7441 17.3262 41.7986 16.5379C41.6834 16.4325 41.5329 16.374 41.3767 16.374C41.2206 16.374 41.0701 16.4325 40.9548 16.5379C40.0096 17.3266 38.9508 17.9682 37.8142 18.441C36.7198 18.9232 35.5624 19.2472 34.3767 19.4035C34.2315 19.4151 34.0949 19.477 33.9905 19.5785C33.8861 19.6801 33.8204 19.8149 33.8048 19.9598C33.7767 20.2254 33.1517 26.466 34.6955 29.5473C36.5423 33.2285 40.9455 35.2941 41.1298 35.3816C41.2121 35.4197 41.3017 35.4394 41.3923 35.4394C41.483 35.4394 41.5726 35.4197 41.6548 35.3816C41.8392 35.2941 46.2423 33.2285 48.0892 29.5473C49.6173 26.466 48.9923 20.2254 48.9642 19.9598ZM46.9548 28.9879C45.5517 31.791 42.3142 33.6254 41.3767 34.116C40.4392 33.6254 37.2017 31.791 35.7986 28.9879C34.6486 26.6879 34.8798 22.0848 34.9923 20.5785C36.1313 20.3801 37.2431 20.0486 38.3048 19.591C39.3993 19.1282 40.4313 18.5297 41.3767 17.8098C42.3221 18.5297 43.3541 19.1282 44.4486 19.591C45.5103 20.0486 46.6221 20.3801 47.7611 20.5785C47.8767 22.0848 48.108 26.6879 46.9548 28.9879Z" fill="#00A271"/>
<path d="M35.125 42H41.375C41.5408 42 41.6997 41.9342 41.8169 41.8169C41.9342 41.6997 42 41.5408 42 41.375C42 41.2092 41.9342 41.0503 41.8169 40.9331C41.6997 40.8158 41.5408 40.75 41.375 40.75H35.125C34.9592 40.75 34.8003 40.8158 34.6831 40.9331C34.5658 41.0503 34.5 41.2092 34.5 41.375C34.5 41.5408 34.5658 41.6997 34.6831 41.8169C34.8003 41.9342 34.9592 42 35.125 42Z" fill="#00A271"/>
<path d="M35.125 38.25H38.875C39.0408 38.25 39.1997 38.1842 39.3169 38.0669C39.4342 37.9497 39.5 37.7908 39.5 37.625C39.5 37.4592 39.4342 37.3003 39.3169 37.1831C39.1997 37.0658 39.0408 37 38.875 37H35.125C34.9592 37 34.8003 37.0658 34.6831 37.1831C34.5658 37.3003 34.5 37.4592 34.5 37.625C34.5 37.7908 34.5658 37.9497 34.6831 38.0669C34.8003 38.1842 34.9592 38.25 35.125 38.25Z" fill="#00A271"/>
</svg>
