<svg width="64" height="64" viewBox="0 0 64 64" fill="none" xmlns="http://www.w3.org/2000/svg">
<rect width="64" height="64" rx="32" fill="white"/>
<g clip-path="url(#clip0_6087_671)">
<path d="M43.0595 41.56C41.5681 41.8906 38.4545 42.8747 36.4633 43.5128C36.4864 43.2514 36.4787 42.99 36.4403 42.7363C36.2558 41.5524 35.1487 40.9143 34.2338 41.0065L28.6217 41.3602C28.1989 41.2602 26.0309 40.7528 24.8546 40.7836C23.4785 40.8143 22.2485 41.4447 21.5258 41.8983L18.0509 41.7369L15.4062 49.048L17.7203 51.8464L20.4956 51.9771H20.5802L21.0568 52.0002V51.9694L31.1895 51.7234L44.2435 45.7346C45.5427 45.1118 45.7964 43.9125 45.4812 42.9977C45.166 42.0828 44.2358 41.291 43.0595 41.56ZM18.1662 50.9392L16.4518 48.8635L18.689 42.6902L20.5648 42.7824L20.1804 51.0315L18.1662 50.9392ZM43.8591 44.8966L30.9896 50.8086L21.103 51.0392L21.4797 43.0669C21.6796 42.9054 22.7328 42.1059 24.032 41.8137C24.3088 41.7522 24.5933 41.7138 24.8777 41.7061C25.2929 41.6984 25.8771 41.7676 26.4537 41.8599C27.4685 42.029 28.4526 42.2673 28.4679 42.275L28.5371 42.2904L28.8523 42.2673L34.303 41.9291H34.3184C34.7412 41.8906 35.4178 42.1597 35.5331 42.89C35.5946 43.2744 35.5485 43.6127 35.4024 43.8664C35.3793 43.9125 35.3563 43.951 35.3255 43.9894C35.141 44.22 34.8643 44.3584 34.4875 44.3969L32.9653 44.5353L31.0972 44.7044C30.7512 44.7351 30.436 44.9196 30.2438 45.2118L30.167 45.3194C29.8056 45.8729 28.714 47.5566 26.9381 47.7642L27.0457 48.679C29.2444 48.4253 30.5206 46.4649 30.9434 45.8191L31.0049 45.7192C31.0511 45.6654 31.1126 45.6269 31.1818 45.6192L34.5721 45.3117C35.1564 45.2579 35.6407 45.0273 35.9713 44.6506C37.8087 44.0586 41.6142 42.8362 43.2671 42.4672C43.9129 42.3211 44.4357 42.7747 44.6202 43.3052C44.8047 43.8357 44.6894 44.5045 43.8591 44.8966Z" fill="#F8BB34"/>
<path d="M46.4849 21.5255H44.978C44.7013 21.218 44.2016 20.8259 43.5327 20.3185C43.2944 20.134 43.033 19.9418 42.8408 19.7804L44.8089 17.5202C44.8858 17.4279 44.9319 17.3049 44.9165 17.1819C44.9089 17.0512 44.8473 16.9359 44.7474 16.859C44.6475 16.7744 42.1873 14.8371 40.2961 15.4137C38.92 15.8288 37.9206 16.8206 37.4977 17.3049C36.5675 16.982 35.5988 16.8052 34.6148 16.7667C34.6225 16.6976 34.6225 16.6284 34.6225 16.5592C34.7224 14.0452 32.7697 11.9234 30.2558 11.8158C27.7418 11.7081 25.62 13.6685 25.5124 16.1825C25.5047 16.3055 25.5047 16.4285 25.5124 16.5592C25.5124 16.7283 25.52 16.8897 25.5431 17.0589C23.5519 17.5586 21.7607 18.6503 20.4076 20.1878H17.9475C17.2171 20.1878 16.5944 19.7573 16.5944 19.2422V18.6272C16.5944 18.1121 17.2171 17.6816 17.9475 17.6816H19.0622V16.7591H17.9475C16.6944 16.7591 15.6719 17.597 15.6719 18.6272V19.2422C15.6719 20.2724 16.6944 21.1104 17.9475 21.1104H19.6849C18.5087 22.794 17.8783 24.8083 17.886 26.8609V27.6297C17.8937 31.1661 19.7388 34.4488 22.7678 36.2786L23.0753 38.116C23.2214 39.0078 23.9902 39.6612 24.8896 39.6535H27.6111C28.6259 39.6535 29.4485 38.8309 29.4562 37.8161V37.7316H34.3227V37.8161C34.3303 38.8309 35.1529 39.6535 36.1677 39.6535H38.8969C39.7964 39.6535 40.5652 39.0001 40.7113 38.116L41.2494 34.8947C41.5954 34.6026 42.1797 34.272 42.7947 33.9261C43.9171 33.2957 45.078 32.6422 45.5854 31.858H46.4849C47.6457 31.858 48.5837 30.9201 48.5837 29.7592V29.7516V23.632C48.5837 22.4711 47.6457 21.5332 46.4849 21.5255ZM26.4349 16.5592C26.3426 14.5526 27.8956 12.8536 29.9021 12.7614C31.9087 12.6691 33.6077 14.2221 33.6999 16.2286C33.7076 16.3362 33.7076 16.4515 33.6999 16.5592C33.6999 16.6284 33.6999 16.6899 33.6922 16.7591C33.5846 18.7579 31.8779 20.2955 29.8714 20.1878C28.4107 20.111 27.1345 19.1577 26.6502 17.7815C26.5425 17.4894 26.4733 17.1819 26.4503 16.8744C26.4426 16.7744 26.4349 16.6668 26.4349 16.5592ZM47.6611 29.7516C47.6611 30.405 47.1383 30.9278 46.4849 30.9355H45.3086C45.1241 30.9355 44.955 31.0508 44.8858 31.2199C44.6244 31.8427 43.3559 32.5499 42.3411 33.1265C41.6108 33.5417 40.9112 33.9338 40.5037 34.3182C40.4268 34.3873 40.3807 34.4796 40.3653 34.5795L39.7964 37.9622C39.7272 38.4081 39.3428 38.731 38.8969 38.731H36.1677C35.6603 38.731 35.2529 38.3235 35.2452 37.8161V37.2472C35.2452 37.1242 35.1991 37.0012 35.1068 36.9167C35.0222 36.8321 34.9069 36.786 34.7839 36.786H34.7609L34.2227 36.8013H28.995C28.7413 36.8013 28.5337 37.0089 28.5337 37.2626V37.8084C28.526 38.3158 28.1185 38.7233 27.6111 38.7233H24.8896C24.436 38.7233 24.0517 38.4004 23.9825 37.9545L23.6365 35.9095C23.6134 35.7712 23.5366 35.6482 23.4136 35.579C20.569 33.9414 18.8162 30.9124 18.8085 27.6297V26.8609C18.8085 22.6557 21.6607 18.9962 25.7353 17.9584C26.112 19.1192 26.9423 20.0802 28.034 20.6261C27.1345 20.5415 26.3657 20.4031 25.8506 20.2263C25.6123 20.1417 25.3509 20.2724 25.2663 20.5107C25.1818 20.7491 25.3048 21.0028 25.5431 21.0873C25.5431 21.0873 25.5508 21.0873 25.5508 21.095C26.5733 21.4487 28.3722 21.6562 30.3634 21.6562C32.3546 21.6562 34.1458 21.4487 35.1683 21.1027C35.4066 21.0181 35.5373 20.7491 35.4528 20.5107C35.3682 20.2724 35.1068 20.1417 34.8685 20.2263C34.2304 20.4492 33.1925 20.6107 31.9855 20.6876C33.2233 20.111 34.1381 19.0116 34.4841 17.6893C35.5066 17.7123 36.5214 17.9122 37.4824 18.2813C37.6823 18.3581 37.9052 18.2889 38.0205 18.1121C38.1358 17.966 39.1353 16.736 40.5652 16.2978C41.5569 15.998 42.9869 16.7591 43.7787 17.2972L41.8491 19.5113C41.6953 19.6804 41.6953 19.9341 41.8414 20.111C42.0259 20.3262 42.3949 20.6107 42.9715 21.0489C43.5481 21.4871 44.2323 22.0099 44.3553 22.2174C44.4399 22.3558 44.5936 22.4481 44.7551 22.4481H46.4849C47.1383 22.4558 47.6611 22.9785 47.6611 23.632V29.7516Z" fill="#F8BB34"/>
<path d="M40.0409 24.0244C40.0409 23.1249 39.3106 22.3945 38.4111 22.3945C37.5116 22.3945 36.7812 23.1249 36.7812 24.0244C36.7812 24.9238 37.5116 25.6542 38.4111 25.6542C39.3106 25.6542 40.0409 24.9238 40.0409 24.0244ZM38.4111 24.7316C38.019 24.7316 37.7038 24.4164 37.7038 24.0244C37.7038 23.6323 38.019 23.3171 38.4111 23.3171C38.8032 23.3171 39.1184 23.6323 39.1184 24.0244C39.1184 24.4164 38.8032 24.7316 38.4111 24.7316Z" fill="#F8BB34"/>
<path d="M41.4011 30.1357C41.1474 30.1357 40.9398 30.3433 40.9398 30.597C40.9014 30.966 40.5631 31.2351 40.1941 31.1967C39.8789 31.1659 39.6252 30.9122 39.5944 30.597C39.5944 30.3433 39.3868 30.1357 39.1331 30.1357C38.8794 30.1357 38.6719 30.3433 38.6719 30.597C38.7334 31.4811 39.4945 32.1423 40.3786 32.0808C41.1781 32.027 41.8085 31.3889 41.8623 30.597C41.8623 30.3433 41.6548 30.1357 41.4011 30.1357Z" fill="#F8BB34"/>
<path d="M46.18 24.5234C45.9263 24.5234 45.7188 24.731 45.7188 24.9847V26.3301C45.7188 26.5838 45.9263 26.7914 46.18 26.7914C46.4337 26.7914 46.6413 26.5838 46.6413 26.3301V24.9847C46.6413 24.731 46.4337 24.5234 46.18 24.5234Z" fill="#F8BB34"/>
<path d="M32.0485 16.5588H32.971C32.971 15.3133 32.1792 14.1986 30.9953 13.7988L30.7031 14.6752C31.5104 14.952 32.0485 15.7054 32.0485 16.5588Z" fill="#F8BB34"/>
<path d="M28.6864 19.1119L29.1323 18.297C28.4942 17.9511 28.0944 17.2822 28.0944 16.5596H27.1719C27.1719 17.6205 27.7562 18.5969 28.6864 19.1119Z" fill="#F8BB34"/>
</g>
<defs>
<clipPath id="clip0_6087_671">
<rect width="40" height="40" fill="white" transform="translate(12 12)"/>
</clipPath>
</defs>
</svg>
