<svg width="18" height="17" viewBox="0 0 18 17" fill="none" xmlns="http://www.w3.org/2000/svg">
<path d="M7.61644 1.25816C8.05192 -0.0821254 9.94807 -0.0821273 10.3836 1.25816L11.3676 4.28658C11.5623 4.88597 12.1209 5.2918 12.7511 5.2918H15.9354C17.3446 5.2918 17.9306 7.09514 16.7905 7.92348L14.2143 9.79515C13.7045 10.1656 13.4911 10.8222 13.6859 11.4216L14.6699 14.45C15.1053 15.7903 13.5713 16.9049 12.4312 16.0765L9.85509 14.2048C9.34521 13.8344 8.65479 13.8344 8.14491 14.2048L5.56879 16.0765C4.42867 16.9049 2.89465 15.7903 3.33014 14.45L4.31413 11.4216C4.50889 10.8222 4.29553 10.1656 3.78566 9.79515L1.20953 7.92348C0.0694144 7.09514 0.655356 5.2918 2.06462 5.2918H5.24889C5.87913 5.2918 6.43769 4.88597 6.63245 4.28658L7.61644 1.25816Z" fill="#E78353"/>
</svg>
