<svg width="64" height="64" viewBox="0 0 64 64" fill="none" xmlns="http://www.w3.org/2000/svg">
<rect width="64" height="64" rx="32" fill="white"/>
<g clip-path="url(#clip0_6087_692)">
<path d="M48.6667 12H15.3333C14.4496 12.0011 13.6024 12.3526 12.9775 12.9775C12.3526 13.6024 12.0011 14.4496 12 15.3333L12 48.6667C12.0011 49.5504 12.3526 50.3976 12.9775 51.0225C13.6024 51.6474 14.4496 51.9989 15.3333 52H48.6667C49.5504 51.9989 50.3976 51.6474 51.0225 51.0225C51.6474 50.3976 51.9989 49.5504 52 48.6667V15.3333C51.9989 14.4496 51.6474 13.6024 51.0225 12.9775C50.3976 12.3526 49.5504 12.0011 48.6667 12ZM15.3333 13.3333H48.6667C49.1969 13.3339 49.7053 13.5447 50.0803 13.9197C50.4553 14.2947 50.6661 14.8031 50.6667 15.3333V20H13.3333V15.3333C13.3339 14.8031 13.5447 14.2947 13.9197 13.9197C14.2947 13.5447 14.8031 13.3339 15.3333 13.3333ZM48.6667 50.6667H15.3333C14.8031 50.6661 14.2947 50.4553 13.9197 50.0803C13.5447 49.7053 13.3339 49.1969 13.3333 48.6667V21.3333H50.6667V48.6667C50.6661 49.1969 50.4553 49.7053 50.0803 50.0803C49.7053 50.4553 49.1969 50.6661 48.6667 50.6667Z" fill="#00A271"/>
<path d="M16.6641 18.6665C16.9267 18.6665 17.1868 18.6148 17.4294 18.5143C17.6721 18.4138 17.8926 18.2664 18.0783 18.0807C18.264 17.895 18.4113 17.6745 18.5118 17.4319C18.6123 17.1892 18.6641 16.9291 18.6641 16.6665C18.6641 16.4039 18.6123 16.1438 18.5118 15.9011C18.4113 15.6585 18.264 15.438 18.0783 15.2523C17.8926 15.0666 17.6721 14.9193 17.4294 14.8187C17.1868 14.7182 16.9267 14.6665 16.6641 14.6665C16.1336 14.6665 15.6249 14.8772 15.2498 15.2523C14.8748 15.6274 14.6641 16.1361 14.6641 16.6665C14.6641 17.1969 14.8748 17.7056 15.2498 18.0807C15.6249 18.4558 16.1336 18.6665 16.6641 18.6665ZM16.6641 15.9998C16.8409 15.9998 17.0104 16.0701 17.1355 16.1951C17.2605 16.3201 17.3307 16.4897 17.3307 16.6665C17.3307 16.8433 17.2605 17.0129 17.1355 17.1379C17.0104 17.2629 16.8409 17.3332 16.6641 17.3332C16.4873 17.3332 16.3177 17.2629 16.1927 17.1379C16.0676 17.0129 15.9974 16.8433 15.9974 16.6665C15.9974 16.4897 16.0676 16.3201 16.1927 16.1951C16.3177 16.0701 16.4873 15.9998 16.6641 15.9998ZM21.9974 18.6665C22.26 18.6665 22.5201 18.6148 22.7628 18.5143C23.0054 18.4138 23.2259 18.2664 23.4116 18.0807C23.5973 17.895 23.7446 17.6745 23.8452 17.4319C23.9457 17.1892 23.9974 16.9291 23.9974 16.6665C23.9974 16.4039 23.9457 16.1438 23.8452 15.9011C23.7446 15.6585 23.5973 15.438 23.4116 15.2523C23.2259 15.0666 23.0054 14.9193 22.7628 14.8187C22.5201 14.7182 22.26 14.6665 21.9974 14.6665C21.467 14.6665 20.9583 14.8772 20.5832 15.2523C20.2081 15.6274 19.9974 16.1361 19.9974 16.6665C19.9974 17.1969 20.2081 17.7056 20.5832 18.0807C20.9583 18.4558 21.467 18.6665 21.9974 18.6665ZM21.9974 15.9998C22.1742 15.9998 22.3438 16.0701 22.4688 16.1951C22.5938 16.3201 22.6641 16.4897 22.6641 16.6665C22.6641 16.8433 22.5938 17.0129 22.4688 17.1379C22.3438 17.2629 22.1742 17.3332 21.9974 17.3332C21.8206 17.3332 21.651 17.2629 21.526 17.1379C21.401 17.0129 21.3307 16.8433 21.3307 16.6665C21.3307 16.4897 21.401 16.3201 21.526 16.1951C21.651 16.0701 21.8206 15.9998 21.9974 15.9998ZM27.3307 18.6665C27.5934 18.6665 27.8534 18.6148 28.0961 18.5143C28.3387 18.4138 28.5592 18.2664 28.7449 18.0807C28.9307 17.895 29.078 17.6745 29.1785 17.4319C29.279 17.1892 29.3307 16.9291 29.3307 16.6665C29.3307 16.4039 29.279 16.1438 29.1785 15.9011C29.078 15.6585 28.9307 15.438 28.7449 15.2523C28.5592 15.0666 28.3387 14.9193 28.0961 14.8187C27.8534 14.7182 27.5934 14.6665 27.3307 14.6665C26.8003 14.6665 26.2916 14.8772 25.9165 15.2523C25.5414 15.6274 25.3307 16.1361 25.3307 16.6665C25.3307 17.1969 25.5414 17.7056 25.9165 18.0807C26.2916 18.4558 26.8003 18.6665 27.3307 18.6665ZM27.3307 15.9998C27.5075 15.9998 27.6771 16.0701 27.8021 16.1951C27.9272 16.3201 27.9974 16.4897 27.9974 16.6665C27.9974 16.8433 27.9272 17.0129 27.8021 17.1379C27.6771 17.2629 27.5075 17.3332 27.3307 17.3332C27.1539 17.3332 26.9843 17.2629 26.8593 17.1379C26.7343 17.0129 26.6641 16.8433 26.6641 16.6665C26.6641 16.4897 26.7343 16.3201 26.8593 16.1951C26.9843 16.0701 27.1539 15.9998 27.3307 15.9998ZM23.9974 23.3332C22.8107 23.3332 21.6507 23.6851 20.664 24.3444C19.6773 25.0036 18.9082 25.9407 18.4541 27.0371C18 28.1334 17.8812 29.3398 18.1127 30.5037C18.3442 31.6676 18.9156 32.7367 19.7548 33.5758C20.5939 34.4149 21.663 34.9864 22.8269 35.2179C23.9907 35.4494 25.1971 35.3306 26.2935 34.8764C27.3899 34.4223 28.3269 33.6533 28.9862 32.6666C29.6455 31.6799 29.9974 30.5199 29.9974 29.3332C29.9956 27.7424 29.3629 26.2173 28.2381 25.0925C27.1133 23.9676 25.5882 23.3349 23.9974 23.3332ZM23.9974 33.9998C23.0744 33.9998 22.1722 33.7261 21.4047 33.2134C20.6373 32.7006 20.0392 31.9717 19.686 31.119C19.3327 30.2663 19.2403 29.328 19.4204 28.4227C19.6005 27.5175 20.0449 26.686 20.6976 26.0333C21.3502 25.3807 22.1817 24.9362 23.087 24.7562C23.9922 24.5761 24.9305 24.6685 25.7833 25.0217C26.636 25.3749 27.3648 25.9731 27.8776 26.7405C28.3904 27.5079 28.6641 28.4102 28.6641 29.3332C28.6627 30.5704 28.1705 31.7566 27.2957 32.6314C26.4208 33.5063 25.2346 33.9984 23.9974 33.9998ZM23.9974 36.6665C22.8107 36.6665 21.6507 37.0184 20.664 37.6777C19.6773 38.337 18.9082 39.274 18.4541 40.3704C18 41.4668 17.8812 42.6732 18.1127 43.837C18.3442 45.0009 18.9156 46.07 19.7548 46.9091C20.5939 47.7483 21.663 48.3197 22.8269 48.5512C23.9907 48.7827 25.1971 48.6639 26.2935 48.2098C27.3899 47.7557 28.3269 46.9866 28.9862 45.9999C29.6455 45.0132 29.9974 43.8532 29.9974 42.6665C29.9956 41.0757 29.3629 39.5506 28.2381 38.4258C27.1133 37.301 25.5882 36.6683 23.9974 36.6665ZM23.9974 47.3332C23.0744 47.3332 22.1722 47.0595 21.4047 46.5467C20.6373 46.0339 20.0392 45.3051 19.686 44.4524C19.3327 43.5996 19.2403 42.6613 19.4204 41.7561C19.6005 40.8508 20.0449 40.0193 20.6976 39.3667C21.3502 38.714 22.1817 38.2696 23.087 38.0895C23.9922 37.9094 24.9305 38.0019 25.7833 38.3551C26.636 38.7083 27.3648 39.3064 27.8776 40.0738C28.3904 40.8413 28.6641 41.7435 28.6641 42.6665C28.6627 43.9037 28.1705 45.0899 27.2957 45.9648C26.4208 46.8396 25.2346 47.3318 23.9974 47.3332Z" fill="#00A271"/>
<path d="M21.3307 29.3333C21.6989 29.3333 21.9974 29.0349 21.9974 28.6667C21.9974 28.2985 21.6989 28 21.3307 28C20.9625 28 20.6641 28.2985 20.6641 28.6667C20.6641 29.0349 20.9625 29.3333 21.3307 29.3333Z" fill="#00A271"/>
<path d="M26.6667 29.3333C27.0349 29.3333 27.3333 29.0349 27.3333 28.6667C27.3333 28.2985 27.0349 28 26.6667 28C26.2985 28 26 28.2985 26 28.6667C26 29.0349 26.2985 29.3333 26.6667 29.3333Z" fill="#00A271"/>
<path d="M25.4857 29.9055C25.3229 29.8368 25.1395 29.8355 24.9757 29.9017C24.8119 29.9679 24.681 30.0963 24.6117 30.2588C24.5437 30.4186 24.4166 30.5459 24.257 30.6142C24.0903 30.6842 23.9037 30.6842 23.737 30.6142C23.5772 30.5462 23.45 30.4188 23.3823 30.2588C23.3134 30.096 23.1826 29.9672 23.0187 29.9008C22.8548 29.8344 22.6712 29.8359 22.5083 29.9048C22.3455 29.9738 22.2167 30.1046 22.1503 30.2685C22.0839 30.4324 22.0854 30.616 22.1543 30.7788C22.3077 31.1409 22.5641 31.4499 22.8918 31.6673C23.2194 31.8847 23.6038 32.001 23.997 32.0015C24.3904 32.002 24.7751 31.8863 25.103 31.6691C25.4309 31.4518 25.6874 31.1426 25.8403 30.7802C25.9094 30.6174 25.9109 30.4339 25.8447 30.27C25.7784 30.1061 25.6498 29.9752 25.487 29.9062L25.4857 29.9055Z" fill="#00A271"/>
<path d="M21.3307 42.6668C21.6989 42.6668 21.9974 42.3684 21.9974 42.0002C21.9974 41.632 21.6989 41.3335 21.3307 41.3335C20.9625 41.3335 20.6641 41.632 20.6641 42.0002C20.6641 42.3684 20.9625 42.6668 21.3307 42.6668Z" fill="#00A271"/>
<path d="M26.6667 42.6668C27.0349 42.6668 27.3333 42.3684 27.3333 42.0002C27.3333 41.632 27.0349 41.3335 26.6667 41.3335C26.2985 41.3335 26 41.632 26 42.0002C26 42.3684 26.2985 42.6668 26.6667 42.6668Z" fill="#00A271"/>
<path d="M25.4118 43.92C25.2296 43.7367 25.0133 43.5909 24.7751 43.4907C24.5287 43.3875 24.2643 43.3344 23.9971 43.3344C23.73 43.3344 23.4656 43.3875 23.2191 43.4907C22.7397 43.6935 22.3579 44.0748 22.1545 44.554C22.0854 44.7168 22.0839 44.9004 22.1502 45.0644C22.2166 45.2284 22.3453 45.3593 22.5081 45.4283C22.671 45.4974 22.8546 45.4989 23.0186 45.4326C23.1825 45.3663 23.3134 45.2375 23.3825 45.0747C23.4505 44.9149 23.5775 44.7876 23.7371 44.7193C23.9038 44.6493 24.0905 44.6493 24.2571 44.7193C24.4171 44.7873 24.5438 44.9147 24.6118 45.0753C24.6809 45.2382 24.8119 45.3669 24.976 45.4331C25.14 45.4994 25.3236 45.4978 25.4865 45.4287C25.6493 45.3595 25.778 45.2285 25.8443 45.0645C25.9106 44.9005 25.9089 44.7168 25.8398 44.554C25.7392 44.3171 25.5939 44.1019 25.4118 43.92ZM43.9971 29.3333C43.8203 29.3333 43.6508 29.4036 43.5257 29.5286C43.4007 29.6536 43.3305 29.8232 43.3305 30V32.6667C43.3305 32.8435 43.2602 33.013 43.1352 33.1381C43.0102 33.2631 42.8406 33.3333 42.6638 33.3333H35.9971C35.8203 33.3333 35.6508 33.2631 35.5257 33.1381C35.4007 33.013 35.3305 32.8435 35.3305 32.6667V26C35.3305 25.8232 35.4007 25.6536 35.5257 25.5286C35.6508 25.4036 35.8203 25.3333 35.9971 25.3333H42.6638C42.8406 25.3333 43.0102 25.2631 43.1352 25.1381C43.2602 25.013 43.3305 24.8435 43.3305 24.6667C43.3305 24.4899 43.2602 24.3203 43.1352 24.1953C43.0102 24.0702 42.8406 24 42.6638 24H35.9971C35.4669 24.0005 34.9585 24.2114 34.5835 24.5864C34.2086 24.9613 33.9977 25.4697 33.9971 26V32.6667C33.9977 33.1969 34.2086 33.7053 34.5835 34.0803C34.9585 34.4553 35.4669 34.6661 35.9971 34.6667H42.6638C43.1941 34.6661 43.7025 34.4553 44.0774 34.0803C44.4524 33.7053 44.6633 33.1969 44.6638 32.6667V30C44.6638 29.8232 44.5936 29.6536 44.4685 29.5286C44.3435 29.4036 44.174 29.3333 43.9971 29.3333ZM42.6638 37.3333H35.9971C35.4669 37.3339 34.9585 37.5447 34.5835 37.9197C34.2086 38.2947 33.9977 38.8031 33.9971 39.3333V46C33.9977 46.5303 34.2086 47.0387 34.5835 47.4136C34.9585 47.7886 35.4669 47.9995 35.9971 48H42.6638C43.1941 47.9995 43.7025 47.7886 44.0774 47.4136C44.4524 47.0387 44.6633 46.5303 44.6638 46V39.3333C44.6633 38.8031 44.4524 38.2947 44.0774 37.9197C43.7025 37.5447 43.1941 37.3339 42.6638 37.3333ZM43.3305 46C43.3305 46.1768 43.2602 46.3464 43.1352 46.4714C43.0102 46.5964 42.8406 46.6667 42.6638 46.6667H35.9971C35.8203 46.6667 35.6508 46.5964 35.5257 46.4714C35.4007 46.3464 35.3305 46.1768 35.3305 46V39.3333C35.3305 39.1565 35.4007 38.987 35.5257 38.8619C35.6508 38.7369 35.8203 38.6667 35.9971 38.6667H42.6638C42.8406 38.6667 43.0102 38.7369 43.1352 38.8619C43.2602 38.987 43.3305 39.1565 43.3305 39.3333V46Z" fill="#00A271"/>
<path d="M45.5257 24.1954L39.3304 30.3908L37.8017 28.8621C37.6759 28.7407 37.5075 28.6735 37.3327 28.675C37.158 28.6765 36.9907 28.7466 36.8671 28.8702C36.7435 28.9938 36.6734 29.161 36.6719 29.3358C36.6704 29.5106 36.7376 29.679 36.859 29.8048L38.859 31.8048C38.984 31.9298 39.1536 32 39.3304 32C39.5071 32 39.6767 31.9298 39.8017 31.8048L46.4684 25.1381C46.5898 25.0124 46.657 24.844 46.6555 24.6692C46.6539 24.4944 46.5838 24.3272 46.4602 24.2036C46.3366 24.08 46.1694 24.0098 45.9946 24.0083C45.8198 24.0068 45.6514 24.074 45.5257 24.1954Z" fill="#00A271"/>
</g>
<defs>
<clipPath id="clip0_6087_692">
<rect width="40" height="40" fill="white" transform="translate(12 12)"/>
</clipPath>
</defs>
</svg>
