<svg width="25" height="24" viewBox="0 0 25 24" fill="none" xmlns="http://www.w3.org/2000/svg">
<path d="M17.6336 10.0536L17.6336 10.0536L17.6395 10.0475C18.1136 9.55706 18.1221 8.77495 17.6336 8.28645C17.1483 7.80118 16.3517 7.80118 15.8664 8.28645L11.08 13.0729L9.13355 11.1264C8.64829 10.6412 7.85171 10.6412 7.36645 11.1264C6.88118 11.6117 6.88118 12.4083 7.36645 12.8936L10.1964 15.7236C10.4291 15.9563 10.7459 16.09 11.08 16.09C11.4141 16.09 11.7309 15.9563 11.9636 15.7236L17.6336 10.0536ZM3 12C3 6.76614 7.26614 2.5 12.5 2.5C17.7339 2.5 22 6.76614 22 12C22 17.2339 17.7339 21.5 12.5 21.5C7.26614 21.5 3 17.2339 3 12Z" fill="white" stroke="white"/>
</svg>
